<svg width="358" height="100" viewBox="0 0 358 100" fill="none" xmlns="http://www.w3.org/2000/svg">
<g clip-path="url(#clip0_574_24)">
<path d="M6.10272 43.2184H41.2624V53.0965L28.0397 54.1137C6.68024 55.7084 0 61.3801 0 77.2144V80.4123C0 92.0402 8.13696 99.0136 20.6355 99.0136C30.5137 99.0136 36.1854 96.6863 43.1587 89.5664H44.3224V97.1173H58.4155V27.8237H6.10272V43.2271V43.2184ZM41.2624 76.6368C36.9008 80.9984 30.367 83.9033 24.9885 83.9033C19.1787 83.9033 16.7049 81.7225 16.8514 76.9299C16.998 70.2496 19.4632 68.6464 30.6515 67.6294L41.2624 66.6122V76.6368Z" fill="#FF8800"/>
<path d="M336.364 55.7176L325.901 54.7004C320.091 54.1229 318.635 52.6661 318.635 48.0201C318.635 42.788 320.668 41.4778 328.805 41.4778C336.071 41.4778 338.107 42.6415 339.123 47.5805H355.397C354.957 31.0135 349.871 26.8071 329.676 26.8071C307.592 26.8071 302.067 31.0222 302.067 48.0201C302.067 63.5699 306.136 67.7764 322.556 69.3797L331.132 70.2502C338.83 70.9743 340.726 72.4311 340.726 77.077C340.726 82.7401 338.399 84.1968 328.96 84.1968C320.677 84.1968 318.497 82.8867 318.066 77.5166H301.645C302.084 94.6612 307.308 99.0228 328.236 99.0228C351.484 99.0228 357.294 94.3681 357.294 75.4823C357.294 61.3892 353.078 57.3208 336.373 55.7261L336.364 55.7176Z" fill="#024BE6"/>
<path d="M249.186 57.0277C249.186 34.6511 241.488 26.8071 219.395 26.8071C197.304 26.8071 189.029 36.9784 189.029 62.2598C189.029 89.8687 196.588 99.0228 220.991 99.0228C238.574 99.0228 245.979 93.644 248.453 78.5338H231.748C229.86 83.1884 227.826 84.1968 220.707 84.1968C209.957 84.1968 207.191 81.1456 206.614 68.216H248.022C248.746 64.4406 249.186 59.9325 249.186 57.0277ZM206.76 54.5539C206.907 44.8222 210.828 41.1847 220.129 41.1847C229.429 41.1847 232.628 44.8136 232.912 54.5539H206.76Z" fill="#024BE6"/>
<path d="M115.659 27.8245H88.4902V7.04248H71.1992V97.1266H88.4902V43.3657H113.186V97.1266H130.477V41.9177H115.659V27.8245Z" fill="#024BE6"/>
<path d="M258.917 30.8679V97.1272H276.208V42.6424H296.981V27.8251H276.208V25.9375C276.355 21.869 277.372 20.7054 280.708 20.7054H299.594V7.05176H279.25C265.45 7.05176 258.908 11.2668 258.908 30.8765L258.917 30.8679Z" fill="#024BE6"/>
<path d="M143.268 97.1258H160.549V44.0891H186.27V27.8237H143.268V97.1258Z" fill="#024BE6"/>
</g>
<defs>
<clipPath id="clip0_574_24">
<rect width="357.746" height="100" fill="white"/>
</clipPath>
</defs>
</svg>
