<svg width="101" height="100" viewBox="0 0 101 100" fill="none" xmlns="http://www.w3.org/2000/svg">
<path d="M70.5414 4.57539H64.7727L70.7719 11.0855V14.1848H58.4156V10.5559H64.4141L58.4156 4.0457V0.943359H70.5414V4.57539ZM55.9656 4.57539H50.1969L56.1961 11.0855V14.1848H43.8391V10.5559H49.8383L43.8391 4.0457V0.943359H55.9656V4.57539ZM41.5328 4.72383H35.3078V10.4043H41.5328V14.1848H30.8828V0.943359H41.5328V4.72383Z" fill="#131313"/>
<path d="M22.4 91.1762L16.0742 20.2285H85.5797L79.2484 91.1645L50.7844 99.0566L22.4 91.1762Z" fill="#1572B6"/>
<path d="M50.8281 93.0248L73.8273 86.6482L79.2383 26.0303H50.8281V93.0248Z" fill="#33A9DC"/>
<path d="M50.8281 51.7348H62.3422L63.1383 42.8246H50.8281V34.123H72.6477L72.4391 36.4574L70.3008 60.4356H50.8281V51.7348Z" fill="white"/>
<path d="M50.8797 74.3332L50.8414 74.3441L41.1508 71.7269L40.5305 64.7871H31.7969L33.0164 78.4496L50.8398 83.3973L50.8805 83.3855L50.8797 74.3332Z" fill="#EBEBEB"/>
<path d="M61.6027 60.0674L60.5543 71.7205L50.8496 74.34V83.3932L68.6879 78.4494L68.8191 76.9791L70.3332 60.0674H61.6027Z" fill="white"/>
<path d="M50.8582 34.123V42.8238H29.8402L29.6652 40.8684L29.2691 36.4574L29.0605 34.123H50.8582ZM50.8277 51.7356V60.4371H41.2598L41.0855 58.4816L40.6887 54.0699L40.4801 51.7356H50.8277Z" fill="#EBEBEB"/>
</svg>
