<svg width="101" height="100" viewBox="0 0 101 100" fill="none" xmlns="http://www.w3.org/2000/svg">
<path d="M7.07812 6.25H94.5781V93.75H7.07812V6.25Z" fill="#F5DE19"/>
<path d="M65.8559 74.6095C66.6014 76.1239 67.7597 77.3967 69.1972 78.2814C70.6348 79.166 72.293 79.6264 73.9809 79.6095C77.3871 79.6095 79.5652 77.9064 79.5652 75.547C79.5652 72.7345 77.3277 71.7282 73.5777 70.0876L71.5215 69.2064C65.584 66.6782 61.6465 63.5126 61.6465 56.8189C61.6465 50.6532 66.334 45.9564 73.6871 45.9564C76.0674 45.7845 78.4457 46.3172 80.5252 47.4881C82.6048 48.6591 84.2935 50.4163 85.3809 52.5407L78.9527 56.6501C78.534 55.5968 77.805 54.6955 76.8624 54.066C75.9198 53.4365 74.808 53.1083 73.6746 53.1251C73.1801 53.0756 72.6807 53.1297 72.2083 53.2838C71.7358 53.438 71.3007 53.6889 70.9305 54.0205C70.5604 54.3521 70.2634 54.7572 70.0584 55.21C69.8535 55.6627 69.7451 56.1532 69.7402 56.6501C69.7402 59.1158 71.2684 60.1158 74.7965 61.6501L76.8527 62.5314C83.8402 65.5283 87.7902 68.5814 87.7902 75.447C87.7902 82.8501 81.9746 86.9064 74.1652 86.9064C71.1224 87.1002 68.0885 86.4094 65.4297 84.9172C62.7708 83.425 60.6006 81.1953 59.1809 78.497L65.8559 74.6095ZM36.809 75.322C38.0996 77.6126 39.2746 79.5501 42.0996 79.5501C44.7996 79.5501 46.5059 78.4939 46.5059 74.3845V46.4251H54.7277V74.4939C54.7277 83.0064 49.7277 86.8814 42.4496 86.8814C39.877 87.022 37.322 86.3809 35.1205 85.0422C32.919 83.7036 31.1742 81.7302 30.1152 79.3814L36.809 75.322Z" fill="black"/>
</svg>
