<svg width="100" height="100" viewBox="0 0 100 100" fill="none" xmlns="http://www.w3.org/2000/svg">
<path fill-rule="evenodd" clip-rule="evenodd" d="M50 6.25C58.6529 6.25 67.1116 8.81589 74.3062 13.6232C81.5009 18.4305 87.1084 25.2633 90.4197 33.2576C93.7311 41.2519 94.5975 50.0485 92.9094 58.5352C91.2213 67.0219 87.0545 74.8174 80.9359 80.9359C74.8174 87.0545 67.0219 91.2213 58.5352 92.9094C50.0485 94.5975 41.2519 93.7311 33.2576 90.4197C25.2633 87.1084 18.4305 81.5009 13.6232 74.3062C8.81589 67.1116 6.25 58.6529 6.25 50C6.25 38.3968 10.8594 27.2688 19.0641 19.0641C27.2688 10.8594 38.3968 6.25 50 6.25Z" fill="#CC6699"/>
<path d="M77.4445 24.975C75.4632 17.2062 62.5788 14.6625 50.3851 18.9812C42.7486 21.5473 35.6931 25.5943 29.6226 30.8906C22.907 37.1719 21.8351 42.6406 22.2757 44.925C23.8382 52.9875 34.8788 58.2562 39.4195 62.1656V62.1875C38.082 62.8469 28.282 67.8125 25.982 72.875C23.5632 78.225 26.3663 82.0625 28.2257 82.5781C31.0173 83.2502 33.9493 83.0315 36.6103 81.9526C39.2713 80.8737 41.5278 78.9889 43.0632 76.5625C44.3321 74.5966 45.126 72.3623 45.382 70.0365C45.6381 67.7108 45.3492 65.3573 44.5382 63.1625C46.7253 62.6067 48.9988 62.4763 51.2351 62.7781C58.9101 63.675 60.4163 68.4656 60.1288 70.4719C59.9936 71.186 59.7062 71.8627 59.2861 72.4558C58.8661 73.049 58.3232 73.5447 57.6945 73.9094C57.157 74.2437 56.9913 74.3562 57.0382 74.6062C57.1038 74.9656 57.3507 74.9531 57.8101 74.875C58.9635 74.5117 59.9797 73.8076 60.725 72.8554C61.4703 71.9031 61.9096 70.7475 61.9851 69.5406C62.1695 64.8531 57.6663 59.5844 49.6913 59.7187C47.3751 59.6526 45.0638 59.9693 42.8507 60.6562C42.74 60.5297 42.6274 60.4047 42.5132 60.2812C37.582 55.0219 28.4695 51.3 28.8538 44.2281C28.9945 41.6562 29.8882 34.8875 46.3538 26.675C59.8538 19.9469 70.6601 21.8 72.5288 25.9031C75.1976 31.7656 66.7538 42.6562 52.7351 44.2281C51.1856 44.5427 49.5852 44.5043 48.0526 44.1159C46.52 43.7274 45.0946 42.9989 43.882 41.9844C43.1445 41.1719 43.0351 41.1375 42.7601 41.2875C42.3132 41.5344 42.5976 42.2531 42.7601 42.6781C43.2969 43.6455 44.0215 44.496 44.8913 45.1797C45.7612 45.8633 46.7588 46.3664 47.8257 46.6594C53.3375 47.857 59.0865 47.2884 64.257 45.0344C72.7601 41.7562 79.3913 32.6156 77.4445 24.975ZM41.307 64.5719C41.9276 66.7115 41.8961 68.9877 41.2163 71.1094C41.1434 71.3302 41.0632 71.5489 40.9757 71.7656C40.8882 71.9823 40.7934 72.1906 40.6913 72.3906C40.1654 73.4667 39.4842 74.4596 38.6695 75.3375C36.1288 78.1094 32.5757 79.1594 31.0538 78.275C29.4101 77.3219 30.232 73.4125 33.1788 70.2969C35.4432 68.0578 38.0538 66.1985 40.9101 64.7906L41.307 64.5719Z" fill="white"/>
</svg>
