<svg width="100" height="100" viewBox="0 0 100 100" fill="none" xmlns="http://www.w3.org/2000/svg">
<path d="M0 49.9996C0 64.5254 22.3859 76.302 50 76.302C77.6141 76.302 100 64.5254 100 49.9996C100 35.4738 77.6133 23.6973 50 23.6973C22.3859 23.6973 0 35.4738 0 49.9996Z" fill="url(#paint0_radial_512_140)"/>
<path d="M50 74.3488C76.5352 74.3488 98.0469 63.4465 98.0469 49.9996C98.0469 36.5512 76.5352 25.6504 50 25.6504C23.4648 25.6504 1.95312 36.5512 1.95312 49.9996C1.95312 63.4465 23.4648 74.3488 50 74.3488Z" fill="#777BB3"/>
<path d="M27.1657 53.0188C29.3477 53.0188 30.9758 52.6164 32.0063 51.8234C33.0266 51.0375 33.7305 49.6773 34.1 47.7805C34.4438 46.007 34.3125 44.7695 33.7094 44.1008C33.0938 43.418 31.7618 43.0719 29.7508 43.0719H26.2633L24.3313 53.0188H27.1657ZM15.7602 65.2711C15.6802 65.271 15.6012 65.2532 15.5289 65.2189C15.4566 65.1847 15.3927 65.1348 15.3419 65.073C15.2912 65.0112 15.2547 64.9389 15.2352 64.8613C15.2156 64.7837 15.2135 64.7027 15.229 64.6242L20.3516 38.2664C20.3758 38.1432 20.442 38.0322 20.5389 37.9523C20.6357 37.8723 20.7573 37.8285 20.8829 37.8281H31.925C35.3954 37.8281 37.9782 38.7703 39.6024 40.6289C41.2336 42.4961 41.7383 45.1086 41.1001 48.3906C40.8399 49.7273 40.393 50.9688 39.7719 52.0813C39.1254 53.2255 38.3004 54.2594 37.3282 55.1438C36.1321 56.2625 34.7782 57.075 33.3071 57.5523C31.8602 58.0242 30.0008 58.2633 27.7836 58.2633H23.3118L22.0352 64.832C22.0111 64.9557 21.9448 65.0671 21.8476 65.1472C21.7504 65.2273 21.6283 65.2711 21.5024 65.2711H15.7602Z" fill="black"/>
<path d="M26.711 43.6141H29.7509C32.1782 43.6141 33.0212 44.1469 33.3079 44.4648C33.7821 44.9914 33.8727 46.1031 33.5665 47.6773C33.2235 49.4406 32.5876 50.6914 31.6759 51.393C30.7431 52.1117 29.2243 52.4758 27.1657 52.4758H24.9891L26.711 43.6141ZM31.9251 37.2859H20.8837C20.6319 37.286 20.3879 37.3735 20.1935 37.5335C19.9992 37.6936 19.8664 37.9162 19.8181 38.1633L14.6954 64.5219C14.6651 64.6789 14.6699 64.8406 14.7094 64.9956C14.7489 65.1505 14.8222 65.2948 14.9239 65.4182C15.0256 65.5416 15.1533 65.6409 15.2979 65.7092C15.4425 65.7775 15.6003 65.8131 15.7602 65.8133H21.5024C21.7542 65.813 21.9981 65.7253 22.1923 65.5652C22.3865 65.405 22.5191 65.1823 22.5673 64.9352L23.7587 58.8055H27.7829C30.0579 58.8055 31.9735 58.557 33.4759 58.068C35.0204 57.5664 36.4415 56.7156 37.6993 55.5391C38.7121 54.6166 39.5715 53.5388 40.2454 52.3461C40.8946 51.1844 41.3618 49.8875 41.6321 48.4938C42.304 45.0383 41.7579 42.2719 40.0102 40.2719C38.279 38.2898 35.5587 37.2852 31.9251 37.2852V37.2859ZM23.6727 53.5602H27.1657C29.4806 53.5602 31.2048 53.125 32.3376 52.2516C33.4712 51.3797 34.2345 49.9234 34.6329 47.8836C35.0118 45.9242 34.8391 44.5422 34.1134 43.7367C33.386 42.932 31.9329 42.5289 29.7509 42.5289H25.8165L23.6727 53.5602ZM31.9259 38.3688C35.2477 38.3688 37.6704 39.2414 39.1938 40.9844C40.7173 42.7281 41.1751 45.1617 40.5688 48.2859C40.3173 49.5734 39.8946 50.75 39.2993 51.8156C38.7024 52.8828 37.9243 53.8578 36.9626 54.743C35.8157 55.8156 34.5431 56.5805 33.1407 57.0359C31.7391 57.4922 29.9532 57.7195 27.7837 57.7195H22.8649L21.5032 64.7273H15.761L20.8845 38.3688H31.9259Z" fill="white"/>
<path d="M54.2656 58.2633C54.1855 58.2634 54.1064 58.2457 54.034 58.2116C53.9616 58.1775 53.8976 58.1278 53.8466 58.0661C53.7957 58.0043 53.7591 57.932 53.7394 57.8544C53.7197 57.7768 53.7174 57.6958 53.7328 57.6172L55.9984 45.9547C56.2148 44.8453 56.1617 44.05 55.85 43.7125C55.6586 43.507 55.0851 43.1625 53.389 43.1625H49.2828L46.4343 57.825C46.4099 57.9485 46.3433 58.0596 46.246 58.1394C46.1486 58.2192 46.0266 58.2627 45.9007 58.2625H40.2054C40.1254 58.2625 40.0464 58.2449 39.974 58.2109C39.9016 58.1768 39.8376 58.1272 39.7866 58.0655C39.7356 58.0039 39.6989 57.9317 39.6791 57.8542C39.6592 57.7767 39.6568 57.6958 39.6718 57.6172L44.7953 31.2586C44.8195 31.1351 44.8859 31.0239 44.9831 30.944C45.0803 30.864 45.2023 30.8203 45.3281 30.8203H51.0234C51.1034 30.8203 51.1824 30.8379 51.2548 30.8719C51.3272 30.906 51.3912 30.9556 51.4422 31.0173C51.4932 31.0789 51.5299 31.1511 51.5498 31.2286C51.5696 31.3061 51.5721 31.3871 51.557 31.4656L50.3211 37.8281H54.7375C58.1023 37.8281 60.3836 38.4203 61.7125 39.6414C63.0664 40.8859 63.4898 42.8758 62.9687 45.5578L60.5851 57.825C60.5607 57.9483 60.4942 58.0594 60.3971 58.1392C60.2999 58.219 60.178 58.2625 60.0523 58.2625L54.2656 58.2633Z" fill="black"/>
<path d="M51.0233 30.2773H45.3272C45.0753 30.2774 44.8312 30.365 44.6368 30.5252C44.4424 30.6854 44.3098 30.9082 44.2616 31.1555L39.1389 57.5133C39.1085 57.6703 39.1132 57.8322 39.1527 57.9872C39.1921 58.1423 39.2653 58.2867 39.367 58.4101C39.4688 58.5336 39.5965 58.633 39.7412 58.7014C39.8858 58.7697 40.0438 58.8053 40.2038 58.8055H45.8998C46.1517 58.8054 46.3958 58.7178 46.5902 58.5576C46.7846 58.3974 46.9173 58.1746 46.9655 57.9273L49.7288 43.7047H53.3866C55.0803 43.7047 55.4366 44.0664 55.4498 44.0828C55.553 44.1922 55.6881 44.7039 55.4647 45.8516L53.1991 57.5133C53.1687 57.6704 53.1734 57.8323 53.2129 57.9874C53.2523 58.1425 53.3256 58.287 53.4274 58.4104C53.5293 58.5339 53.6571 58.6333 53.8019 58.7016C53.9466 58.7699 54.1046 58.8054 54.2647 58.8055H60.0522C60.304 58.8052 60.5478 58.7175 60.7421 58.5573C60.9363 58.3972 61.0689 58.1745 61.117 57.9273L63.5006 45.6617C64.0592 42.782 63.5811 40.6227 62.0787 39.2422C60.6444 37.925 58.2428 37.2852 54.7366 37.2852H50.9787L52.0889 31.5703C52.1194 31.4131 52.1148 31.2511 52.0754 31.0959C52.036 30.9407 51.9627 30.7962 51.8609 30.6726C51.7591 30.5491 51.6312 30.4495 51.4863 30.3812C51.3415 30.3129 51.1834 30.2774 51.0233 30.2773ZM51.0233 31.3633L49.6616 38.3695H54.7366C57.9295 38.3695 60.1327 38.9273 61.3436 40.0414C62.5569 41.1555 62.9194 42.9594 62.4358 45.4555L60.0514 57.7203H54.2647L56.5311 46.0578C56.7889 44.7312 56.6936 43.8266 56.2459 43.3437C55.7983 42.8617 54.8452 42.6203 53.3881 42.6203H48.8342L45.8998 57.7195H40.203L45.3264 31.3609H51.0233V31.3633Z" fill="white"/>
<path d="M71.9813 53.0188C74.1633 53.0188 75.7922 52.6164 76.8235 51.8234C77.8422 51.0375 78.5469 49.6773 78.9165 47.7805C79.2602 46.007 79.1297 44.7695 78.5258 44.1008C77.9102 43.418 76.5782 43.0719 74.5672 43.0719H71.0805L69.1469 53.0188H71.9813ZM60.5782 65.2711C60.498 65.2712 60.4188 65.2536 60.3463 65.2194C60.2738 65.1853 60.2098 65.1355 60.1588 65.0736C60.1079 65.0118 60.0713 64.9394 60.0517 64.8617C60.032 64.7839 60.0299 64.7029 60.0454 64.6242L65.168 38.2664C65.1923 38.1429 65.2587 38.0317 65.3559 37.9518C65.4531 37.8718 65.575 37.8281 65.7008 37.8281H76.7422C80.2125 37.8281 82.7954 38.7703 84.4188 40.6289C86.0508 42.4961 86.5547 45.1086 85.9164 48.3906C85.6725 49.6834 85.2245 50.9292 84.5891 52.0813C83.9423 53.2254 83.1174 54.2592 82.1454 55.1438C80.95 56.2625 79.5946 57.075 78.1243 57.5523C76.6774 58.0242 74.818 58.2633 72.6 58.2633H68.129L66.8532 64.832C66.829 64.9558 66.7626 65.0673 66.6652 65.1474C66.5679 65.2275 66.4457 65.2712 66.3196 65.2711H60.5782Z" fill="black"/>
<path d="M71.5274 43.6141H74.5673C76.9946 43.6141 77.8376 44.1469 78.1235 44.4648C78.6001 44.9914 78.6891 46.1031 78.3837 47.6773C78.0399 49.4406 77.404 50.6914 76.4923 51.393C75.5587 52.1117 74.0399 52.4758 71.9821 52.4758H69.8056L71.5274 43.6141ZM76.7415 37.2859H65.7001C65.4484 37.2861 65.2046 37.3737 65.0104 37.5338C64.8162 37.6938 64.6836 37.9163 64.6352 38.1633L59.5118 64.5219C59.4815 64.6789 59.4863 64.8408 59.5259 64.9958C59.5654 65.1508 59.6387 65.2951 59.7405 65.4185C59.8423 65.5419 59.9702 65.6412 60.1148 65.7095C60.2595 65.7777 60.4175 65.8132 60.5774 65.8133H66.3196C66.5714 65.813 66.8152 65.7253 67.0095 65.5652C67.2037 65.405 67.3363 65.1823 67.3845 64.9352L68.5759 58.8055H72.5993C74.8735 58.8055 76.7899 58.557 78.2915 58.068C79.8368 57.5664 81.2579 56.7156 82.5165 55.5383C83.5289 54.616 84.3881 53.5385 85.0618 52.3461C85.7118 51.1844 86.1774 49.8875 86.4485 48.4938C87.1204 45.0383 86.5751 42.2719 84.8266 40.2719C83.0954 38.2898 80.3759 37.2852 76.7407 37.2852L76.7415 37.2859ZM68.4891 53.5602H71.9813C74.297 53.5602 76.0204 53.125 77.1548 52.2516C78.2876 51.3797 79.0516 49.9234 79.4485 47.8836C79.829 45.9242 79.6563 44.5422 78.929 43.7367C78.2024 42.932 76.7485 42.5289 74.5673 42.5289H70.6337L68.4891 53.5602ZM76.7415 38.3688C80.0626 38.3688 82.4868 39.2414 84.0095 40.9844C85.5329 42.7281 85.9915 45.1617 85.3837 48.2859C85.1337 49.5734 84.7102 50.75 84.1149 51.8156C83.5188 52.8828 82.7399 53.8578 81.7774 54.743C80.6313 55.8156 79.3579 56.5805 77.9556 57.0359C76.5548 57.4922 74.7696 57.7195 72.5993 57.7195H67.6813L66.3181 64.7273H60.5759L65.6993 38.3688H76.7415Z" fill="white"/>
<defs>
<radialGradient id="paint0_radial_512_140" cx="0" cy="0" r="1" gradientUnits="userSpaceOnUse" gradientTransform="translate(30.0203 32.9441) scale(65.6573 65.6573)">
<stop stop-color="#AEB2D5"/>
<stop offset="0.3" stop-color="#AEB2D5"/>
<stop offset="0.75" stop-color="#484C89"/>
<stop offset="1" stop-color="#484C89"/>
</radialGradient>
</defs>
</svg>
