<svg width="179" height="100" viewBox="0 0 179 100" fill="none" xmlns="http://www.w3.org/2000/svg">
<path d="M112.2 35.2512C114.427 35.2512 116.231 33.4466 116.231 31.2207C116.231 28.9948 114.427 27.1902 112.2 27.1902C109.975 27.1902 108.17 28.9948 108.17 31.2207C108.17 33.4466 109.975 35.2512 112.2 35.2512Z" fill="#00D8FF"/>
<path d="M112.206 23.0264C117.618 23.0264 122.645 23.8028 126.435 25.1079C131.002 26.6801 133.81 29.0632 133.81 31.2213C133.81 33.4701 130.834 36.0019 125.93 37.6267C122.222 38.8551 117.343 39.4964 112.206 39.4964C106.94 39.4964 101.952 38.8945 98.2026 37.6131C93.4587 35.9917 90.6016 33.4273 90.6016 31.2213C90.6016 29.0807 93.2826 26.7159 97.7854 25.1462C101.59 23.8197 106.741 23.0264 112.205 23.0264H112.206Z" stroke="#00D8FF" stroke-width="3"/>
<path d="M105.072 27.1473C107.775 22.4596 110.959 18.4926 113.983 15.8612C117.626 12.6904 121.094 11.4486 122.963 12.5264C124.911 13.6498 125.618 17.4928 124.575 22.5529C123.788 26.3784 121.905 30.9252 119.339 35.3753C116.708 39.9377 113.695 43.9573 110.712 46.5645C106.938 49.8639 103.289 51.058 101.378 49.956C99.5234 48.8874 98.8143 45.383 99.704 40.6981C100.456 36.7396 102.342 31.881 105.071 27.1473H105.072Z" stroke="#00D8FF" stroke-width="3"/>
<path d="M105.079 35.3869C102.368 30.7044 100.522 25.964 99.7513 22.0298C98.8239 17.2896 99.4796 13.6655 101.347 12.5844C103.294 11.4576 106.976 12.7646 110.839 16.1949C113.76 18.7883 116.759 22.6894 119.333 27.1351C121.972 31.6932 123.949 36.3111 124.719 40.1973C125.692 45.1152 124.904 48.8729 122.995 49.9779C121.143 51.0504 117.753 49.9151 114.138 46.8045C111.084 44.1765 107.817 40.116 105.079 35.3869Z" stroke="#00D8FF" stroke-width="3"/>
<path d="M159.396 10.4078C160.344 9.86532 161.579 9.86281 162.526 10.4078C167.29 13.1001 172.056 15.7879 176.82 18.4817C177.716 18.9864 178.315 19.9835 178.306 21.0159V37.2127C178.313 38.2879 177.654 39.3089 176.709 39.802C171.96 42.4795 167.214 45.1599 162.466 47.8374C161.498 48.3904 160.239 48.3479 159.302 47.7493C157.878 46.9241 156.452 46.1027 155.028 45.2783C154.737 45.1048 154.409 44.9668 154.204 44.6847C154.386 44.44 154.71 44.4095 154.974 44.3025C155.568 44.1135 156.114 43.8102 156.66 43.5159C156.798 43.4214 156.967 43.4577 157.099 43.5421C158.316 44.2401 159.523 44.9586 160.745 45.6498C161.005 45.8003 161.269 45.6005 161.492 45.4764C166.152 42.8425 170.817 40.2189 175.477 37.5843C175.649 37.5012 175.745 37.3179 175.731 37.1289C175.734 31.7858 175.731 26.442 175.732 21.0987C175.752 20.8844 175.628 20.6871 175.434 20.5992C170.702 17.9342 165.972 15.2652 161.24 12.5996C161.158 12.5432 161.061 12.5129 160.962 12.5127C160.862 12.5126 160.765 12.5425 160.683 12.5986C155.951 15.2652 151.222 17.9369 146.491 20.6015C146.298 20.6896 146.168 20.8837 146.191 21.0987C146.192 26.442 146.191 31.7858 146.191 37.1296C146.183 37.222 146.203 37.3146 146.249 37.395C146.295 37.4754 146.365 37.5398 146.448 37.5794C147.711 38.2954 148.975 39.0063 150.238 39.7199C150.95 40.1029 151.824 40.3307 152.608 40.0372C153.3 39.7889 153.785 39.0826 153.772 38.348C153.779 33.0362 153.769 27.7236 153.777 22.4123C153.76 22.1766 153.984 21.9818 154.213 22.0041C154.82 21.9999 155.427 21.9958 156.034 22.0057C156.287 21.9999 156.461 22.2539 156.43 22.4913C156.427 27.8369 156.436 33.1824 156.426 38.5278C156.427 39.9526 155.842 41.5028 154.524 42.1998C152.901 43.0406 150.894 42.8624 149.291 42.0561C147.902 41.363 146.577 40.5452 145.214 39.8028C144.266 39.3124 143.611 38.2873 143.617 37.2129V21.0159C143.607 19.9621 144.231 18.9469 145.154 18.4495C149.902 15.7701 154.649 13.0885 159.396 10.4078Z" fill="#81CD39"/>
<path d="M163.541 21.6268C165.612 21.4934 167.829 21.5478 169.692 22.568C171.135 23.3497 171.935 24.9905 171.96 26.5933C171.92 26.8093 171.694 26.9286 171.488 26.9138C170.887 26.913 170.286 26.9221 169.685 26.9097C169.43 26.9196 169.282 26.6846 169.25 26.4594C169.077 25.6923 168.659 24.9329 167.937 24.5628C166.829 24.0082 165.545 24.0361 164.336 24.0477C163.454 24.0943 162.506 24.1709 161.758 24.6895C161.185 25.0824 161.01 25.8756 161.215 26.5145C161.408 26.9731 161.937 27.1211 162.371 27.2576C164.866 27.9103 167.511 27.8452 169.959 28.7041C170.972 29.0543 171.964 29.7351 172.31 30.7962C172.764 32.2185 172.565 33.9182 171.553 35.0599C170.733 35.9994 169.538 36.5109 168.346 36.7886C166.76 37.1422 165.115 37.1513 163.504 36.9942C161.99 36.8215 160.414 36.4238 159.245 35.3921C158.246 34.5241 157.758 33.1717 157.806 31.8666C157.818 31.6461 158.037 31.4923 158.248 31.5105C158.853 31.5056 159.458 31.5039 160.063 31.5114C160.305 31.4941 160.484 31.703 160.497 31.9308C160.608 32.6614 160.883 33.4284 161.52 33.8614C162.75 34.6548 164.293 34.6005 165.701 34.6226C166.867 34.571 168.177 34.5554 169.128 33.7843C169.631 33.3445 169.779 32.6087 169.644 31.9759C169.497 31.4415 168.938 31.1925 168.458 31.0296C165.994 30.2505 163.32 30.5332 160.88 29.6519C159.89 29.3019 158.932 28.6401 158.552 27.6226C158.021 26.1824 158.264 24.401 159.382 23.298C160.472 22.2005 162.045 21.7779 163.541 21.6268Z" fill="#81CD39"/>
<path d="M70.7125 12.1453H50.4047C45.4566 12.1453 41.4453 16.1565 41.4453 21.1046V41.4125C41.4453 46.3606 45.4566 50.3718 50.4047 50.3718H70.7125C75.6607 50.3718 79.6719 46.3606 79.6719 41.4125V21.1046C79.6719 16.1565 75.6607 12.1453 70.7125 12.1453Z" fill="#242938"/>
<path d="M75.4915 39.462C75.0568 39.6266 74.5768 39.6263 74.1423 39.4611C73.7079 39.2959 73.349 38.9772 73.1335 38.5653C71.7802 36.5395 70.2858 34.605 68.8494 32.629L68.2266 31.7988C66.5163 34.0903 64.8059 36.2904 63.2451 38.5737C63.0418 38.9673 62.7023 39.2737 62.2899 39.4356C61.8775 39.5975 61.4203 39.604 61.0034 39.4538L67.4213 30.844L61.4517 23.0643C61.8814 22.9091 62.3515 22.907 62.7826 23.0582C63.2138 23.2095 63.5795 23.5049 63.818 23.8945C65.2045 25.9205 66.7406 27.855 68.2681 29.9058C69.8042 27.8716 71.3236 25.9288 72.7433 23.9195C72.9478 23.5322 73.2874 23.2336 73.6977 23.0805C74.108 22.9274 74.5602 22.9305 74.9684 23.0892L72.6519 26.1612C71.6142 27.5311 70.5929 28.9094 69.5136 30.2461C69.4266 30.324 69.357 30.4193 69.3093 30.5259C69.2617 30.6325 69.237 30.7479 69.237 30.8647C69.237 30.9814 69.2617 31.0969 69.3093 31.2035C69.357 31.3101 69.4266 31.4054 69.5136 31.4833C71.498 34.1152 73.4656 36.7554 75.4915 39.462ZM45.627 30.736C45.8014 29.9058 45.9092 29.0008 46.15 28.154C47.5864 23.0479 53.4397 20.9223 57.4664 24.0857C59.8244 25.9373 60.4139 28.5609 60.2977 31.5166H47.0136C46.7976 36.797 50.6085 39.9852 55.4821 38.3579C56.2727 38.0751 56.9804 37.5999 57.5413 36.9751C58.1023 36.3504 58.4988 35.5958 58.6952 34.7794C58.9526 33.9492 59.3678 33.8081 60.1565 34.0488C60.0266 35.0595 59.6693 36.0277 59.1113 36.8805C58.5534 37.7333 57.8093 38.4484 56.9352 38.9722C55.4909 39.7621 53.8338 40.075 52.2009 39.8663C50.568 39.6575 49.0429 38.9377 47.8438 37.8099C46.6575 36.476 45.9402 34.7907 45.8014 33.011C45.8014 32.7288 45.6934 32.4464 45.6353 32.1807C45.6298 31.6992 45.627 31.2176 45.627 30.736ZM47.0301 30.379H59.044C58.9692 26.5516 56.5532 23.8366 53.3318 23.8118C49.7451 23.7619 47.1796 26.4187 47.0218 30.3624L47.0301 30.379Z" fill="white"/>
<path fill-rule="evenodd" clip-rule="evenodd" d="M17.5033 24.0833C18.0082 25.5429 18.3712 27.0331 18.4909 28.5771C18.6391 30.4932 18.5716 32.3961 18.1675 34.2805L18.1156 34.4311C17.9889 34.4315 17.8596 34.4155 17.7358 34.4348C16.6893 34.5994 15.644 34.7698 14.5983 34.9393C13.5172 35.1147 12.4353 35.283 11.3563 35.4698C10.974 35.5356 10.5007 35.457 10.3464 35.9854L10.2723 36.0106L10.3246 32.8508L10.2715 25.2269L10.7752 25.1405C11.5987 25.0059 12.4221 24.8689 13.2468 24.7376C14.2304 24.5816 15.2148 24.4293 16.1991 24.2771C16.6337 24.2104 17.0687 24.1483 17.5033 24.0833Z" fill="#439934"/>
<path fill-rule="evenodd" clip-rule="evenodd" d="M9.23004 45.2222C8.69875 44.7654 8.14895 44.3288 7.6399 43.8481C4.89995 41.2638 2.89539 38.2213 1.90814 34.5534C1.63612 33.5443 1.45505 32.5184 1.39661 31.4756C1.35546 30.7455 1.29661 30.0093 1.34846 29.283C1.4855 27.3517 1.76493 25.4389 2.33119 23.5784L2.36247 23.5352C2.41761 23.6084 2.49663 23.6734 2.52461 23.7561C3.0777 25.3841 3.62627 27.0138 4.17236 28.6447C5.88802 33.7686 7.60162 38.8938 9.32016 44.0169C9.35391 44.1169 9.44074 44.1988 9.50329 44.2889L9.23004 45.2222Z" fill="#45A538"/>
<path fill-rule="evenodd" clip-rule="evenodd" d="M17.4994 24.0832C17.0645 24.1478 16.6295 24.2104 16.1953 24.277C15.2109 24.4293 14.2266 24.5816 13.243 24.7375C12.4187 24.8684 11.5953 25.0055 10.7714 25.1404L10.2677 25.2269L10.2636 24.8985C10.2467 24.6285 10.2187 24.3585 10.215 24.0886L10.1586 18.9223C10.1454 17.8445 10.1257 16.7667 10.1039 15.6893C10.0928 15.0197 10.0734 14.3502 10.0459 13.681C10.0294 13.3218 9.97137 12.9642 9.94832 12.6049C9.93474 12.3983 9.95285 12.1901 9.95738 11.9827C10.2142 12.4802 10.4656 12.9814 10.7294 13.4753C11.1463 14.2559 11.8109 14.8313 12.4097 15.4588C14.7743 17.9408 16.4529 20.8247 17.4994 24.0832Z" fill="#46A037"/>
<path fill-rule="evenodd" clip-rule="evenodd" d="M10.2732 36.0108L10.3473 35.9857C10.5016 35.4573 10.9749 35.5359 11.3572 35.4701C12.4362 35.2833 13.5181 35.1149 14.5992 34.9396C15.6449 34.7705 16.6902 34.6001 17.7367 34.4351C17.8605 34.4158 17.9898 34.4318 18.1165 34.4314C17.921 35.1293 17.7671 35.8425 17.519 36.5211C17.2371 37.2907 16.8963 38.0421 16.5346 38.7788C15.9927 39.8773 15.3223 40.9076 14.5375 41.8479C13.9342 42.5731 13.2617 43.2443 12.5881 43.9064C12.2152 44.2723 11.7765 44.5706 11.3675 44.8998L11.2613 44.8274L10.8798 44.5015L10.4852 43.6356C10.2155 42.6259 10.0683 41.5874 10.0469 40.5426L10.0543 40.3664L10.1082 39.6035C10.1259 39.343 10.1498 39.0829 10.1609 38.8224C10.2004 37.8858 10.2358 36.9483 10.2732 36.0108Z" fill="#409433"/>
<path fill-rule="evenodd" clip-rule="evenodd" d="M10.2713 36.0105C10.2342 36.948 10.1988 37.8858 10.1589 38.8233C10.1478 39.0842 10.1243 39.3443 10.1062 39.6044L9.8659 39.6953C9.33174 38.1229 8.79717 36.5669 8.27453 35.0072C7.40991 32.4265 6.55599 29.8421 5.69261 27.2606C4.99541 25.1772 4.29334 23.0954 3.58641 21.0153C3.55307 20.9182 3.45842 20.8416 3.39258 20.7556L4.93169 17.9255C4.98478 18.0173 5.05433 18.1033 5.08766 18.2021C5.7996 20.3091 6.51031 22.4165 7.21485 24.526C8.13173 27.2709 9.04244 30.017 9.9585 32.7623C9.99512 32.8718 10.0552 32.973 10.1128 33.0961L10.3235 32.8508L10.2713 36.0105Z" fill="#4FAA41"/>
<path fill-rule="evenodd" clip-rule="evenodd" d="M3.38624 20.7556C3.4525 20.8416 3.54715 20.9182 3.58007 21.0153C4.28707 23.0954 4.98913 25.1772 5.68627 27.2606C6.54965 29.8421 7.40357 32.4265 8.26819 35.0072C8.79083 36.5669 9.3254 38.1225 9.85957 39.6953L10.0999 39.6044L10.046 40.3674L9.99702 40.5431C9.91348 41.3781 9.84311 42.2147 9.74105 43.0481C9.69002 43.4658 9.58096 43.8756 9.49825 44.2888C9.43611 44.1987 9.34886 44.1168 9.31512 44.0168C7.59617 38.8937 5.88298 33.7685 4.16732 28.6446C3.62146 27.0139 3.07221 25.3844 2.51956 23.7561C2.49158 23.6733 2.41257 23.6083 2.35742 23.5351L3.38624 20.7556Z" fill="#4AA73C"/>
<path fill-rule="evenodd" clip-rule="evenodd" d="M10.3235 32.8511L10.1128 33.0964C10.0552 32.9734 9.99507 32.8721 9.95845 32.7627C9.04239 30.0174 8.13168 27.2712 7.21479 24.5263C6.50943 22.4171 5.80037 20.3091 5.08761 18.2024C5.05427 18.1036 4.98473 18.0176 4.93164 17.9259L6.83496 15.4221C6.89504 15.502 6.98063 15.5731 7.0115 15.6633C7.5399 17.2106 8.06336 18.7592 8.58436 20.309C9.07078 21.7568 9.5498 23.2062 10.042 24.6514C10.0749 24.7482 10.1897 24.8165 10.2663 24.8988L10.2704 25.2272L10.3235 32.8511Z" fill="#57AE47"/>
<path fill-rule="evenodd" clip-rule="evenodd" d="M10.2653 24.8984C10.1883 24.8165 10.0739 24.7482 10.041 24.6511C9.54924 23.2058 9.06981 21.7564 8.58339 20.3087C8.0628 18.7588 7.53851 17.2103 7.01053 15.6629C6.97966 15.5728 6.89407 15.5016 6.83398 15.4218C7.45292 14.8156 8.05252 14.1876 8.69656 13.6094C9.26899 13.0958 9.72908 12.5452 9.75048 11.7333L9.79575 11.5715L9.95871 11.9822C9.95459 12.1896 9.93608 12.3979 9.94966 12.6045C9.97312 12.9637 10.0311 13.3213 10.0472 13.6806C10.0772 14.3493 10.0916 15.0193 10.1052 15.6889C10.127 16.7662 10.1468 17.844 10.1599 18.9218L10.2163 24.0881C10.2204 24.3585 10.2488 24.6285 10.2653 24.8984Z" fill="#60B24F"/>
<path fill-rule="evenodd" clip-rule="evenodd" d="M9.50609 44.2886C9.58881 43.8754 9.69786 43.4655 9.74889 43.0478C9.85095 42.2149 9.92132 41.3778 10.0049 40.5428L10.0258 40.5396L10.0464 40.5433C10.0679 41.5881 10.215 42.6266 10.4847 43.6363C10.4291 43.7095 10.3514 43.7742 10.3217 43.8565C10.0933 44.5009 9.8777 45.1507 9.64806 45.7948C9.61679 45.8828 9.52872 45.9516 9.4674 46.0285L9.23242 45.2219L9.50609 44.2886Z" fill="#A9AA88"/>
<path fill-rule="evenodd" clip-rule="evenodd" d="M9.46875 46.0289C9.53007 45.9516 9.61813 45.8832 9.64941 45.7952C9.87904 45.1511 10.0947 44.5013 10.3231 43.8569C10.3523 43.7746 10.4305 43.71 10.486 43.6367L10.8807 44.5026C10.8029 44.6129 10.6951 44.7129 10.6519 44.8359L9.89633 47.0549C9.86505 47.1442 9.75929 47.2067 9.68768 47.282L9.46875 46.0289Z" fill="#B6B598"/>
<path fill-rule="evenodd" clip-rule="evenodd" d="M9.68555 47.2817C9.75674 47.2063 9.86292 47.1438 9.89419 47.0545L10.6498 44.8355C10.6926 44.7125 10.8008 44.6125 10.8786 44.5022L11.2605 44.8277C11.0761 45.01 10.9736 45.2207 11.0354 45.487L10.9193 45.8668C10.8666 45.9318 10.7901 45.9886 10.7642 46.0631C10.5004 46.8187 10.2489 47.5784 9.98308 48.3335C9.94933 48.429 9.85592 48.5043 9.79049 48.5891L9.68555 47.2817Z" fill="#C2C1A7"/>
<path fill-rule="evenodd" clip-rule="evenodd" d="M9.78818 48.5882C9.85403 48.5034 9.94744 48.4281 9.98077 48.3327C10.2466 47.5775 10.4985 46.8178 10.7619 46.0623C10.7878 45.9878 10.8643 45.9314 10.917 45.866L10.7569 47.6092C10.7141 47.6586 10.6524 47.7018 10.6318 47.759L10.0993 49.2849C10.0618 49.3891 9.99024 49.4821 9.93427 49.5796C9.88448 49.5146 9.79559 49.4516 9.79147 49.3841C9.77584 49.1199 9.78695 48.8537 9.78818 48.5882Z" fill="#CECDB7"/>
<path fill-rule="evenodd" clip-rule="evenodd" d="M9.9375 49.5807C9.99347 49.4832 10.0651 49.3902 10.1025 49.2861L10.635 47.7602C10.6556 47.7025 10.7178 47.6597 10.7601 47.6104L10.7643 48.7544L10.3811 49.7367L9.9375 49.5807Z" fill="#DBDAC7"/>
<path fill-rule="evenodd" clip-rule="evenodd" d="M10.375 49.736L10.7581 48.7537L10.8371 49.9158L10.375 49.736Z" fill="#EBE9DC"/>
<path fill-rule="evenodd" clip-rule="evenodd" d="M11.0354 45.4867C10.9741 45.2208 11.0762 45.0101 11.2605 44.8274L11.3667 44.8998L11.0354 45.4867Z" fill="#CECDB7"/>
<path fill-rule="evenodd" clip-rule="evenodd" d="M10.0437 40.5445L10.023 40.5407L10.002 40.544L10.0512 40.3674L10.0437 40.5445Z" fill="#4FAA41"/>
<path d="M0 63.9082H3.78688L12.6911 85.5664H12.9982L21.9025 63.9082H25.6893V90H22.7212V70.1763H22.4654L14.2775 90H11.4118L3.22396 70.1763H2.96809V90H0V63.9082Z" fill="black"/>
<path d="M56.2394 90V63.9082H72.0522V66.711H59.4122V75.5272H71.2334V78.33H59.4122V87.1971H72.2569V90H56.2394Z" fill="black"/>
<path d="M103.887 90V63.9082H112.74C114.787 63.9082 116.467 64.2564 117.781 64.9529C119.094 65.6409 120.067 66.5879 120.698 67.7939C121.329 69 121.644 70.3717 121.644 71.909C121.644 73.4463 121.329 74.8095 120.698 75.9986C120.067 77.1877 119.099 78.1219 117.794 78.8014C116.489 79.4724 114.821 79.8079 112.791 79.8079H105.627V76.9541H112.689C114.088 76.9541 115.214 76.7502 116.067 76.3426C116.928 75.9349 117.551 75.3573 117.934 74.6099C118.327 73.854 118.523 72.9537 118.523 71.909C118.523 70.8643 118.327 69.9513 117.934 69.1699C117.542 68.3885 116.915 67.7854 116.054 67.3608C115.192 66.9276 114.054 66.711 112.638 66.711H107.06V90H103.887ZM116.22 78.2791L122.668 90H118.983L112.638 78.2791H116.22Z" fill="black"/>
<path d="M173.824 63.9082V90H170.754L156.476 69.5139H156.22V90H153.048V63.9082H156.118L170.447 84.4453H170.703V63.9082H173.824Z" fill="black"/>
</svg>
