<svg width="206" height="100" viewBox="0 0 206 100" fill="none" xmlns="http://www.w3.org/2000/svg">
<path d="M183.99 10.4728C185.089 9.84384 186.52 9.84094 187.618 10.4728C193.142 13.5943 198.668 16.7106 204.191 19.8338C205.23 20.419 205.925 21.5751 205.914 22.772V41.551C205.922 42.7976 205.158 43.9813 204.062 44.5531C198.557 47.6574 193.054 50.7652 187.549 53.8694C186.427 54.5107 184.967 54.4613 183.88 53.7673C182.23 52.8105 180.576 51.8582 178.926 50.9024C178.588 50.7013 178.208 50.5413 177.97 50.2142C178.18 49.9304 178.557 49.8951 178.863 49.7711C179.552 49.5519 180.185 49.2002 180.817 48.859C180.978 48.7495 181.173 48.7915 181.326 48.8894C182.738 49.6987 184.137 50.5317 185.553 51.3331C185.855 51.5077 186.161 51.276 186.419 51.1321C191.822 48.0783 197.232 45.0364 202.634 41.9818C202.834 41.8855 202.945 41.673 202.928 41.4538C202.932 35.2589 202.929 29.0632 202.93 22.8681C202.953 22.6197 202.809 22.3909 202.584 22.289C197.098 19.199 191.614 16.1046 186.128 13.014C186.033 12.9486 185.92 12.9135 185.805 12.9133C185.69 12.9131 185.577 12.9478 185.482 13.0129C179.996 16.1046 174.513 19.2021 169.027 22.2916C168.803 22.3938 168.653 22.6188 168.679 22.8681C168.68 29.0632 168.679 35.2589 168.679 41.4547C168.67 41.5617 168.693 41.6691 168.747 41.7623C168.8 41.8556 168.881 41.9302 168.978 41.9762C170.442 42.8063 171.907 43.6305 173.372 44.4579C174.198 44.9019 175.211 45.166 176.12 44.8257C176.922 44.5379 177.485 43.719 177.469 42.8673C177.477 36.7086 177.466 30.5491 177.475 24.3911C177.455 24.1178 177.714 23.8919 177.98 23.9178C178.684 23.9129 179.388 23.9082 180.091 23.9196C180.385 23.9129 180.587 24.2074 180.551 24.4827C180.548 30.6804 180.558 36.8782 180.546 43.0757C180.548 44.7276 179.869 46.525 178.341 47.3331C176.459 48.308 174.133 48.1013 172.273 47.1665C170.664 46.363 169.127 45.4147 167.546 44.554C166.447 43.9854 165.688 42.7969 165.695 41.5512V22.772C165.684 21.5503 166.406 20.3732 167.477 19.7965C172.982 16.69 178.486 13.5809 183.99 10.4728Z" fill="#81CD39"/>
<path d="M188.794 23.4804C191.195 23.3258 193.765 23.3888 195.925 24.5717C197.598 25.478 198.526 27.3804 198.555 29.2387C198.508 29.4892 198.246 29.6275 198.007 29.6103C197.311 29.6094 196.614 29.6199 195.917 29.6056C195.622 29.617 195.45 29.3446 195.413 29.0834C195.213 28.1941 194.728 27.3135 193.891 26.8845C192.606 26.2415 191.117 26.2739 189.716 26.2873C188.693 26.3414 187.593 26.4301 186.727 27.0313C186.062 27.4869 185.86 28.4066 186.097 29.1473C186.321 29.6791 186.935 29.8507 187.437 30.0089C190.33 30.7657 193.396 30.6902 196.234 31.686C197.41 32.092 198.559 32.8814 198.961 34.1117C199.487 35.7607 199.257 37.7314 198.083 39.0551C197.132 40.1443 195.747 40.7373 194.365 41.0593C192.526 41.4693 190.618 41.4798 188.751 41.2977C186.996 41.0975 185.168 40.6363 183.813 39.4403C182.654 38.4339 182.088 36.8658 182.144 35.3527C182.158 35.097 182.412 34.9187 182.657 34.9397C183.359 34.9342 184.06 34.9322 184.762 34.9409C185.042 34.9208 185.25 35.163 185.264 35.4271C185.393 36.2741 185.712 37.1634 186.451 37.6655C187.876 38.5854 189.665 38.5224 191.298 38.5481C192.65 38.4882 194.168 38.4701 195.272 37.5761C195.854 37.0662 196.027 36.2131 195.869 35.4794C195.699 34.8598 195.051 34.5711 194.494 34.3823C191.638 33.4789 188.537 33.8067 185.709 32.7849C184.56 32.3791 183.45 31.6118 183.009 30.4321C182.393 28.7623 182.675 26.6969 183.971 25.4181C185.235 24.1456 187.059 23.6556 188.794 23.4804Z" fill="#81CD39"/>
<path d="M81.1694 10H57.624C51.887 10 47.2363 14.6507 47.2363 20.3877V43.933C47.2363 49.67 51.887 54.3207 57.624 54.3207H81.1694C86.9063 54.3207 91.557 49.67 91.557 43.933V20.3877C91.557 14.6507 86.9063 10 81.1694 10Z" fill="#242938"/>
<path d="M86.7095 41.6715C86.2055 41.8624 85.6491 41.862 85.1453 41.6704C84.6416 41.4789 84.2255 41.1094 83.9757 40.6319C82.4066 38.283 80.674 36.0402 79.0086 33.7492L78.2865 32.7866C76.3035 35.4434 74.3205 37.9943 72.5108 40.6416C72.2751 41.098 71.8815 41.4531 71.4033 41.6409C70.9252 41.8286 70.3951 41.8361 69.9118 41.662L77.3528 31.6796L70.4315 22.6596C70.9298 22.4797 71.4748 22.4773 71.9746 22.6526C72.4745 22.828 72.8985 23.1705 73.1751 23.6222C74.7826 25.9712 76.5636 28.2141 78.3347 30.5918C80.1156 28.2333 81.8772 25.9808 83.5233 23.6511C83.7603 23.2021 84.1541 22.856 84.6298 22.6785C85.1055 22.501 85.6299 22.5046 86.1031 22.6886L83.4173 26.2503C82.2141 27.8386 81.0301 29.4366 79.7787 30.9864C79.6778 31.0767 79.5971 31.1872 79.5418 31.3108C79.4866 31.4343 79.458 31.5682 79.458 31.7036C79.458 31.839 79.4866 31.9728 79.5418 32.0964C79.5971 32.22 79.6778 32.3305 79.7787 32.4208C82.0794 35.4723 84.3607 38.5334 86.7095 41.6715ZM52.084 31.5544C52.2862 30.5918 52.4112 29.5425 52.6905 28.5607C54.3558 22.6406 61.1422 20.1761 65.8109 23.8438C68.5448 25.9906 69.2283 29.0325 69.0936 32.4594H53.6916C53.4413 38.5817 57.8597 42.2781 63.5102 40.3914C64.4268 40.0635 65.2474 39.5125 65.8978 38.7881C66.5481 38.0638 67.0079 37.1889 67.2356 36.2424C67.5341 35.2798 68.0154 35.1162 68.9298 35.3953C68.7793 36.5672 68.3649 37.6897 67.718 38.6784C67.0711 39.6672 66.2085 40.4963 65.1949 41.1036C63.5204 42.0194 61.5991 42.3823 59.7059 42.1402C57.8127 41.8982 56.0445 41.0637 54.6542 39.756C53.2788 38.2095 52.4471 36.2554 52.2862 34.192C52.2862 33.8648 52.161 33.5374 52.0937 33.2294C52.0873 32.6711 52.0841 32.1128 52.084 31.5544ZM53.7109 31.1405H67.64C67.5533 26.7029 64.7521 23.5551 61.0172 23.5263C56.8587 23.4685 53.8842 26.5488 53.7012 31.1213L53.7109 31.1405Z" fill="white"/>
<path fill-rule="evenodd" clip-rule="evenodd" d="M19.4765 24.5066C20.0619 26.199 20.4827 27.9267 20.6216 29.7169C20.7934 31.9384 20.7151 34.1447 20.2466 36.3295L20.1864 36.5041C20.0395 36.5046 19.8897 36.486 19.746 36.5084C18.5327 36.6993 17.3208 36.8968 16.1084 37.0934C14.8549 37.2966 13.6006 37.4918 12.3495 37.7084C11.9063 37.7847 11.3576 37.6936 11.1786 38.3062L11.0928 38.3354L11.1533 34.6719L11.0918 25.8325L11.6758 25.7323C12.6306 25.5763 13.5853 25.4174 14.5415 25.2652C15.6818 25.0844 16.8231 24.9079 17.9644 24.7313C18.4683 24.654 18.9726 24.582 19.4765 24.5066Z" fill="#439934"/>
<path fill-rule="evenodd" clip-rule="evenodd" d="M9.88235 49.0153C9.26637 48.4857 8.62892 47.9794 8.0387 47.4222C4.86195 44.4258 2.53783 40.8983 1.39319 36.6456C1.0778 35.4757 0.867861 34.2862 0.800108 33.0771C0.752395 32.2307 0.684164 31.3771 0.744283 30.535C0.903169 28.2958 1.22714 26.0781 1.88368 23.9209L1.91994 23.8708C1.98388 23.9558 2.07549 24.0312 2.10793 24.1271C2.7492 26.0146 3.38522 27.9041 4.01837 29.7949C6.00754 35.7357 7.99433 41.6779 9.98684 47.6178C10.026 47.7337 10.1266 47.8287 10.1992 47.9332L9.88235 49.0153Z" fill="#45A538"/>
<path fill-rule="evenodd" clip-rule="evenodd" d="M19.4697 24.5062C18.9653 24.5811 18.461 24.6536 17.9576 24.7309C16.8163 24.9075 15.675 25.084 14.5347 25.2648C13.579 25.4166 12.6242 25.5755 11.669 25.732L11.085 25.8322L11.0802 25.4514C11.0607 25.1384 11.0282 24.8254 11.0239 24.5124L10.9586 18.5225C10.9433 17.2729 10.9204 16.0232 10.8951 14.7741C10.8822 13.9977 10.8598 13.2215 10.8278 12.4457C10.8087 12.0292 10.7415 11.6145 10.7147 11.198C10.699 10.9585 10.72 10.717 10.7252 10.4766C11.023 11.0534 11.3145 11.6346 11.6203 12.2071C12.1037 13.1122 12.8742 13.7793 13.5685 14.5069C16.3101 17.3845 18.2563 20.7283 19.4697 24.5062Z" fill="#46A037"/>
<path fill-rule="evenodd" clip-rule="evenodd" d="M11.0925 38.3358L11.1784 38.3067C11.3573 37.6941 11.906 37.7852 12.3493 37.7089C13.6003 37.4923 14.8547 37.2971 16.1081 37.0939C17.3205 36.8978 18.5324 36.7002 19.7458 36.5089C19.8894 36.4865 20.0392 36.5051 20.1862 36.5046C19.9596 37.3138 19.7811 38.1407 19.4934 38.9275C19.1666 39.8197 18.7715 40.691 18.3521 41.545C17.7238 42.8187 16.9465 44.0132 16.0366 45.1035C15.3371 45.9442 14.5574 46.7224 13.7764 47.4901C13.3441 47.9143 12.8355 48.2602 12.3612 48.6419L12.2381 48.5579L11.7958 48.1801L11.3382 47.1762C11.0256 46.0055 10.855 44.8015 10.8301 43.59L10.8387 43.3858L10.9012 42.5012C10.9217 42.1992 10.9494 41.8976 10.9622 41.5956C11.008 40.5097 11.0491 39.4227 11.0925 38.3358Z" fill="#409433"/>
<path fill-rule="evenodd" clip-rule="evenodd" d="M11.0905 38.3351C11.0476 39.422 11.0065 40.5093 10.9603 41.5963C10.9474 41.8988 10.9202 42.2003 10.8992 42.5019L10.6205 42.6073C10.0012 40.7842 9.38143 38.9801 8.77547 37.1718C7.77301 34.1797 6.78296 31.1833 5.78193 28.1902C4.97359 25.7747 4.1596 23.361 3.33996 20.9493C3.30132 20.8367 3.19158 20.7479 3.11523 20.6482L4.89971 17.3669C4.96126 17.4733 5.0419 17.5731 5.08055 17.6876C5.90599 20.1305 6.73 22.5739 7.54685 25.0197C8.6099 28.2022 9.6658 31.3861 10.7279 34.569C10.7704 34.696 10.84 34.8133 10.9068 34.956L11.1511 34.6716L11.0905 38.3351Z" fill="#4FAA41"/>
<path fill-rule="evenodd" clip-rule="evenodd" d="M3.10494 20.6482C3.18176 20.7479 3.2915 20.8367 3.32967 20.9493C4.14938 23.361 4.96337 25.7747 5.77164 28.1902C6.77267 31.1833 7.76272 34.1797 8.76518 37.1718C9.37114 38.9801 9.99093 40.7837 10.6103 42.6073L10.8889 42.5019L10.8264 43.3865L10.7696 43.5902C10.6728 44.5583 10.5912 45.5283 10.4728 46.4945C10.4137 46.9788 10.2872 47.454 10.1913 47.9331C10.1193 47.8286 10.0181 47.7336 9.97901 47.6177C7.98602 41.6779 5.99971 35.7356 4.01054 29.7948C3.37766 27.9042 2.74085 26.0149 2.1001 24.127C2.06766 24.0311 1.97605 23.9557 1.91211 23.8708L3.10494 20.6482Z" fill="#4AA73C"/>
<path fill-rule="evenodd" clip-rule="evenodd" d="M11.1498 34.6722L10.9055 34.9565C10.8387 34.8139 10.7691 34.6965 10.7266 34.5696C9.66452 31.3866 8.60863 28.2027 7.54557 25.0202C6.72776 22.5747 5.90566 20.1307 5.07927 17.6881C5.04062 17.5736 4.95999 17.4739 4.89844 17.3675L7.10518 14.4646C7.17484 14.5572 7.27408 14.6397 7.30987 14.7442C7.92251 16.5382 8.52942 18.3337 9.13347 20.1306C9.69745 21.8091 10.2528 23.4896 10.8235 25.1653C10.8617 25.2774 10.9948 25.3566 11.0835 25.452L11.0883 25.8328L11.1498 34.6722Z" fill="#57AE47"/>
<path fill-rule="evenodd" clip-rule="evenodd" d="M11.0819 25.4515C10.9926 25.3565 10.86 25.2773 10.8218 25.1647C10.2516 23.489 9.69578 21.8086 9.13181 20.13C8.52823 18.3331 7.92036 16.5377 7.3082 14.7437C7.27242 14.6392 7.17318 14.5566 7.10352 14.4641C7.82112 13.7612 8.51631 13.0331 9.26302 12.3628C9.92671 11.7673 10.4601 11.1289 10.485 10.1875L10.5374 10L10.7264 10.4762C10.7216 10.7167 10.7001 10.9581 10.7159 11.1976C10.7431 11.6141 10.8104 12.0288 10.829 12.4453C10.8638 13.2207 10.8805 13.9974 10.8962 14.7737C10.9215 16.0229 10.9444 17.2725 10.9597 18.5221L11.0251 24.512C11.0298 24.8255 11.0628 25.1385 11.0819 25.4515Z" fill="#60B24F"/>
<path fill-rule="evenodd" clip-rule="evenodd" d="M10.2021 47.9331C10.298 47.4541 10.4244 46.9788 10.4836 46.4946C10.6019 45.5288 10.6835 44.5583 10.7803 43.5902L10.8047 43.5864L10.8285 43.5907C10.8534 44.8022 11.024 46.0062 11.3367 47.1769C11.2723 47.2618 11.1821 47.3367 11.1477 47.4321C10.8829 48.1793 10.6329 48.9327 10.3667 49.6794C10.3304 49.7815 10.2283 49.8612 10.1572 49.9504L9.88477 49.0153L10.2021 47.9331Z" fill="#A9AA88"/>
<path fill-rule="evenodd" clip-rule="evenodd" d="M10.1602 49.9506C10.2312 49.8609 10.3334 49.7817 10.3696 49.6796C10.6359 48.9329 10.8859 48.1795 11.1507 47.4323C11.1846 47.3368 11.2752 47.2619 11.3396 47.177L11.7972 48.1809C11.707 48.3088 11.582 48.4247 11.5319 48.5674L10.6559 51.1401C10.6196 51.2436 10.497 51.3161 10.414 51.4035L10.1602 49.9506Z" fill="#B6B598"/>
<path fill-rule="evenodd" clip-rule="evenodd" d="M10.4121 51.403C10.4947 51.3157 10.6178 51.2431 10.654 51.1396L11.53 48.5669C11.5797 48.4242 11.7051 48.3083 11.7953 48.1804L12.2381 48.5578C12.0243 48.7692 11.9055 49.0135 11.9771 49.3222L11.8426 49.7626C11.7815 49.838 11.6927 49.9038 11.6627 49.9902C11.3568 50.8662 11.0653 51.747 10.7571 52.6225C10.7179 52.7332 10.6096 52.8205 10.5338 52.9188L10.4121 51.403Z" fill="#C2C1A7"/>
<path fill-rule="evenodd" clip-rule="evenodd" d="M10.5273 52.918C10.6036 52.8197 10.7119 52.7324 10.7506 52.6217C11.0588 51.7461 11.3508 50.8653 11.6562 49.9893C11.6862 49.903 11.775 49.8376 11.836 49.7617L11.6504 51.7829C11.6008 51.8401 11.5292 51.8902 11.5054 51.9565L10.888 53.7257C10.8445 53.8465 10.7615 53.9543 10.6966 54.0674C10.6389 53.992 10.5358 53.919 10.5311 53.8407C10.5129 53.5344 10.5258 53.2257 10.5273 52.918Z" fill="#CECDB7"/>
<path fill-rule="evenodd" clip-rule="evenodd" d="M10.7012 54.0687C10.7661 53.9556 10.8491 53.8478 10.8925 53.7271L11.5099 51.9579C11.5338 51.8911 11.6058 51.8414 11.655 51.7842L11.6597 53.1106L11.2155 54.2495L10.7012 54.0687Z" fill="#DBDAC7"/>
<path fill-rule="evenodd" clip-rule="evenodd" d="M11.209 54.2488L11.6532 53.1099L11.7448 54.4573L11.209 54.2488Z" fill="#EBE9DC"/>
<path fill-rule="evenodd" clip-rule="evenodd" d="M11.9738 49.322C11.9027 49.0138 12.021 48.7695 12.2348 48.5576L12.3579 48.6416L11.9738 49.322Z" fill="#CECDB7"/>
<path fill-rule="evenodd" clip-rule="evenodd" d="M10.8261 43.593L10.8019 43.5886L10.7773 43.5925L10.8348 43.3865L10.8261 43.593Z" fill="#4FAA41"/>
<path d="M128.267 13L109.182 19.8065L112.092 45.0414L128.267 54L144.442 45.0414L147.353 19.8061L128.267 13Z" fill="#DD0031"/>
<path d="M128.268 13V17.5512V17.5307V54L144.442 45.0414L147.353 19.8061L128.268 13Z" fill="#C3002F"/>
<path d="M128.266 17.5308L116.336 44.2827H120.784L123.181 38.2962H133.308L135.707 44.2831H140.156L128.266 17.5308ZM131.751 34.6063H124.782L128.266 26.2219L131.751 34.6063Z" fill="white"/>
<path d="M0 66.9712H3.36364L11.2727 86.2894H11.5455L19.4545 66.9712H22.8182V90.2439H20.1818V72.5621H19.9545L12.6818 90.2439H10.1364L2.86364 72.5621H2.63636V90.2439H0V66.9712Z" fill="black"/>
<path d="M65.2688 90.2439V66.9712H79.3142V69.4712H68.0869V77.3348H78.5869V79.8348H68.0869V87.7439H79.496V90.2439H65.2688Z" fill="black"/>
<path d="M122.148 90.2439H119.194L127.739 66.9712H130.648L139.194 90.2439H136.239L129.285 70.653H129.103L122.148 90.2439ZM123.239 81.153H135.148V83.653H123.239V81.153Z" fill="black"/>
<path d="M198.073 66.9712V90.2439H195.346L182.664 71.9712H182.437V90.2439H179.619V66.9712H182.346L195.073 85.2894H195.301V66.9712H198.073Z" fill="black"/>
</svg>
