<svg width="207" height="81" viewBox="0 0 207 81" fill="none" xmlns="http://www.w3.org/2000/svg">
<path d="M184.808 0.472826C185.907 -0.156155 187.339 -0.15906 188.437 0.472826C193.961 3.59427 199.486 6.71058 205.009 9.83381C206.048 10.419 206.743 11.5751 206.732 12.772V31.551C206.74 32.7975 205.977 33.9813 204.881 34.5531C199.375 37.6574 193.872 40.7652 188.367 43.8694C187.246 44.5107 185.785 44.4613 184.699 43.7673C183.048 42.8105 181.395 41.8582 179.744 40.9024C179.406 40.7013 179.026 40.5413 178.788 40.2142C178.999 39.9304 179.375 39.8951 179.681 39.7711C180.37 39.5519 181.003 39.2002 181.636 38.859C181.796 38.7495 181.991 38.7915 182.145 38.8894C183.556 39.6987 184.955 40.5317 186.372 41.3331C186.674 41.5077 186.98 41.276 187.238 41.1321C192.641 38.0783 198.05 35.0364 203.452 31.9818C203.652 31.8855 203.763 31.673 203.747 31.4538C203.75 25.2589 203.747 19.0632 203.749 12.8681C203.771 12.6197 203.628 12.3909 203.403 12.289C197.916 9.19902 192.432 6.10461 186.946 3.014C186.851 2.94861 186.739 2.91351 186.623 2.91331C186.508 2.91311 186.395 2.94782 186.3 3.01288C180.814 6.10461 175.331 9.20215 169.846 12.2916C169.621 12.3938 169.471 12.6188 169.498 12.8681C169.499 19.0632 169.498 25.2589 169.498 31.4547C169.488 31.5617 169.512 31.6691 169.565 31.7623C169.618 31.8556 169.699 31.9302 169.796 31.9762C171.26 32.8063 172.726 33.6305 174.191 34.4579C175.016 34.9019 176.029 35.166 176.938 34.8257C177.741 34.5379 178.303 33.719 178.288 32.8673C178.295 26.7086 178.284 20.5491 178.293 14.3911C178.273 14.1178 178.533 13.8919 178.798 13.9178C179.502 13.9129 180.206 13.9082 180.91 13.9196C181.203 13.9129 181.405 14.2074 181.369 14.4827C181.366 20.6804 181.377 26.8782 181.364 33.0757C181.366 34.7276 180.687 36.525 179.16 37.3331C177.278 38.308 174.951 38.1013 173.092 37.1665C171.482 36.363 169.946 35.4147 168.365 34.554C167.266 33.9854 166.506 32.7969 166.514 31.5512V12.772C166.502 11.5503 167.225 10.3732 168.296 9.7965C173.801 6.69002 179.305 3.58087 184.808 0.472826Z" fill="#81CD39"/>
<path d="M189.612 13.4804C192.013 13.3258 194.583 13.3888 196.744 14.5717C198.417 15.478 199.344 17.3804 199.373 19.2387C199.327 19.4892 199.065 19.6275 198.825 19.6103C198.129 19.6094 197.432 19.6199 196.736 19.6056C196.44 19.617 196.268 19.3446 196.231 19.0834C196.031 18.1941 195.546 17.3135 194.709 16.8845C193.424 16.2415 191.935 16.2739 190.534 16.2873C189.511 16.3414 188.412 16.4301 187.545 17.0313C186.88 17.4869 186.678 18.4066 186.915 19.1473C187.139 19.6791 187.753 19.8507 188.255 20.0089C191.149 20.7657 194.215 20.6902 197.053 21.686C198.228 22.092 199.377 22.8814 199.779 24.1117C200.306 25.7607 200.075 27.7314 198.902 29.0551C197.95 30.1443 196.565 30.7373 195.183 31.0593C193.344 31.4693 191.436 31.4798 189.569 31.2977C187.814 31.0975 185.987 30.6363 184.632 29.4403C183.473 28.4339 182.907 26.8658 182.963 25.3527C182.976 25.097 183.231 24.9187 183.476 24.9397C184.177 24.9342 184.879 24.9322 185.58 24.9409C185.86 24.9208 186.068 25.163 186.082 25.4271C186.212 26.2741 186.53 27.1634 187.269 27.6655C188.694 28.5854 190.484 28.5224 192.116 28.5481C193.468 28.4882 194.987 28.4701 196.09 27.5761C196.673 27.0662 196.845 26.2131 196.688 25.4794C196.517 24.8598 195.869 24.5711 195.312 24.3823C192.456 23.4789 189.356 23.8067 186.527 22.7849C185.379 22.3791 184.268 21.6118 183.827 20.4321C183.212 18.7623 183.494 16.6969 184.79 15.4181C186.054 14.1456 187.878 13.6556 189.612 13.4804Z" fill="#81CD39"/>
<path d="M81.9877 0H58.4424C52.7054 0 48.0547 4.65071 48.0547 10.3877V33.933C48.0547 39.67 52.7054 44.3207 58.4424 44.3207H81.9877C87.7247 44.3207 92.3754 39.67 92.3754 33.933V10.3877C92.3754 4.65071 87.7247 0 81.9877 0Z" fill="#242938"/>
<path d="M87.5279 31.6715C87.0239 31.8624 86.4674 31.862 85.9637 31.6704C85.4599 31.4789 85.0438 31.1094 84.794 30.6319C83.225 28.283 81.4923 26.0402 79.827 23.7492L79.1049 22.7866C77.1219 25.4434 75.1389 27.9943 73.3292 30.6416C73.0935 31.098 72.6999 31.4531 72.2217 31.6409C71.7435 31.8286 71.2134 31.8361 70.7302 31.662L78.1712 21.6796L71.2499 12.6596C71.7481 12.4797 72.2932 12.4773 72.793 12.6526C73.2928 12.828 73.7169 13.1705 73.9935 13.6222C75.6009 15.9712 77.3819 18.2141 79.153 20.5918C80.934 18.2333 82.6955 15.9808 84.3416 13.6511C84.5787 13.2021 84.9725 12.856 85.4482 12.6785C85.9239 12.501 86.4482 12.5046 86.9214 12.6886L84.2357 16.2503C83.0325 17.8386 81.8484 19.4366 80.5971 20.9864C80.4962 21.0767 80.4154 21.1872 80.3602 21.3108C80.3049 21.4343 80.2764 21.5682 80.2764 21.7036C80.2764 21.839 80.3049 21.9728 80.3602 22.0964C80.4154 22.22 80.4962 22.3305 80.5971 22.4208C82.8978 25.4723 85.1791 28.5334 87.5279 31.6715ZM52.9023 21.5544C53.1046 20.5918 53.2296 19.5425 53.5088 18.5607C55.1741 12.6406 61.9606 10.1761 66.6293 13.8438C69.3632 15.9906 70.0467 19.0325 69.912 22.4594H54.51C54.2597 28.5817 58.6781 32.2781 64.3286 30.3914C65.2452 30.0635 66.0657 29.5125 66.7161 28.7881C67.3665 28.0638 67.8263 27.1889 68.054 26.2424C68.3524 25.2798 68.8337 25.1162 69.7482 25.3953C69.5976 26.5672 69.1833 27.6897 68.5364 28.6784C67.8895 29.6671 67.0268 30.4963 66.0133 31.1036C64.3388 32.0194 62.4175 32.3823 60.5243 32.1402C58.6311 31.8982 56.8629 31.0637 55.4726 29.756C54.0972 28.2095 53.2655 26.2554 53.1046 24.192C53.1046 23.8648 52.9794 23.5374 52.912 23.2294C52.9057 22.6711 52.9024 22.1128 52.9023 21.5544ZM54.5292 21.1405H68.4584C68.3717 16.7029 65.5704 13.5551 61.8356 13.5263C57.677 13.4685 54.7025 16.5488 54.5195 21.1213L54.5292 21.1405Z" fill="white"/>
<path fill-rule="evenodd" clip-rule="evenodd" d="M20.2948 14.5066C20.8803 16.199 21.3011 17.9267 21.4399 19.7169C21.6117 21.9384 21.5335 24.1447 21.0649 26.3295L21.0048 26.5041C20.8578 26.5046 20.708 26.486 20.5644 26.5084C19.3511 26.6993 18.1391 26.8968 16.9267 27.0934C15.6733 27.2966 14.4189 27.4918 13.1679 27.7084C12.7246 27.7847 12.1759 27.6936 11.997 28.3062L11.9111 28.3354L11.9717 24.6719L11.9102 15.8325L12.4942 15.7323C13.4489 15.5763 14.4037 15.4174 15.3598 15.2652C16.5002 15.0844 17.6415 14.9079 18.7828 14.7313C19.2866 14.654 19.791 14.582 20.2948 14.5066Z" fill="#439934"/>
<path fill-rule="evenodd" clip-rule="evenodd" d="M10.7007 39.0153C10.0847 38.4857 9.44728 37.9794 8.85706 37.4222C5.68031 34.4258 3.35619 30.8983 2.21154 26.6456C1.89616 25.4757 1.68622 24.2862 1.61847 23.0771C1.57075 22.2307 1.50252 21.3771 1.56264 20.535C1.72153 18.2958 2.0455 16.0781 2.70204 13.9209L2.7383 13.8708C2.80224 13.9558 2.89385 14.0312 2.92629 14.1271C3.56756 16.0146 4.20358 17.9041 4.83673 19.7949C6.8259 25.7357 8.81269 31.6779 10.8052 37.6178C10.8443 37.7337 10.945 37.8287 11.0175 37.9332L10.7007 39.0153Z" fill="#45A538"/>
<path fill-rule="evenodd" clip-rule="evenodd" d="M20.288 14.5062C19.7837 14.5811 19.2794 14.6536 18.776 14.7309C17.6347 14.9075 16.4934 15.084 15.353 15.2648C14.3973 15.4166 13.4426 15.5755 12.4874 15.732L11.9034 15.8322L11.8986 15.4514C11.879 15.1384 11.8466 14.8254 11.8423 14.5124L11.7769 8.52247C11.7616 7.27285 11.7387 6.02324 11.7135 4.7741C11.7006 3.99772 11.6782 3.22152 11.6462 2.44569C11.6271 2.02916 11.5598 1.61453 11.5331 1.19799C11.5174 0.958467 11.5383 0.717038 11.5436 0.476562C11.8413 1.05342 12.1329 1.63457 12.4387 2.20713C12.922 3.11225 13.6926 3.77928 14.3868 4.50691C17.1284 7.3845 19.0747 10.7283 20.288 14.5062Z" fill="#46A037"/>
<path fill-rule="evenodd" clip-rule="evenodd" d="M11.9109 28.3358L11.9967 28.3067C12.1757 27.6941 12.7244 27.7852 13.1676 27.7089C14.4187 27.4923 15.6731 27.2971 16.9265 27.0939C18.1389 26.8978 19.3508 26.7002 20.5642 26.5089C20.7078 26.4865 20.8576 26.5051 21.0046 26.5046C20.7779 27.3138 20.5995 28.1407 20.3118 28.9275C19.9849 29.8197 19.5899 30.691 19.1705 31.545C18.5422 32.8187 17.7649 34.0132 16.8549 35.1035C16.1554 35.9442 15.3758 36.7224 14.5947 37.4901C14.1625 37.9143 13.6538 38.2602 13.1796 38.6419L13.0565 38.5579L12.6142 38.1801L12.1566 37.1762C11.8439 36.0055 11.6733 34.8015 11.6484 33.59L11.657 33.3858L11.7195 32.5012C11.74 32.1992 11.7677 31.8976 11.7806 31.5956C11.8264 30.5097 11.8674 29.4227 11.9109 28.3358Z" fill="#409433"/>
<path fill-rule="evenodd" clip-rule="evenodd" d="M11.9089 28.3351C11.8659 29.422 11.8249 30.5093 11.7786 31.5963C11.7657 31.8988 11.7385 32.2003 11.7175 32.5019L11.4389 32.6073C10.8196 30.7842 10.1998 28.9801 9.59383 27.1718C8.59137 24.1797 7.60132 21.1833 6.60029 18.1902C5.79195 15.7747 4.97796 13.361 4.15832 10.9493C4.11968 10.8367 4.00994 10.7479 3.93359 10.6482L5.71807 7.36694C5.77962 7.47334 5.86026 7.57307 5.89891 7.68758C6.72435 10.1305 7.54836 12.5739 8.36521 15.0197C9.42826 18.2022 10.4842 21.3861 11.5463 24.569C11.5887 24.696 11.6584 24.8133 11.7252 24.956L11.9695 24.6716L11.9089 28.3351Z" fill="#4FAA41"/>
<path fill-rule="evenodd" clip-rule="evenodd" d="M3.9233 10.6482C4.00012 10.7479 4.10986 10.8367 4.14803 10.9493C4.96774 13.361 5.78173 15.7747 6.59 18.1902C7.59103 21.1833 8.58108 24.1797 9.58354 27.1718C10.1895 28.9801 10.8093 30.7837 11.4286 32.6073L11.7073 32.5019L11.6448 33.3865L11.588 33.5902C11.4911 34.5583 11.4095 35.5283 11.2912 36.4945C11.232 36.9788 11.1056 37.454 11.0097 37.9331C10.9376 37.8286 10.8365 37.7336 10.7974 37.6177C8.80438 31.6779 6.81807 25.7356 4.8289 19.7948C4.19602 17.9042 3.55921 16.0149 2.91846 14.127C2.88601 14.0311 2.7944 13.9557 2.73047 13.8708L3.9233 10.6482Z" fill="#4AA73C"/>
<path fill-rule="evenodd" clip-rule="evenodd" d="M11.9682 24.6722L11.7239 24.9565C11.6571 24.8139 11.5874 24.6965 11.545 24.5696C10.4829 21.3866 9.42699 18.2027 8.36393 15.0202C7.54612 12.5747 6.72402 10.1307 5.89763 7.68811C5.85898 7.5736 5.77835 7.47388 5.7168 7.36748L7.92354 4.4646C7.9932 4.55716 8.09244 4.63971 8.12823 4.7442C8.74087 6.53822 9.34778 8.33368 9.95183 10.1306C10.5158 11.8091 11.0712 13.4896 11.6418 15.1653C11.68 15.2774 11.8131 15.3566 11.9019 15.452L11.9067 15.8328L11.9682 24.6722Z" fill="#57AE47"/>
<path fill-rule="evenodd" clip-rule="evenodd" d="M11.9002 15.4515C11.811 15.3565 11.6783 15.2773 11.6402 15.1647C11.07 13.489 10.5141 11.8086 9.95017 10.13C9.34659 8.33312 8.73872 6.53766 8.12656 4.74366C8.09078 4.63917 7.99154 4.55663 7.92188 4.46406C8.63948 3.76124 9.33467 3.03314 10.0814 2.36277C10.7451 1.7673 11.2785 1.1289 11.3033 0.187513L11.3558 0L11.5447 0.476179C11.54 0.716654 11.5185 0.958084 11.5343 1.19761C11.5614 1.61414 11.6287 2.02877 11.6473 2.44531C11.6822 3.22065 11.6989 3.99742 11.7146 4.77372C11.7399 6.02286 11.7628 7.27247 11.7781 8.52208L11.8434 14.512C11.8482 14.8255 11.8811 15.1385 11.9002 15.4515Z" fill="#60B24F"/>
<path fill-rule="evenodd" clip-rule="evenodd" d="M11.0204 37.9331C11.1163 37.4541 11.2428 36.9788 11.3019 36.4946C11.4203 35.5288 11.5018 34.5583 11.5987 33.5902L11.623 33.5864L11.6469 33.5907C11.6718 34.8022 11.8424 36.0062 12.155 37.1769C12.0906 37.2618 12.0005 37.3367 11.9661 37.4321C11.7013 38.1793 11.4513 38.9327 11.185 39.6794C11.1488 39.7815 11.0467 39.8612 10.9756 39.9504L10.7031 39.0153L11.0204 37.9331Z" fill="#A9AA88"/>
<path fill-rule="evenodd" clip-rule="evenodd" d="M10.9785 39.9506C11.0496 39.8609 11.1517 39.7817 11.188 39.6796C11.4542 38.9329 11.7042 38.1795 11.969 37.4323C12.0029 37.3368 12.0936 37.2619 12.158 37.177L12.6156 38.1809C12.5254 38.3088 12.4004 38.4247 12.3503 38.5674L11.4743 41.1401C11.438 41.2436 11.3154 41.3161 11.2324 41.4035L10.9785 39.9506Z" fill="#B6B598"/>
<path fill-rule="evenodd" clip-rule="evenodd" d="M11.2305 41.403C11.313 41.3157 11.4361 41.2431 11.4724 41.1396L12.3484 38.5669C12.398 38.4242 12.5235 38.3083 12.6137 38.1804L13.0565 38.5578C12.8427 38.7692 12.7239 39.0135 12.7955 39.3222L12.6609 39.7626C12.5998 39.838 12.5111 39.9038 12.481 39.9902C12.1752 40.8662 11.8837 41.747 11.5754 42.6225C11.5363 42.7332 11.428 42.8205 11.3521 42.9188L11.2305 41.403Z" fill="#C2C1A7"/>
<path fill-rule="evenodd" clip-rule="evenodd" d="M11.3456 42.918C11.422 42.8197 11.5303 42.7324 11.5689 42.6217C11.8771 41.7461 12.1691 40.8653 12.4745 39.9893C12.5046 39.903 12.5933 39.8376 12.6544 39.7617L12.4688 41.7829C12.4192 41.8401 12.3476 41.8902 12.3237 41.9565L11.7063 43.7257C11.6629 43.8465 11.5799 43.9543 11.515 44.0674C11.4573 43.992 11.3542 43.919 11.3494 43.8407C11.3313 43.5344 11.3442 43.2257 11.3456 42.918Z" fill="#CECDB7"/>
<path fill-rule="evenodd" clip-rule="evenodd" d="M11.5195 44.0687C11.5844 43.9556 11.6674 43.8478 11.7109 43.7271L12.3283 41.9579C12.3521 41.8911 12.4242 41.8414 12.4733 41.7842L12.4781 43.1106L12.0339 44.2495L11.5195 44.0687Z" fill="#DBDAC7"/>
<path fill-rule="evenodd" clip-rule="evenodd" d="M12.0273 44.2488L12.4716 43.1099L12.5632 44.4573L12.0273 44.2488Z" fill="#EBE9DC"/>
<path fill-rule="evenodd" clip-rule="evenodd" d="M12.7922 39.322C12.7211 39.0138 12.8394 38.7695 13.0532 38.5576L13.1763 38.6416L12.7922 39.322Z" fill="#CECDB7"/>
<path fill-rule="evenodd" clip-rule="evenodd" d="M11.6444 33.593L11.6203 33.5886L11.5957 33.5925L11.6531 33.3865L11.6444 33.593Z" fill="#4FAA41"/>
<path d="M129.085 3L110 9.80651L112.911 35.0414L129.085 44L145.26 35.0414L148.171 9.80611L129.085 3Z" fill="#DD0031"/>
<path d="M129.086 3V7.55115V7.53073V44L145.261 35.0414L148.171 9.80611L129.086 3Z" fill="#C3002F"/>
<path d="M129.085 7.53076L117.154 34.2827H121.603L124 28.2962H134.127L136.526 34.2831H140.974L129.085 7.53076ZM132.569 24.6063H125.6L129.085 16.2219L132.569 24.6063Z" fill="white"/>
<path d="M0.818359 56.9712H4.182L12.0911 76.2894H12.3638L20.2729 56.9712H23.6365V80.2439H21.0002V62.5621H20.7729L13.5002 80.2439H10.9547L3.682 62.5621H3.45472V80.2439H0.818359V56.9712Z" fill="black"/>
<path d="M66.0871 80.2439V56.9712H80.1326V59.4712H68.9053V67.3348H79.4053V69.8348H68.9053V77.7439H80.3144V80.2439H66.0871Z" fill="black"/>
<path d="M122.967 80.2439H120.012L128.558 56.9712H131.467L140.012 80.2439H137.058L130.103 60.653H129.921L122.967 80.2439ZM124.058 71.153H135.967V73.653H124.058V71.153Z" fill="black"/>
<path d="M198.892 56.9712V80.2439H196.164L183.483 61.9712H183.255V80.2439H180.437V56.9712H183.164L195.892 75.2894H196.119V56.9712H198.892Z" fill="black"/>
</svg>
