<svg width="207" height="80" viewBox="0 0 207 80" fill="none" xmlns="http://www.w3.org/2000/svg">
<path d="M142.932 6.9563H151.709L129.767 44.8051L107.826 6.9563H124.611L129.767 15.7328L134.814 6.9563H142.932Z" fill="#41B883"/>
<path d="M107.826 6.9563L129.767 44.8051L151.709 6.9563H142.932L129.767 29.6655L116.493 6.9563H107.826Z" fill="#41B883"/>
<path d="M116.492 6.9563L129.767 29.7753L142.931 6.9563H134.813L129.767 15.7328L124.61 6.9563H116.492Z" fill="#2E4A60"/>
<path d="M184.808 0.472826C185.907 -0.156155 187.339 -0.15906 188.437 0.472826C193.961 3.59427 199.486 6.71058 205.009 9.83381C206.048 10.419 206.743 11.5751 206.732 12.772V31.551C206.74 32.7975 205.977 33.9813 204.881 34.5531C199.375 37.6574 193.872 40.7652 188.367 43.8694C187.246 44.5107 185.785 44.4613 184.699 43.7673C183.048 42.8105 181.395 41.8582 179.744 40.9024C179.406 40.7013 179.026 40.5413 178.788 40.2142C178.999 39.9304 179.375 39.8951 179.681 39.7711C180.37 39.5519 181.003 39.2002 181.636 38.859C181.796 38.7495 181.991 38.7915 182.145 38.8894C183.556 39.6987 184.955 40.5317 186.372 41.3331C186.674 41.5077 186.98 41.276 187.238 41.1321C192.641 38.0783 198.05 35.0364 203.452 31.9818C203.652 31.8855 203.763 31.673 203.747 31.4538C203.75 25.2589 203.747 19.0632 203.749 12.8681C203.771 12.6197 203.628 12.3909 203.403 12.289C197.916 9.19902 192.432 6.10461 186.946 3.014C186.851 2.94861 186.739 2.91351 186.623 2.91331C186.508 2.91311 186.395 2.94782 186.3 3.01288C180.814 6.10461 175.331 9.20215 169.846 12.2916C169.621 12.3938 169.471 12.6188 169.498 12.8681C169.499 19.0632 169.498 25.2589 169.498 31.4547C169.488 31.5617 169.512 31.6691 169.565 31.7623C169.618 31.8556 169.699 31.9302 169.796 31.9762C171.26 32.8063 172.726 33.6305 174.191 34.4579C175.016 34.9019 176.029 35.166 176.938 34.8257C177.741 34.5379 178.303 33.719 178.288 32.8673C178.295 26.7086 178.284 20.5491 178.293 14.3911C178.273 14.1178 178.533 13.8919 178.798 13.9178C179.502 13.9129 180.206 13.9082 180.91 13.9196C181.203 13.9129 181.405 14.2074 181.369 14.4827C181.366 20.6804 181.377 26.8782 181.364 33.0757C181.366 34.7276 180.687 36.525 179.16 37.3331C177.278 38.308 174.951 38.1013 173.092 37.1665C171.482 36.363 169.946 35.4147 168.365 34.554C167.266 33.9854 166.506 32.7969 166.514 31.5512V12.772C166.502 11.5503 167.225 10.3732 168.296 9.7965C173.801 6.69002 179.305 3.58087 184.808 0.472826Z" fill="#81CD39"/>
<path d="M189.612 13.4804C192.013 13.3258 194.583 13.3888 196.744 14.5717C198.417 15.478 199.344 17.3804 199.373 19.2387C199.327 19.4892 199.065 19.6275 198.825 19.6103C198.129 19.6094 197.432 19.6199 196.736 19.6056C196.44 19.617 196.268 19.3446 196.231 19.0834C196.031 18.1941 195.546 17.3135 194.709 16.8845C193.424 16.2415 191.935 16.2739 190.534 16.2873C189.511 16.3414 188.412 16.4301 187.545 17.0313C186.88 17.4869 186.678 18.4066 186.915 19.1473C187.139 19.6791 187.753 19.8507 188.255 20.0089C191.149 20.7657 194.215 20.6902 197.053 21.686C198.228 22.092 199.377 22.8814 199.779 24.1117C200.306 25.7607 200.075 27.7314 198.902 29.0551C197.95 30.1443 196.565 30.7373 195.183 31.0593C193.344 31.4693 191.436 31.4798 189.569 31.2977C187.814 31.0975 185.987 30.6363 184.632 29.4403C183.473 28.4339 182.907 26.8658 182.963 25.3527C182.976 25.097 183.231 24.9187 183.476 24.9397C184.177 24.9342 184.879 24.9322 185.58 24.9409C185.86 24.9208 186.068 25.163 186.082 25.4271C186.212 26.2741 186.53 27.1634 187.269 27.6655C188.694 28.5854 190.484 28.5224 192.116 28.5481C193.468 28.4882 194.987 28.4701 196.09 27.5761C196.673 27.0662 196.845 26.2131 196.688 25.4794C196.517 24.8598 195.869 24.5711 195.312 24.3823C192.456 23.4789 189.356 23.8067 186.527 22.7849C185.379 22.3791 184.268 21.6118 183.827 20.4321C183.212 18.7623 183.494 16.6969 184.79 15.4181C186.054 14.1456 187.878 13.6556 189.612 13.4804Z" fill="#81CD39"/>
<path d="M81.9877 2.4873H58.4424C52.7054 2.4873 48.0547 7.13802 48.0547 12.875V36.4203C48.0547 42.1573 52.7054 46.808 58.4424 46.808H81.9877C87.7247 46.808 92.3754 42.1573 92.3754 36.4203V12.875C92.3754 7.13802 87.7247 2.4873 81.9877 2.4873Z" fill="#242938"/>
<path d="M87.5279 34.1588C87.0239 34.3497 86.4674 34.3493 85.9637 34.1577C85.4599 33.9662 85.0438 33.5967 84.794 33.1192C83.225 30.7703 81.4923 28.5275 79.827 26.2365L79.1049 25.2739C77.1219 27.9307 75.1389 30.4816 73.3292 33.1289C73.0935 33.5853 72.6999 33.9404 72.2217 34.1282C71.7435 34.3159 71.2134 34.3234 70.7302 34.1493L78.1712 24.1669L71.2499 15.147C71.7481 14.967 72.2932 14.9646 72.793 15.1399C73.2928 15.3153 73.7169 15.6578 73.9935 16.1095C75.6009 18.4585 77.3819 20.7014 79.153 23.0791C80.934 20.7206 82.6955 18.4681 84.3416 16.1385C84.5787 15.6895 84.9725 15.3433 85.4482 15.1658C85.9239 14.9883 86.4482 14.9919 86.9214 15.1759L84.2357 18.7376C83.0325 20.3259 81.8484 21.9239 80.5971 23.4737C80.4962 23.564 80.4154 23.6745 80.3602 23.7981C80.3049 23.9217 80.2764 24.0555 80.2764 24.1909C80.2764 24.3263 80.3049 24.4601 80.3602 24.5837C80.4154 24.7073 80.4962 24.8178 80.5971 24.9081C82.8978 27.9596 85.1791 31.0207 87.5279 34.1588ZM52.9023 24.0417C53.1046 23.0791 53.2296 22.0298 53.5088 21.048C55.1741 15.1279 61.9606 12.6634 66.6293 16.3311C69.3632 18.4779 70.0467 21.5198 69.912 24.9467H54.51C54.2597 31.069 58.6781 34.7654 64.3286 32.8787C65.2452 32.5508 66.0657 31.9998 66.7161 31.2754C67.3665 30.5511 67.8263 29.6762 68.054 28.7297C68.3524 27.7671 68.8337 27.6035 69.7482 27.8826C69.5976 29.0545 69.1833 30.177 68.5364 31.1657C67.8895 32.1545 67.0268 32.9836 66.0133 33.5909C64.3388 34.5067 62.4175 34.8696 60.5243 34.6275C58.6311 34.3855 56.8629 33.551 55.4726 32.2433C54.0972 30.6968 53.2655 28.7427 53.1046 26.6793C53.1046 26.3521 52.9794 26.0247 52.912 25.7167C52.9057 25.1584 52.9024 24.6001 52.9023 24.0417ZM54.5292 23.6278H68.4584C68.3717 19.1902 65.5704 16.0424 61.8356 16.0136C57.677 15.9558 54.7025 19.0361 54.5195 23.6086L54.5292 23.6278Z" fill="white"/>
<path fill-rule="evenodd" clip-rule="evenodd" d="M20.2948 16.3286C20.8803 18.021 21.3011 19.7487 21.4399 21.5389C21.6117 23.7604 21.5335 25.9667 21.0649 28.1515L21.0048 28.3261C20.8578 28.3266 20.708 28.308 20.5644 28.3304C19.3511 28.5213 18.1391 28.7188 16.9267 28.9154C15.6733 29.1187 14.4189 29.3138 13.1679 29.5304C12.7246 29.6068 12.1759 29.5156 11.997 30.1283L11.9111 30.1574L11.9717 26.4939L11.9102 17.6546L12.4942 17.5544C13.4489 17.3983 14.4037 17.2395 15.3598 17.0873C16.5002 16.9064 17.6415 16.7299 18.7828 16.5533C19.2866 16.476 19.791 16.404 20.2948 16.3286Z" fill="#439934"/>
<path fill-rule="evenodd" clip-rule="evenodd" d="M10.7007 40.8373C10.0847 40.3077 9.44728 39.8015 8.85706 39.2442C5.68031 36.2478 3.35619 32.7203 2.21154 28.4676C1.89616 27.2977 1.68622 26.1082 1.61847 24.8992C1.57075 24.0527 1.50252 23.1991 1.56264 22.357C1.72153 20.1178 2.0455 17.9001 2.70204 15.743L2.7383 15.6929C2.80224 15.7778 2.89385 15.8532 2.92629 15.9491C3.56756 17.8366 4.20358 19.7261 4.83673 21.617C6.8259 27.5577 8.81269 33.5 10.8052 39.4398C10.8443 39.5557 10.945 39.6507 11.0175 39.7552L10.7007 40.8373Z" fill="#45A538"/>
<path fill-rule="evenodd" clip-rule="evenodd" d="M20.288 16.3282C19.7837 16.4031 19.2794 16.4757 18.776 16.5529C17.6347 16.7295 16.4934 16.906 15.353 17.0869C14.3973 17.2386 13.4426 17.3975 12.4874 17.554L11.9034 17.6542L11.8986 17.2734C11.879 16.9604 11.8466 16.6474 11.8423 16.3344L11.7769 10.3445C11.7616 9.09487 11.7387 7.84526 11.7135 6.59613C11.7006 5.81974 11.6782 5.04355 11.6462 4.26771C11.6271 3.85118 11.5598 3.43655 11.5331 3.02001C11.5174 2.78049 11.5383 2.53906 11.5436 2.29858C11.8413 2.87544 12.1329 3.45659 12.4387 4.02915C12.922 4.93427 13.6926 5.6013 14.3868 6.32893C17.1284 9.20652 19.0747 12.5503 20.288 16.3282Z" fill="#46A037"/>
<path fill-rule="evenodd" clip-rule="evenodd" d="M11.9109 30.1579L11.9967 30.1288C12.1757 29.5161 12.7244 29.6072 13.1676 29.5309C14.4187 29.3143 15.6731 29.1191 16.9265 28.9159C18.1389 28.7198 19.3508 28.5222 20.5642 28.3309C20.7078 28.3085 20.8576 28.3271 21.0046 28.3266C20.7779 29.1358 20.5995 29.9627 20.3118 30.7495C19.9849 31.6417 19.5899 32.513 19.1705 33.3671C18.5422 34.6407 17.7649 35.8352 16.8549 36.9255C16.1554 37.7662 15.3758 38.5444 14.5947 39.3121C14.1625 39.7363 13.6538 40.0822 13.1796 40.4639L13.0565 40.38L12.6142 40.0021L12.1566 38.9982C11.8439 37.8275 11.6733 36.6235 11.6484 35.4121L11.657 35.2078L11.7195 34.3232C11.74 34.0212 11.7677 33.7197 11.7806 33.4176C11.8264 32.3317 11.8674 31.2448 11.9109 30.1579Z" fill="#409433"/>
<path fill-rule="evenodd" clip-rule="evenodd" d="M11.9089 30.1571C11.8659 31.244 11.8249 32.3314 11.7786 33.4183C11.7657 33.7208 11.7385 34.0223 11.7175 34.3239L11.4389 34.4293C10.8196 32.6062 10.1998 30.8022 9.59383 28.9938C8.59137 26.0017 7.60132 23.0053 6.60029 20.0123C5.79195 17.5967 4.97796 15.183 4.15832 12.7713C4.11968 12.6587 4.00994 12.5699 3.93359 12.4702L5.71807 9.18896C5.77962 9.29537 5.86026 9.39509 5.89891 9.5096C6.72435 11.9525 7.54836 14.3959 8.36521 16.8417C9.42826 20.0242 10.4842 23.2081 11.5463 26.3911C11.5887 26.518 11.6584 26.6353 11.7252 26.778L11.9695 26.4936L11.9089 30.1571Z" fill="#4FAA41"/>
<path fill-rule="evenodd" clip-rule="evenodd" d="M3.9233 12.4702C4.00012 12.5699 4.10986 12.6587 4.14803 12.7713C4.96774 15.183 5.78173 17.5967 6.59 20.0123C7.59103 23.0053 8.58108 26.0017 9.58354 28.9938C10.1895 30.8022 10.8093 32.6057 11.4286 34.4293L11.7073 34.3239L11.6448 35.2085L11.588 35.4122C11.4911 36.3803 11.4095 37.3503 11.2912 38.3165C11.232 38.8008 11.1056 39.2761 11.0097 39.7551C10.9376 39.6506 10.8365 39.5557 10.7974 39.4397C8.80438 33.4999 6.81807 27.5577 4.8289 21.6169C4.19602 19.7263 3.55921 17.837 2.91846 15.949C2.88601 15.8531 2.7944 15.7777 2.73047 15.6928L3.9233 12.4702Z" fill="#4AA73C"/>
<path fill-rule="evenodd" clip-rule="evenodd" d="M11.9682 26.4942L11.7239 26.7786C11.6571 26.6359 11.5874 26.5185 11.545 26.3916C10.4829 23.2086 9.42699 20.0247 8.36393 16.8422C7.54612 14.3968 6.72402 11.9527 5.89763 9.51014C5.85898 9.39562 5.77835 9.2959 5.7168 9.1895L7.92354 6.28662C7.9932 6.37919 8.09244 6.46173 8.12823 6.56622C8.74087 8.36024 9.34778 10.1557 9.95183 11.9526C10.5158 13.6311 11.0712 15.3116 11.6418 16.9873C11.68 17.0994 11.8131 17.1786 11.9019 17.2741L11.9067 17.6548L11.9682 26.4942Z" fill="#57AE47"/>
<path fill-rule="evenodd" clip-rule="evenodd" d="M11.9002 17.2735C11.811 17.1786 11.6783 17.0994 11.6402 16.9868C11.07 15.3111 10.5141 13.6306 9.95017 11.952C9.34659 10.1551 8.73872 8.35968 8.12656 6.56568C8.09078 6.46119 7.99154 6.37865 7.92188 6.28608C8.63948 5.58326 9.33467 4.85516 10.0814 4.18479C10.7451 3.58932 11.2785 2.95092 11.3033 2.00953L11.3558 1.82202L11.5447 2.2982C11.54 2.53868 11.5185 2.78011 11.5343 3.01963C11.5614 3.43616 11.6287 3.85079 11.6473 4.26733C11.6822 5.04267 11.6989 5.81945 11.7146 6.59574C11.7399 7.84488 11.7628 9.09449 11.7781 10.3441L11.8434 16.334C11.8482 16.6475 11.8811 16.9605 11.9002 17.2735Z" fill="#60B24F"/>
<path fill-rule="evenodd" clip-rule="evenodd" d="M11.0204 39.7551C11.1163 39.2761 11.2428 38.8009 11.3019 38.3166C11.4203 37.3509 11.5018 36.3804 11.5987 35.4123L11.623 35.4084L11.6469 35.4127C11.6718 36.6242 11.8424 37.8282 12.155 38.9989C12.0906 39.0838 12.0005 39.1587 11.9661 39.2541C11.7013 40.0013 11.4513 40.7547 11.185 41.5014C11.1488 41.6036 11.0467 41.6832 10.9756 41.7725L10.7031 40.8373L11.0204 39.7551Z" fill="#A9AA88"/>
<path fill-rule="evenodd" clip-rule="evenodd" d="M10.9785 41.7726C11.0496 41.6829 11.1517 41.6037 11.188 41.5016C11.4542 40.7549 11.7042 40.0015 11.969 39.2543C12.0029 39.1589 12.0936 39.084 12.158 38.999L12.6156 40.0029C12.5254 40.1308 12.4004 40.2467 12.3503 40.3894L11.4743 42.9621C11.438 43.0656 11.3154 43.1382 11.2324 43.2255L10.9785 41.7726Z" fill="#B6B598"/>
<path fill-rule="evenodd" clip-rule="evenodd" d="M11.2305 43.225C11.313 43.1377 11.4361 43.0652 11.4724 42.9616L12.3484 40.3889C12.398 40.2463 12.5235 40.1303 12.6137 40.0024L13.0565 40.3799C12.8427 40.5912 12.7239 40.8355 12.7955 41.1442L12.6609 41.5846C12.5998 41.66 12.5111 41.7258 12.481 41.8122C12.1752 42.6882 11.8837 43.569 11.5754 44.4446C11.5363 44.5552 11.428 44.6426 11.3521 44.7409L11.2305 43.225Z" fill="#C2C1A7"/>
<path fill-rule="evenodd" clip-rule="evenodd" d="M11.3456 44.74C11.422 44.6417 11.5303 44.5544 11.5689 44.4437C11.8771 43.5681 12.1691 42.6874 12.4745 41.8113C12.5046 41.725 12.5933 41.6596 12.6544 41.5837L12.4688 43.6049C12.4192 43.6621 12.3476 43.7122 12.3237 43.7786L11.7063 45.5478C11.6629 45.6685 11.5799 45.7763 11.515 45.8894C11.4573 45.814 11.3542 45.741 11.3494 45.6628C11.3313 45.3564 11.3442 45.0477 11.3456 44.74Z" fill="#CECDB7"/>
<path fill-rule="evenodd" clip-rule="evenodd" d="M11.5195 45.8907C11.5844 45.7776 11.6674 45.6698 11.7109 45.5491L12.3283 43.7799C12.3521 43.7131 12.4242 43.6635 12.4733 43.6062L12.4781 44.9326L12.0339 46.0715L11.5195 45.8907Z" fill="#DBDAC7"/>
<path fill-rule="evenodd" clip-rule="evenodd" d="M12.0273 46.0708L12.4716 44.9319L12.5632 46.2793L12.0273 46.0708Z" fill="#EBE9DC"/>
<path fill-rule="evenodd" clip-rule="evenodd" d="M12.7922 41.144C12.7211 40.8358 12.8394 40.5915 13.0532 40.3796L13.1763 40.4636L12.7922 41.144Z" fill="#CECDB7"/>
<path fill-rule="evenodd" clip-rule="evenodd" d="M11.6444 35.415L11.6203 35.4106L11.5957 35.4145L11.6531 35.2085L11.6444 35.415Z" fill="#4FAA41"/>
<path d="M0 57.9712H3.2338L10.8376 76.257H11.0998L18.7036 57.9712H21.9374V80.0002H19.4028V63.2633H19.1843L12.1923 80.0002H9.74509L2.7531 63.2633H2.5346V80.0002H0V57.9712Z" fill="black"/>
<path d="M66.1334 80.0002V57.9712H79.6367V60.3376H68.8428V67.781H78.9375V70.1474H68.8428V77.6338H79.8115V80.0002H66.1334Z" fill="black"/>
<path d="M124.201 57.9712L130.844 76.5151H131.106L137.748 57.9712H140.589L132.373 80.0002H129.577L121.361 57.9712H124.201Z" fill="black"/>
<path d="M197.102 57.9712V80.0002H194.48L182.287 62.704H182.069V80.0002H179.359V57.9712H181.981L194.217 75.3104H194.436V57.9712H197.102Z" fill="black"/>
</svg>
