<svg width="206" height="100" viewBox="0 0 206 100" fill="none" xmlns="http://www.w3.org/2000/svg">
<path d="M172.983 7.41016C173.937 6.86454 175.178 6.86202 176.131 7.41016C180.923 10.1179 185.716 12.8212 190.507 15.5305C191.408 16.0382 192.011 17.041 192.002 18.0794V34.3696C192.009 35.4509 191.346 36.4778 190.396 36.9738C185.62 39.6666 180.846 42.3626 176.07 45.0554C175.098 45.6117 173.831 45.5689 172.888 44.9668C171.456 44.1369 170.022 43.3108 168.59 42.4816C168.297 42.3072 167.968 42.1684 167.761 41.8846C167.944 41.6385 168.27 41.6078 168.536 41.5003C169.133 41.3101 169.682 41.005 170.231 40.7091C170.37 40.6141 170.54 40.6505 170.673 40.7354C171.897 41.4375 173.111 42.16 174.339 42.8553C174.601 43.0067 174.867 42.8057 175.091 42.6809C179.778 40.0318 184.47 37.3931 189.156 34.7433C189.33 34.6597 189.426 34.4754 189.412 34.2852C189.415 28.9114 189.413 23.5368 189.414 18.1627C189.433 17.9472 189.308 17.7487 189.113 17.6603C184.354 14.9799 179.597 12.2956 174.838 9.61456C174.755 9.55783 174.658 9.52739 174.558 9.52721C174.458 9.52704 174.36 9.55715 174.277 9.61359C169.519 12.2956 164.762 14.9826 160.004 17.6626C159.809 17.7512 159.679 17.9464 159.702 18.1627C159.703 23.5368 159.702 28.9114 159.702 34.286C159.694 34.3788 159.714 34.472 159.76 34.5529C159.807 34.6338 159.876 34.6985 159.961 34.7384C161.23 35.4585 162.502 36.1735 163.773 36.8912C164.489 37.2764 165.368 37.5055 166.156 37.2103C166.852 36.9606 167.34 36.2503 167.327 35.5114C167.334 30.1689 167.324 24.8257 167.332 19.4838C167.314 19.2468 167.539 19.0508 167.77 19.0733C168.38 19.069 168.991 19.065 169.601 19.0749C169.856 19.069 170.031 19.3245 170 19.5633C169.997 24.9397 170.006 30.316 169.996 35.6922C169.997 37.1252 169.409 38.6843 168.083 39.3854C166.451 40.2311 164.433 40.0518 162.819 39.2408C161.423 38.5438 160.09 37.7212 158.719 36.9746C157.766 36.4813 157.107 35.4503 157.113 34.3697V18.0794C157.103 17.0195 157.73 15.9984 158.659 15.4982C163.434 12.8034 168.209 10.1063 172.983 7.41016Z" fill="#81CD39"/>
<path d="M177.15 18.6938C179.233 18.5596 181.463 18.6143 183.337 19.6404C184.788 20.4266 185.592 22.0768 185.618 23.6889C185.578 23.9062 185.35 24.0261 185.143 24.0112C184.538 24.0104 183.934 24.0195 183.33 24.0071C183.073 24.017 182.924 23.7808 182.892 23.5542C182.719 22.7827 182.298 22.0189 181.572 21.6467C180.457 21.0889 179.165 21.117 177.95 21.1286C177.063 21.1755 176.109 21.2525 175.357 21.7741C174.78 22.1693 174.605 22.9671 174.811 23.6096C175.005 24.0709 175.537 24.2198 175.973 24.357C178.483 25.0135 181.143 24.948 183.605 25.8119C184.624 26.164 185.621 26.8488 185.97 27.916C186.427 29.3465 186.227 31.056 185.209 32.2043C184.384 33.1492 183.182 33.6636 181.983 33.9429C180.388 34.2986 178.733 34.3077 177.113 34.1497C175.59 33.9761 174.005 33.576 172.83 32.5384C171.825 31.6654 171.334 30.3052 171.382 28.9926C171.394 28.7708 171.615 28.6162 171.827 28.6344C172.435 28.6295 173.044 28.6278 173.652 28.6353C173.896 28.6179 174.076 28.828 174.088 29.0571C174.2 29.7919 174.477 30.5633 175.118 30.9989C176.354 31.7969 177.906 31.7422 179.322 31.7645C180.496 31.7125 181.813 31.6968 182.77 30.9213C183.275 30.479 183.425 29.739 183.288 29.1025C183.14 28.565 182.578 28.3146 182.095 28.1508C179.618 27.3671 176.928 27.6515 174.474 26.7651C173.478 26.4131 172.515 25.7475 172.132 24.7241C171.598 23.2756 171.843 21.4839 172.967 20.3746C174.063 19.2708 175.646 18.8457 177.15 18.6938Z" fill="#81CD39"/>
<path d="M83.7875 7H63.3626C58.3859 7 54.3516 11.0344 54.3516 16.011V36.4359C54.3516 41.4125 58.3859 45.4469 63.3626 45.4469H83.7875C88.7641 45.4469 92.7985 41.4125 92.7985 36.4359V16.011C92.7985 11.0344 88.7641 7 83.7875 7Z" fill="#242938"/>
<path d="M88.5933 34.474C88.1561 34.6396 87.6734 34.6393 87.2364 34.4731C86.7994 34.3069 86.4384 33.9864 86.2217 33.5722C84.8606 31.5346 83.3576 29.589 81.913 27.6016L81.2866 26.7666C79.5664 29.0713 77.8462 31.2841 76.2763 33.5806C76.0718 33.9765 75.7304 34.2846 75.3156 34.4474C74.9008 34.6103 74.441 34.6168 74.0218 34.4657L80.4766 25.8063L74.4726 17.9818C74.9048 17.8257 75.3776 17.8236 75.8112 17.9757C76.2448 18.1278 76.6126 18.4249 76.8526 18.8168C78.247 20.8545 79.7919 22.8001 81.3283 24.8627C82.8733 22.8168 84.4014 20.8627 85.8293 18.8419C86.0349 18.4524 86.3766 18.1521 86.7892 17.9981C87.2018 17.8441 87.6567 17.8473 88.0672 18.0069L85.7374 21.0966C84.6936 22.4744 83.6665 23.8606 82.581 25.205C82.4935 25.2833 82.4235 25.3792 82.3755 25.4864C82.3276 25.5936 82.3028 25.7097 82.3028 25.8271C82.3028 25.9446 82.3276 26.0607 82.3755 26.1679C82.4235 26.2751 82.4935 26.371 82.581 26.4493C84.5768 29.0964 86.5558 31.7518 88.5933 34.474ZM58.5566 25.6977C58.7321 24.8627 58.8405 23.9525 59.0827 23.1008C60.5273 17.9653 66.4144 15.8274 70.4644 19.009C72.8359 20.8713 73.4288 23.51 73.312 26.4828H59.9512C59.7341 31.7937 63.5669 35.0002 68.4686 33.3635C69.2637 33.0791 69.9755 32.6011 70.5397 31.9728C71.1039 31.3444 71.5027 30.5855 71.7002 29.7644C71.9591 28.9294 72.3767 28.7875 73.1699 29.0296C73.0393 30.0462 72.6799 31.0199 72.1187 31.8776C71.5575 32.7353 70.8092 33.4546 69.93 33.9814C68.4774 34.7758 66.8107 35.0906 65.1684 34.8806C63.5261 34.6706 61.9923 33.9467 60.7863 32.8124C59.5931 31.4708 58.8717 29.7757 58.7321 27.9858C58.7321 27.7019 58.6235 27.4179 58.5651 27.1508C58.5595 26.6664 58.5567 26.1821 58.5566 25.6977ZM59.9679 25.3387H72.0511C71.9758 21.4892 69.5458 18.7585 66.3059 18.7336C62.6985 18.6834 60.1182 21.3555 59.9595 25.322L59.9679 25.3387Z" fill="white"/>
<path fill-rule="evenodd" clip-rule="evenodd" d="M30.2695 19.5842C30.7774 21.0523 31.1425 22.5511 31.2629 24.104C31.4119 26.0311 31.344 27.945 30.9376 29.8402L30.8854 29.9917C30.7579 29.9921 30.628 29.976 30.5034 29.9955C29.4509 30.161 28.3995 30.3324 27.3478 30.5029C26.2605 30.6792 25.1724 30.8485 24.0871 31.0364C23.7026 31.1026 23.2266 31.0236 23.0714 31.555L22.9969 31.5803L23.0495 28.4024L22.9961 20.7345L23.5027 20.6475C24.3309 20.5122 25.1591 20.3744 25.9886 20.2423C26.9778 20.0855 27.9679 19.9323 28.9579 19.7792C29.395 19.7121 29.8325 19.6496 30.2695 19.5842Z" fill="#439934"/>
<path fill-rule="evenodd" clip-rule="evenodd" d="M21.9475 40.8448C21.4131 40.3854 20.8601 39.9462 20.3481 39.4628C17.5924 36.8635 15.5763 33.8035 14.5834 30.1145C14.3098 29.0996 14.1277 28.0677 14.0689 27.0189C14.0275 26.2846 13.9683 25.5442 14.0205 24.8136C14.1583 22.8712 14.4393 20.9474 15.0088 19.0762L15.0403 19.0327C15.0958 19.1064 15.1752 19.1718 15.2034 19.255C15.7597 20.8924 16.3114 22.5314 16.8606 24.1717C18.5862 29.3251 20.3097 34.4799 22.0381 39.6325C22.072 39.7331 22.1594 39.8154 22.2223 39.9061L21.9475 40.8448Z" fill="#45A538"/>
<path fill-rule="evenodd" clip-rule="evenodd" d="M30.2637 19.5839C29.8262 19.6489 29.3887 19.7118 28.952 19.7788C27.962 19.932 26.9719 20.0851 25.9827 20.242C25.1537 20.3736 24.3255 20.5114 23.4969 20.6472L22.9902 20.7341L22.9861 20.4038C22.9691 20.1323 22.941 19.8608 22.9373 19.5893L22.8806 14.3932C22.8673 13.3092 22.8474 12.2252 22.8255 11.1416C22.8143 10.4681 22.7949 9.79475 22.7671 9.12174C22.7506 8.7604 22.6922 8.40072 22.6691 8.03939C22.6554 7.83161 22.6736 7.62218 22.6782 7.41357C22.9364 7.91398 23.1893 8.41811 23.4546 8.91479C23.8739 9.69995 24.5424 10.2786 25.1446 10.9098C27.5229 13.406 29.2111 16.3066 30.2637 19.5839Z" fill="#46A037"/>
<path fill-rule="evenodd" clip-rule="evenodd" d="M22.9972 31.5808L23.0717 31.5555C23.2269 31.0241 23.7029 31.1031 24.0874 31.0369C25.1726 30.849 26.2608 30.6797 27.3481 30.5034C28.3998 30.3333 29.4511 30.1619 30.5037 29.9959C30.6282 29.9765 30.7582 29.9926 30.8857 29.9922C30.6891 30.6942 30.5343 31.4115 30.2847 32.094C30.0012 32.868 29.6585 33.6238 29.2947 34.3647C28.7497 35.4695 28.0754 36.5057 27.286 37.4515C26.6792 38.1808 26.0029 38.8559 25.3254 39.5218C24.9504 39.8898 24.5092 40.1899 24.0977 40.521L23.991 40.4481L23.6073 40.1203L23.2103 39.2495C22.9391 38.234 22.7911 37.1895 22.7695 36.1386L22.777 35.9615L22.8312 35.1941C22.849 34.9321 22.873 34.6705 22.8842 34.4085C22.9239 33.4665 22.9595 32.5236 22.9972 31.5808Z" fill="#409433"/>
<path fill-rule="evenodd" clip-rule="evenodd" d="M22.9965 31.5801C22.9592 32.523 22.9236 33.4662 22.8835 34.4091C22.8723 34.6715 22.8487 34.9331 22.8305 35.1947L22.5888 35.2861C22.0515 33.7046 21.5139 32.1397 20.9882 30.571C20.1186 27.9754 19.2598 25.3762 18.3914 22.7798C17.6902 20.6843 16.9841 18.5905 16.2731 16.4984C16.2395 16.4007 16.1443 16.3238 16.0781 16.2373L17.6261 13.3909C17.6795 13.4832 17.7495 13.5697 17.783 13.669C18.499 15.7882 19.2138 17.9078 19.9224 20.0294C20.8446 22.7901 21.7605 25.5521 22.6819 28.3132C22.7187 28.4233 22.7792 28.5251 22.8371 28.6489L23.049 28.4022L22.9965 31.5801Z" fill="#4FAA41"/>
<path fill-rule="evenodd" clip-rule="evenodd" d="M16.068 16.2371C16.1346 16.3236 16.2298 16.4006 16.2629 16.4982C16.974 18.5903 17.6801 20.6841 18.3812 22.7796C19.2496 25.376 20.1084 27.9752 20.978 30.5708C21.5037 32.1395 22.0413 33.704 22.5786 35.286L22.8203 35.1945L22.7661 35.9619L22.7168 36.1386C22.6328 36.9784 22.562 37.8198 22.4594 38.658C22.4081 39.0781 22.2984 39.4903 22.2152 39.9059C22.1527 39.8153 22.0649 39.7329 22.031 39.6323C20.3021 34.4797 18.5791 29.325 16.8535 24.1715C16.3045 22.5315 15.7521 20.8926 15.1963 19.2548C15.1681 19.1716 15.0887 19.1062 15.0332 19.0325L16.068 16.2371Z" fill="#4AA73C"/>
<path fill-rule="evenodd" clip-rule="evenodd" d="M23.0479 28.4025L22.836 28.6492C22.778 28.5254 22.7176 28.4236 22.6808 28.3135C21.7594 25.5524 20.8435 22.7905 19.9213 20.0297C19.2119 17.9084 18.4987 15.7882 17.7819 13.6694C17.7483 13.57 17.6784 13.4835 17.625 13.3912L19.5393 10.873C19.5997 10.9533 19.6858 11.0249 19.7168 11.1156C20.2483 12.6719 20.7748 14.2294 21.2988 15.7881C21.788 17.2442 22.2698 18.702 22.7648 20.1556C22.7979 20.2528 22.9134 20.3215 22.9904 20.4043L22.9945 20.7346L23.0479 28.4025Z" fill="#57AE47"/>
<path fill-rule="evenodd" clip-rule="evenodd" d="M22.9882 20.4037C22.9108 20.3214 22.7957 20.2526 22.7626 20.155C22.268 18.7013 21.7858 17.2436 21.2966 15.7875C20.773 14.2287 20.2457 12.6712 19.7147 11.115C19.6836 11.0243 19.5975 10.9527 19.5371 10.8724C20.1596 10.2628 20.7627 9.63116 21.4104 9.04963C21.9862 8.53308 22.4489 7.97929 22.4704 7.16266L22.5159 7L22.6798 7.41307C22.6757 7.62168 22.6571 7.83111 22.6707 8.03889C22.6943 8.40022 22.7527 8.7599 22.7688 9.12123C22.799 9.79382 22.8135 10.4676 22.8272 11.1411C22.8491 12.2247 22.869 13.3087 22.8822 14.3927L22.9389 19.5887C22.9431 19.8607 22.9716 20.1322 22.9882 20.4037Z" fill="#60B24F"/>
<path fill-rule="evenodd" clip-rule="evenodd" d="M22.2245 39.9059C22.3077 39.4903 22.4173 39.0781 22.4687 38.658C22.5713 37.8202 22.6421 36.9784 22.7261 36.1386L22.7472 36.1353L22.7679 36.139C22.7895 37.1899 22.9375 38.2343 23.2087 39.2498C23.1528 39.3235 23.0746 39.3885 23.0448 39.4713C22.8151 40.1195 22.5982 40.773 22.3673 41.4208C22.3358 41.5093 22.2472 41.5784 22.1856 41.6558L21.9492 40.8446L22.2245 39.9059Z" fill="#A9AA88"/>
<path fill-rule="evenodd" clip-rule="evenodd" d="M22.1895 41.656C22.2511 41.5782 22.3397 41.5095 22.3712 41.4209C22.6021 40.7732 22.819 40.1196 23.0487 39.4714C23.0781 39.3887 23.1567 39.3237 23.2126 39.25L23.6095 40.1208C23.5313 40.2318 23.4229 40.3323 23.3794 40.4561L22.6195 42.6878C22.588 42.7777 22.4817 42.8406 22.4096 42.9163L22.1895 41.656Z" fill="#B6B598"/>
<path fill-rule="evenodd" clip-rule="evenodd" d="M22.4062 42.9161C22.4779 42.8403 22.5846 42.7774 22.6161 42.6876L23.376 40.4559C23.4191 40.3321 23.5279 40.2315 23.6061 40.1206L23.9902 40.448C23.8048 40.6314 23.7018 40.8433 23.7638 41.1111L23.6471 41.4931C23.5941 41.5585 23.5172 41.6156 23.4911 41.6905C23.2258 42.4504 22.9729 43.2145 22.7055 43.974C22.6716 44.07 22.5776 44.1458 22.5118 44.231L22.4062 42.9161Z" fill="#C2C1A7"/>
<path fill-rule="evenodd" clip-rule="evenodd" d="M22.507 44.2301C22.5732 44.1449 22.6671 44.0691 22.7007 43.9731C22.968 43.2136 23.2214 42.4495 23.4862 41.6896C23.5123 41.6147 23.5893 41.558 23.6423 41.4922L23.4813 43.2455C23.4382 43.2951 23.3761 43.3386 23.3555 43.3961L22.8199 44.9309C22.7822 45.0356 22.7102 45.1291 22.6539 45.2272C22.6038 45.1618 22.5144 45.0985 22.5103 45.0306C22.4945 44.7649 22.5057 44.4971 22.507 44.2301Z" fill="#CECDB7"/>
<path fill-rule="evenodd" clip-rule="evenodd" d="M22.6582 45.2283C22.7145 45.1302 22.7865 45.0367 22.8242 44.932L23.3598 43.3972C23.3805 43.3393 23.443 43.2962 23.4856 43.2466L23.4897 44.3972L23.1044 45.3852L22.6582 45.2283Z" fill="#DBDAC7"/>
<path fill-rule="evenodd" clip-rule="evenodd" d="M23.0977 45.3847L23.483 44.3967L23.5625 45.5656L23.0977 45.3847Z" fill="#EBE9DC"/>
<path fill-rule="evenodd" clip-rule="evenodd" d="M23.7621 41.1108C23.7004 40.8434 23.8031 40.6315 23.9885 40.4478L24.0953 40.5206L23.7621 41.1108Z" fill="#CECDB7"/>
<path fill-rule="evenodd" clip-rule="evenodd" d="M22.7669 36.141L22.746 36.1373L22.7246 36.1406L22.7744 35.9619L22.7669 36.141Z" fill="#4FAA41"/>
<path d="M124.644 9.60229L108.088 15.5067L110.613 37.3973L124.644 45.1686L138.675 37.3973L141.2 15.5064L124.644 9.60229Z" fill="#DD0031"/>
<path d="M124.643 9.60229V13.5503V13.5326V45.1686L138.674 37.3973L141.199 15.5064L124.643 9.60229Z" fill="#C3002F"/>
<path d="M124.642 13.5325L114.293 36.739H118.152L120.231 31.5459H129.016L131.097 36.7394H134.956L124.642 13.5325ZM127.665 28.345H121.619L124.642 21.0718L127.665 28.345Z" fill="white"/>
<path d="M15.1705 58.8182H18.9545L27.8523 80.5511H28.1591L37.0568 58.8182H40.8409V85H37.875V65.108H37.6193L29.4375 85H26.5739L18.392 65.108H18.1364V85H15.1705V58.8182ZM72.3978 85V58.8182H88.1989V61.6307H75.5683V70.4773H87.3808V73.2898H75.5683V82.1875H88.4035V85H72.3978ZM120.187 85H116.863L126.477 58.8182H129.75L139.363 85H136.04L128.216 62.9602H128.011L120.187 85ZM121.415 74.7727H134.812V77.5852H121.415V74.7727ZM189.403 58.8182V85H186.335L172.068 64.4432H171.812V85H168.642V58.8182H171.71L186.028 79.4261H186.284V58.8182H189.403Z" fill="black"/>
</svg>
