<svg width="100" height="100" viewBox="0 0 100 100" fill="none" xmlns="http://www.w3.org/2000/svg">
<g clip-path="url(#clip0_526_302)">
<path d="M90.8594 69.6094H9.14062C4.0625 69.6094 0 65.5469 0 60.4688V29.2188C0 24.2188 4.0625 20.1562 9.14062 20.1562H90.9375C95.9375 20.1562 100.078 24.2188 100.078 29.2969V60.5469C100 65.5469 95.9375 69.6094 90.8594 69.6094Z" fill="#7F54B3"/>
<path d="M10.7812 59.9219C10.7812 59.9219 12.9687 69.1407 17.4219 62.9688C21.875 56.7969 26.1719 47.1094 26.1719 47.1094C26.1719 47.1094 26.4844 44.6875 27.7344 50C28.9844 55.3125 34.375 62.5 34.375 62.5C34.375 62.5 39.2969 68.6719 41.3281 62.1875C40.5469 53.5938 43.5156 37.9688 46.5625 30.4688C47.8125 23.8282 40.8594 25.7032 40.2344 27.2657C39.6094 28.8282 35.3125 38.8282 35 49.2969C35 49.2969 31.3281 39.2969 31.0156 35.7032C30.7031 32.0313 26.875 31.0938 24.6875 34.6094C22.5 38.125 15.8594 51.7188 15.8594 51.7188L11.5625 29.5313C11.5625 29.5313 7.26562 23.8282 4.76562 30.7813C4.76562 30.7813 9.21875 58.0469 10.7812 59.9219ZM67.9688 35.7032C61.3281 24.6094 51.4844 33.0469 51.4844 33.0469C51.4844 33.0469 43.9844 41.7188 47.3438 53.5157C52.7344 65.1563 60.3125 60 62.3438 59.0625C64.4531 58.0469 73.3594 47.8907 67.9688 35.7032ZM62.8906 45.4688C62.8906 50.0782 59.0625 54.375 55.9375 53.4375C54.2188 52.4219 53.125 49.6875 53.125 45C54.6875 37.4219 58.125 36.4063 59.9219 36.5625C63.2812 38.3594 63.125 42.3438 62.8906 45.4688ZM92.8906 35.7032C86.25 24.6094 76.4062 33.0469 76.4062 33.0469C76.4062 33.0469 68.9062 41.7188 72.2656 53.5157C77.6562 65.1563 85.2344 60 87.2656 59.0625C89.2969 58.0469 98.2812 47.8907 92.8906 35.7032ZM87.8125 45.4688C87.8125 50.0782 83.9844 54.375 80.8594 53.4375C79.1406 52.4219 78.0469 49.6875 78.0469 45C79.6094 37.4219 83.0469 36.4063 84.8438 36.5625C88.125 38.3594 87.9688 42.3438 87.8125 45.4688Z" fill="white"/>
<path d="M47.8906 69.6094L65.3125 79.8437L61.6406 69.6094L51.6406 66.7969L47.8906 69.6094Z" fill="#7F54B3"/>
</g>
<defs>
<clipPath id="clip0_526_302">
<rect width="100" height="100" fill="white"/>
</clipPath>
</defs>
</svg>
