<svg width="207" height="100" viewBox="0 0 207 100" fill="none" xmlns="http://www.w3.org/2000/svg">
<g clip-path="url(#clip0_577_8)">
<path d="M16.1705 65.8182H19.9545L28.8523 87.5511H29.1591L38.0568 65.8182H41.8409V92H38.875V72.108H38.6193L30.4375 92H27.5739L19.392 72.108H19.1364V92H16.1705V65.8182ZM73.3978 92V65.8182H89.1989V68.6307H76.5683V77.4773H88.3808V80.2898H76.5683V89.1875H89.4035V92H73.3978ZM121.187 65.8182L128.96 87.858H129.267L137.04 65.8182H140.363L130.75 92H127.477L117.863 65.8182H121.187ZM190.403 65.8182V92H187.335L173.068 71.4432H172.812V92H169.642V65.8182H172.71L187.028 86.4261H187.284V65.8182H190.403Z" fill="black"/>
<path d="M144.106 14H152.883L130.941 51.8488L109 14H125.785L130.941 22.7765L135.988 14H144.106Z" fill="#41B883"/>
<path d="M109 14L130.941 51.8488L152.883 14H144.106L130.941 36.7093L117.667 14H109Z" fill="#41B883"/>
<path d="M117.666 14L130.941 36.819L144.105 14H135.987L130.941 22.7765L125.784 14H117.666Z" fill="#2E4A60"/>
<path d="M178.779 14.4078C179.727 13.8653 180.962 13.8628 181.909 14.4078C186.673 17.1001 191.439 19.7879 196.202 22.4817C197.099 22.9864 197.698 23.9835 197.689 25.0159V41.2127C197.695 42.2879 197.037 43.3089 196.092 43.802C191.343 46.4795 186.596 49.1599 181.849 51.8374C180.881 52.3904 179.622 52.3479 178.685 51.7493C177.261 50.9241 175.835 50.1027 174.411 49.2783C174.12 49.1048 173.792 48.9668 173.587 48.6847C173.768 48.44 174.093 48.4095 174.357 48.3025C174.951 48.1135 175.497 47.8102 176.043 47.5159C176.181 47.4214 176.349 47.4577 176.482 47.5421C177.699 48.2401 178.906 48.9586 180.127 49.6498C180.388 49.8003 180.652 49.6005 180.875 49.4764C185.534 46.8425 190.2 44.2189 194.859 41.5843C195.032 41.5012 195.127 41.3179 195.113 41.1289C195.117 35.7858 195.114 30.442 195.115 25.0987C195.135 24.8844 195.011 24.6871 194.817 24.5992C190.084 21.9342 185.354 19.2652 180.623 16.5996C180.541 16.5432 180.444 16.5129 180.345 16.5127C180.245 16.5126 180.148 16.5425 180.066 16.5986C175.334 19.2652 170.605 21.9369 165.874 24.6015C165.68 24.6896 165.551 24.8837 165.574 25.0987C165.575 30.442 165.574 35.7858 165.574 41.1296C165.565 41.222 165.586 41.3146 165.632 41.395C165.678 41.4754 165.747 41.5398 165.831 41.5794C167.094 42.2954 168.358 43.0063 169.621 43.7199C170.333 44.1029 171.207 44.3307 171.991 44.0372C172.683 43.7889 173.168 43.0826 173.155 42.348C173.162 37.0362 173.152 31.7236 173.16 26.4123C173.143 26.1766 173.366 25.9818 173.596 26.0041C174.202 25.9999 174.81 25.9958 175.416 26.0057C175.67 25.9999 175.844 26.2539 175.813 26.4913C175.81 31.8369 175.819 37.1824 175.809 42.5278C175.81 43.9526 175.225 45.5028 173.907 46.1998C172.284 47.0406 170.277 46.8624 168.673 46.0561C167.285 45.363 165.96 44.5452 164.596 43.8028C163.649 43.3124 162.993 42.2873 163 41.2129V25.0159C162.99 23.9621 163.613 22.9469 164.537 22.4495C169.285 19.7701 174.032 17.0885 178.779 14.4078Z" fill="#81CD39"/>
<path d="M182.924 25.6268C184.995 25.4934 187.212 25.5478 189.075 26.568C190.518 27.3497 191.318 28.9905 191.343 30.5933C191.303 30.8093 191.077 30.9286 190.87 30.9138C190.27 30.913 189.669 30.9221 189.068 30.9097C188.813 30.9196 188.665 30.6846 188.633 30.4594C188.46 29.6923 188.042 28.9329 187.32 28.5628C186.212 28.0082 184.927 28.0361 183.719 28.0477C182.837 28.0943 181.888 28.1709 181.141 28.6895C180.567 29.0824 180.393 29.8756 180.598 30.5145C180.791 30.9731 181.32 31.1211 181.754 31.2576C184.249 31.9103 186.894 31.8452 189.342 32.7041C190.355 33.0543 191.346 33.7351 191.693 34.7962C192.147 36.2185 191.948 37.9182 190.936 39.0599C190.116 39.9994 188.921 40.5109 187.729 40.7886C186.143 41.1422 184.497 41.1513 182.887 40.9942C181.373 40.8215 179.797 40.4238 178.628 39.3921C177.629 38.5241 177.14 37.1717 177.189 35.8666C177.2 35.6461 177.42 35.4923 177.631 35.5105C178.236 35.5056 178.841 35.5039 179.446 35.5114C179.688 35.4941 179.867 35.703 179.88 35.9308C179.991 36.6614 180.266 37.4284 180.903 37.8614C182.132 38.6548 183.675 38.6005 185.083 38.6226C186.25 38.571 187.559 38.5554 188.511 37.7843C189.013 37.3445 189.162 36.6087 189.027 35.9759C188.88 35.4415 188.32 35.1925 187.84 35.0296C185.377 34.2505 182.703 34.5332 180.263 33.6519C179.273 33.3019 178.315 32.6401 177.934 31.6226C177.404 30.1824 177.647 28.401 178.765 27.298C179.855 26.2005 181.428 25.7779 182.924 25.6268Z" fill="#81CD39"/>
<path d="M88.2672 14H67.9594C63.0112 14 59 18.0112 59 22.9594V43.2672C59 48.2153 63.0112 52.2266 67.9594 52.2266H88.2672C93.2153 52.2266 97.2266 48.2153 97.2266 43.2672V22.9594C97.2266 18.0112 93.2153 14 88.2672 14Z" fill="#242938"/>
<path d="M93.0462 41.3167C92.6115 41.4814 92.1315 41.4811 91.697 41.3158C91.2626 41.1506 90.9037 40.8319 90.6882 40.4201C89.3349 38.3942 87.8405 36.4597 86.4041 34.4837L85.7813 33.6535C84.071 35.945 82.3606 38.1451 80.7998 40.4284C80.5965 40.8221 80.257 41.1284 79.8446 41.2903C79.4322 41.4522 78.975 41.4587 78.5581 41.3085L84.976 32.6987L79.0064 24.919C79.4361 24.7639 79.9062 24.7617 80.3373 24.913C80.7684 25.0642 81.1342 25.3596 81.3727 25.7493C82.7592 27.7753 84.2953 29.7097 85.8228 31.7605C87.3589 29.7263 88.8783 27.7835 90.298 25.7742C90.5025 25.3869 90.8421 25.0884 91.2524 24.9353C91.6627 24.7822 92.1149 24.7853 92.5231 24.944L90.2066 28.016C89.1688 29.3859 88.1476 30.7641 87.0683 32.1009C86.9813 32.1787 86.9117 32.274 86.864 32.3806C86.8163 32.4872 86.7917 32.6027 86.7917 32.7194C86.7917 32.8362 86.8163 32.9516 86.864 33.0582C86.9117 33.1648 86.9813 33.2601 87.0683 33.338C89.0527 35.9699 91.0203 38.6101 93.0462 41.3167ZM63.1816 32.5908C63.356 31.7605 63.4639 30.8555 63.7047 30.0087C65.1411 24.9026 70.9943 22.777 75.0211 25.9404C77.3791 27.792 77.9686 30.4156 77.8524 33.3713H64.5682C64.3523 38.6518 68.1632 41.84 73.0368 40.2127C73.8274 39.9298 74.5351 39.4546 75.096 38.8298C75.657 38.2051 76.0535 37.4505 76.2499 36.6341C76.5073 35.8039 76.9225 35.6628 77.7112 35.9035C77.5813 36.9143 77.224 37.8825 76.666 38.7352C76.108 39.588 75.364 40.3032 74.4898 40.827C73.0455 41.6168 71.3884 41.9298 69.7556 41.721C68.1227 41.5123 66.5976 40.7925 65.3985 39.6646C64.2122 38.3308 63.4949 36.6454 63.356 34.8657C63.356 34.5835 63.2481 34.3011 63.19 34.0355C63.1845 33.5539 63.1817 33.0724 63.1816 32.5908ZM64.5848 32.2337H76.5987C76.5239 28.4063 74.1079 25.6913 70.8865 25.6665C67.2998 25.6167 64.7343 28.2734 64.5765 32.2172L64.5848 32.2337Z" fill="white"/>
<path fill-rule="evenodd" clip-rule="evenodd" d="M36.1751 26.5117C36.6801 27.9714 37.043 29.4615 37.1628 31.0056C37.3109 32.9217 37.2435 34.8246 36.8393 36.709L36.7875 36.8596C36.6607 36.86 36.5315 36.8439 36.4076 36.8633C35.3611 37.0279 34.3158 37.1983 33.2702 37.3678C32.1891 37.5431 31.1072 37.7114 30.0281 37.8983C29.6458 37.9641 29.1726 37.8855 29.0183 38.4139L28.9442 38.439L28.9964 35.2793L28.9434 27.6554L29.4471 27.5689C30.2705 27.4344 31.094 27.2973 31.9187 27.166C32.9023 27.0101 33.8866 26.8578 34.871 26.7055C35.3056 26.6389 35.7406 26.5767 36.1751 26.5117Z" fill="#439934"/>
<path fill-rule="evenodd" clip-rule="evenodd" d="M27.9019 47.6507C27.3706 47.1939 26.8208 46.7573 26.3118 46.2766C23.5718 43.6922 21.5673 40.6498 20.58 36.9819C20.308 35.9728 20.1269 34.9469 20.0685 33.904C20.0273 33.174 19.9685 32.4378 20.0203 31.7114C20.1574 29.7801 20.4368 27.8673 21.0031 26.0068L21.0343 25.9636C21.0895 26.0369 21.1685 26.1019 21.1965 26.1846C21.7496 27.8126 22.2981 29.4423 22.8442 31.0731C24.5599 36.1971 26.2735 41.3222 27.992 46.4453C28.0258 46.5453 28.1126 46.6272 28.1752 46.7174L27.9019 47.6507Z" fill="#45A538"/>
<path fill-rule="evenodd" clip-rule="evenodd" d="M36.1713 26.5117C35.7363 26.5763 35.3013 26.6388 34.8672 26.7055C33.8828 26.8578 32.8984 27.01 31.9149 27.166C31.0906 27.2969 30.2671 27.4339 29.4433 27.5689L28.9395 27.6553L28.9354 27.3269C28.9186 27.057 28.8906 26.787 28.8869 26.517L28.8305 21.3507C28.8173 20.2729 28.7976 19.1951 28.7758 18.1178C28.7646 17.4481 28.7453 16.7787 28.7177 16.1095C28.7013 15.7502 28.6432 15.3926 28.6202 15.0334C28.6066 14.8268 28.6247 14.6185 28.6293 14.4111C28.886 14.9087 29.1375 15.4099 29.4013 15.9037C29.8182 16.6844 30.4828 17.2597 31.0815 17.8873C33.4462 20.3692 35.1248 23.2532 36.1713 26.5117Z" fill="#46A037"/>
<path fill-rule="evenodd" clip-rule="evenodd" d="M28.9451 38.4393L29.0192 38.4142C29.1735 37.8858 29.6467 37.9644 30.0291 37.8986C31.1081 37.7117 32.19 37.5434 33.2711 37.3681C34.3168 37.199 35.362 37.0286 36.4086 36.8636C36.5324 36.8442 36.6616 36.8603 36.7884 36.8599C36.5929 37.5578 36.439 38.271 36.1909 38.9496C35.909 39.7192 35.5682 40.4706 35.2065 41.2072C34.6646 42.3057 33.9942 43.336 33.2093 44.2764C32.606 45.0015 31.9336 45.6727 31.2599 46.3349C30.8871 46.7007 30.4484 46.9991 30.0393 47.3283L29.9332 47.2559L29.5517 46.9299L29.157 46.0641C28.8874 45.0544 28.7402 44.0159 28.7188 42.971L28.7262 42.7949L28.7801 42.0319C28.7978 41.7714 28.8216 41.5114 28.8327 41.2509C28.8722 40.3142 28.9076 39.3768 28.9451 38.4393Z" fill="#409433"/>
<path fill-rule="evenodd" clip-rule="evenodd" d="M28.9431 38.439C28.9061 39.3764 28.8707 40.3143 28.8308 41.2518C28.8197 41.5127 28.7962 41.7728 28.7781 42.0329L28.5378 42.1238C28.0036 40.5514 27.469 38.9954 26.9464 37.4357C26.0818 34.855 25.2279 32.2706 24.3645 29.6891C23.6673 27.6057 22.9652 25.5239 22.2583 23.4438C22.2249 23.3466 22.1303 23.2701 22.0645 23.1841L23.6036 20.354C23.6567 20.4458 23.7262 20.5318 23.7595 20.6306C24.4715 22.7376 25.1822 24.845 25.8867 26.9545C26.8036 29.6994 27.7143 32.4455 28.6304 35.1908C28.667 35.3003 28.7271 35.4015 28.7847 35.5245L28.9954 35.2793L28.9431 38.439Z" fill="#4FAA41"/>
<path fill-rule="evenodd" clip-rule="evenodd" d="M22.0581 23.1841C22.1244 23.2701 22.219 23.3466 22.2519 23.4438C22.9589 25.5239 23.661 27.6057 24.3581 29.6891C25.2215 32.2706 26.0754 34.855 26.9401 37.4357C27.4627 38.9954 27.9973 40.551 28.5314 42.1238L28.7718 42.0329L28.7179 42.7958L28.6689 42.9716C28.5854 43.8065 28.515 44.6432 28.4129 45.4765C28.3619 45.8942 28.2528 46.3041 28.1701 46.7173C28.108 46.6272 28.0207 46.5453 27.987 46.4453C26.268 41.3222 24.5549 36.197 22.8392 31.0731C22.2933 29.4424 21.7441 27.8129 21.1914 26.1845C21.1635 26.1018 21.0844 26.0368 21.0293 25.9635L22.0581 23.1841Z" fill="#4AA73C"/>
<path fill-rule="evenodd" clip-rule="evenodd" d="M28.9953 35.2796L28.7846 35.5249C28.727 35.4018 28.6669 35.3006 28.6303 35.1911C27.7143 32.4458 26.8036 29.6997 25.8867 26.9548C25.1813 24.8456 24.4722 22.7376 23.7595 20.6309C23.7261 20.5321 23.6566 20.4461 23.6035 20.3543L25.5068 17.8506C25.5669 17.9304 25.6525 18.0016 25.6834 18.0917C26.2118 19.6391 26.7352 21.1877 27.2562 22.7375C27.7427 24.1852 28.2217 25.6346 28.7139 27.0799C28.7468 27.1766 28.8616 27.2449 28.9381 27.3272L28.9423 27.6556L28.9953 35.2796Z" fill="#57AE47"/>
<path fill-rule="evenodd" clip-rule="evenodd" d="M28.9372 27.3269C28.8602 27.245 28.7458 27.1767 28.7129 27.0796C28.2211 25.6343 27.7417 24.1849 27.2553 22.7371C26.7347 21.1873 26.2104 19.6387 25.6824 18.0914C25.6515 18.0013 25.5659 17.9301 25.5059 17.8503C26.1248 17.2441 26.7244 16.6161 27.3684 16.0379C27.9409 15.5243 28.401 14.9737 28.4224 14.1617L28.4676 14L28.6306 14.4107C28.6265 14.6181 28.608 14.8263 28.6215 15.0329C28.645 15.3922 28.703 15.7498 28.7191 16.1091C28.7491 16.7778 28.7635 17.4478 28.7771 18.1173C28.7989 19.1947 28.8187 20.2725 28.8318 21.3503L28.8882 26.5166C28.8923 26.787 28.9207 27.0569 28.9372 27.3269Z" fill="#60B24F"/>
<path fill-rule="evenodd" clip-rule="evenodd" d="M28.178 46.717C28.2607 46.3039 28.3697 45.894 28.4208 45.4763C28.5228 44.6433 28.5932 43.8063 28.6767 42.9713L28.6977 42.968L28.7183 42.9717C28.7398 44.0166 28.8869 45.0551 29.1566 46.0648C29.101 46.138 29.0232 46.2026 28.9936 46.2849C28.7652 46.9294 28.5496 47.5792 28.3199 48.2232C28.2887 48.3113 28.2006 48.38 28.1393 48.457L27.9043 47.6504L28.178 46.717Z" fill="#A9AA88"/>
<path fill-rule="evenodd" clip-rule="evenodd" d="M28.1406 48.4574C28.2019 48.38 28.29 48.3117 28.3213 48.2236C28.5509 47.5796 28.7666 46.9298 28.995 46.2854C29.0242 46.203 29.1024 46.1384 29.1579 46.0652L29.5526 46.931C29.4748 47.0413 29.367 47.1413 29.3238 47.2644L28.5682 49.4833C28.5369 49.5726 28.4312 49.6352 28.3596 49.7105L28.1406 48.4574Z" fill="#B6B598"/>
<path fill-rule="evenodd" clip-rule="evenodd" d="M28.3574 49.7101C28.4286 49.6348 28.5348 49.5723 28.5661 49.483L29.3216 47.264C29.3644 47.141 29.4727 47.041 29.5504 46.9307L29.9323 47.2562C29.748 47.4385 29.6455 47.6492 29.7072 47.9154L29.5912 48.2953C29.5385 48.3603 29.462 48.4171 29.436 48.4916C29.1722 49.2472 28.9208 50.0068 28.655 50.762C28.6212 50.8575 28.5278 50.9328 28.4624 51.0175L28.3574 49.7101Z" fill="#C2C1A7"/>
<path fill-rule="evenodd" clip-rule="evenodd" d="M28.4601 51.0167C28.5259 50.9319 28.6193 50.8566 28.6526 50.7611C28.9185 50.006 29.1704 49.2463 29.4337 48.4907C29.4597 48.4162 29.5362 48.3599 29.5889 48.2944L29.4288 50.0377C29.386 50.087 29.3243 50.1303 29.3037 50.1875L28.7712 51.7134C28.7337 51.8175 28.6621 51.9105 28.6061 52.0081C28.5564 51.943 28.4675 51.8801 28.4633 51.8126C28.4477 51.5484 28.4588 51.2821 28.4601 51.0167Z" fill="#CECDB7"/>
<path fill-rule="evenodd" clip-rule="evenodd" d="M28.6094 52.0095C28.6653 51.9119 28.7369 51.8189 28.7744 51.7148L29.3069 50.1889C29.3275 50.1312 29.3896 50.0884 29.432 50.0391L29.4361 51.1831L29.053 52.1654L28.6094 52.0095Z" fill="#DBDAC7"/>
<path fill-rule="evenodd" clip-rule="evenodd" d="M29.0469 52.1644L29.43 51.1821L29.509 52.3443L29.0469 52.1644Z" fill="#EBE9DC"/>
<path fill-rule="evenodd" clip-rule="evenodd" d="M29.7073 47.9151C29.646 47.6493 29.748 47.4386 29.9324 47.2559L30.0386 47.3283L29.7073 47.9151Z" fill="#CECDB7"/>
<path fill-rule="evenodd" clip-rule="evenodd" d="M28.7156 42.9729L28.6949 42.9692L28.6738 42.9725L28.723 42.7959L28.7156 42.9729Z" fill="#4FAA41"/>
</g>
<defs>
<clipPath id="clip0_577_8">
<rect width="206.73" height="100" fill="white"/>
</clipPath>
</defs>
</svg>
