<svg width="88" height="100" viewBox="0 0 88 100" fill="none" xmlns="http://www.w3.org/2000/svg">
<g clip-path="url(#clip0_526_315)">
<path d="M76.6356 19.6371C76.5668 19.1371 76.1287 18.8603 75.7668 18.8299C73.0976 18.6293 70.4283 18.4303 67.7589 18.2329C67.7589 18.2329 62.4483 12.9607 61.8654 12.3771C61.2822 11.7939 60.1431 11.9713 59.701 12.1014C59.6359 12.1206 58.5407 12.4586 56.7291 13.0192C54.9551 7.91445 51.8243 3.22335 46.3164 3.22335C46.1644 3.22335 46.0079 3.22952 45.8513 3.23842C44.2849 1.16685 42.3445 0.266846 40.6685 0.266846C27.838 0.266846 21.7082 16.3062 19.7863 24.4569C14.8007 26.0018 11.2589 27.1001 10.8065 27.2422C8.0236 28.1151 7.93559 28.2028 7.57018 30.8251C7.29518 32.8103 0.0136719 89.1216 0.0136719 89.1216L56.7527 99.7525L87.4959 93.1018C87.4959 93.1018 76.7034 20.1371 76.6356 19.6371ZM53.5931 13.9891L48.7921 15.4751C48.7938 15.1367 48.7955 14.8038 48.7955 14.4398C48.7955 11.2672 48.3551 8.71274 47.6486 6.68774C50.4866 7.0439 52.3767 10.273 53.5931 13.9891ZM44.1281 7.31685C44.9171 9.2939 45.4301 12.1312 45.4301 15.96C45.4301 16.1559 45.4284 16.335 45.4267 16.5162C42.3044 17.4833 38.9116 18.5333 35.5113 19.5867C37.4205 12.2182 40.9993 8.65931 44.1281 7.31685ZM40.3161 3.70828C40.8698 3.70828 41.4277 3.8963 41.9616 4.26376C37.8496 6.19869 33.4421 11.072 31.5808 20.8038L23.7431 23.2312C25.9233 15.8083 31.1003 3.70828 40.3161 3.70828Z" fill="#95BF46"/>
<path d="M75.7652 18.8298C73.096 18.6293 70.4267 18.4303 67.7573 18.2329C67.7573 18.2329 62.4467 12.9607 61.8638 12.3771C61.6457 12.16 61.3515 12.0487 61.044 12.0007L56.7539 99.7518L87.4943 93.1018C87.4943 93.1018 76.7019 20.137 76.634 19.637C76.5652 19.137 76.1272 18.8603 75.7652 18.8298Z" fill="#5E8E3E"/>
<path d="M46.3155 35.8167L42.5248 47.0927C42.5248 47.0927 39.2036 45.3201 35.1323 45.3201C29.1638 45.3201 28.8635 49.0656 28.8635 50.0095C28.8635 55.1595 42.2882 57.1328 42.2882 69.1958C42.2882 78.6865 36.2686 84.7978 28.1522 84.7978C18.4125 84.7978 13.4316 78.7362 13.4316 78.7362L16.0395 70.1198C16.0395 70.1198 21.1594 74.5153 25.4796 74.5153C28.3025 74.5153 29.4508 72.2927 29.4508 70.6687C29.4508 63.9509 18.4371 63.6513 18.4371 52.6126C18.4371 43.3218 25.1056 34.3311 38.5666 34.3311C43.7532 34.3311 46.3155 35.8167 46.3155 35.8167Z" fill="white"/>
</g>
<defs>
<clipPath id="clip0_526_315">
<rect width="87.6712" height="100" fill="white"/>
</clipPath>
</defs>
</svg>
