<svg width="97" height="100" viewBox="0 0 97 100" fill="none" xmlns="http://www.w3.org/2000/svg">
<g clip-path="url(#clip0_526_319)">
<path d="M96.9152 22.5834C96.9511 22.7163 96.9697 22.8534 96.9697 22.9913V44.4186C96.9697 44.9784 96.6705 45.4955 96.1845 45.7739L78.2008 56.1288V76.6516C78.2008 76.9262 78.1287 77.196 77.9916 77.4339C77.8545 77.6719 77.6573 77.8696 77.4197 78.0072L39.8788 99.6182C39.7928 99.6667 39.6992 99.6978 39.6053 99.7315C39.5701 99.7428 39.5371 99.7644 39.5 99.7743C39.2376 99.8434 38.9617 99.8434 38.6992 99.7743C38.6561 99.7629 38.617 99.739 38.5761 99.7235C38.4902 99.6921 38.4004 99.6648 38.3186 99.6182L0.785227 78.0069C0.54672 77.87 0.348538 77.6726 0.210674 77.4346C0.0728107 77.1967 0.000142183 76.9266 0 76.6516L0 12.3697C0 12.2288 0.019697 12.0921 0.0545455 11.9595C0.0662879 11.9144 0.0935606 11.8735 0.10947 11.8284C0.138636 11.7466 0.166288 11.6625 0.209091 11.5864C0.238258 11.5356 0.281061 11.4947 0.316288 11.4478C0.361364 11.3853 0.402273 11.3209 0.454924 11.2659C0.5 11.2213 0.558712 11.1879 0.60947 11.1489C0.666288 11.1019 0.716667 11.0512 0.781061 11.0141H0.782955L19.5504 0.208751C19.788 0.0719828 20.0574 0 20.3316 0C20.6058 0 20.8752 0.0719828 21.1129 0.208751L39.8803 11.0141H39.8841C39.9466 11.0534 39.9996 11.1019 40.0561 11.147C40.1068 11.186 40.1636 11.2213 40.2083 11.2644C40.2633 11.3209 40.3023 11.3856 40.3489 11.4478C40.3822 11.4947 40.4273 11.5356 40.4545 11.5864C40.4992 11.6644 40.5246 11.7466 40.5561 11.8288C40.5716 11.8735 40.5989 11.9144 40.6106 11.9614C40.6466 12.0944 40.6652 12.2319 40.6655 12.3697V52.519L56.3042 43.5141V22.9894C56.3042 22.8531 56.3239 22.7141 56.3591 22.5834C56.3727 22.5364 56.3981 22.4955 56.4136 22.4508C56.4451 22.3686 56.4723 22.2841 56.5151 22.2084C56.5443 22.1576 56.5871 22.1167 56.6208 22.0697C56.6674 22.0072 56.7064 21.9428 56.761 21.8879C56.8064 21.8432 56.8629 21.8099 56.9136 21.7709C56.9723 21.7239 57.0231 21.6731 57.0856 21.636H57.0875L75.8568 10.8307C76.0944 10.6938 76.3638 10.6217 76.6381 10.6217C76.9123 10.6217 77.1817 10.6938 77.4193 10.8307L96.1867 21.636C96.253 21.675 96.3038 21.7239 96.3625 21.7686C96.411 21.808 96.4678 21.8432 96.5129 21.886C96.5674 21.9428 96.6064 22.0072 96.653 22.0697C96.6886 22.1167 96.7314 22.1576 96.7591 22.2084C96.8038 22.2841 96.8292 22.3686 96.8602 22.4508C96.878 22.4955 96.9034 22.5364 96.9152 22.5834ZM93.8413 43.5144V25.6962L87.2735 29.4769L78.2004 34.7012V52.5194L93.8432 43.5144H93.8413ZM75.0739 75.7474V57.9167L66.1489 63.0141L40.6636 77.5595V95.5572L75.0739 75.7474ZM3.12841 15.0743V75.7474L37.5349 95.5557V77.5614L19.5606 67.3887L19.5549 67.3849L19.5473 67.3811C19.4867 67.3459 19.4356 67.2951 19.3792 67.2523C19.3299 67.2129 19.2735 67.1819 19.2307 67.1387L19.2269 67.133C19.1761 67.0841 19.1409 67.0235 19.0981 66.969C19.0587 66.9159 19.0121 66.8713 18.9807 66.8167L18.9788 66.8106C18.9436 66.7523 18.922 66.6819 18.8966 66.6156C18.8712 66.5569 18.8383 66.5019 18.8223 66.4398V66.4379C18.803 66.3637 18.7992 66.2853 18.7913 66.2091C18.7837 66.1508 18.7678 66.0921 18.7678 66.0334V24.0796L9.69621 18.8531L3.12841 15.0766V15.0743ZM20.3337 3.3686L4.69659 12.3697L20.3299 21.3705L35.9648 12.3675L20.3299 3.3686H20.3337ZM28.4655 59.5421L37.5367 54.3201V15.0743L30.9697 18.8553L21.8958 24.0792V63.3247L28.4655 59.5421ZM76.6379 13.9906L61.003 22.9913L76.6379 31.9925L92.2708 22.9894L76.6379 13.9906ZM75.0735 34.7012L66.0004 29.4769L59.433 25.6962V43.5144L68.5042 48.7368L75.0739 52.5194L75.0735 34.7012ZM39.0974 74.855L62.0303 61.7625L73.4939 55.2201L57.8705 46.225L39.8822 56.5811L23.4875 66.0197L39.0974 74.855Z" fill="#FF2D20"/>
</g>
<defs>
<clipPath id="clip0_526_319">
<rect width="96.9697" height="100" fill="white"/>
</clipPath>
</defs>
</svg>
