<svg xmlns="http://www.w3.org/2000/svg" viewBox="0 0 596 456"><defs><style>.cls-1,.cls-12,.cls-18,.cls-2,.cls-3{fill:#fff;}.cls-1{opacity:0.8;}.cls-3,.cls-4{fill-rule:evenodd;}.cls-12,.cls-5{font-size:84.57px;font-family:ACaslonPro-Bold, Adobe Caslon Pro;font-weight:700;}.cls-13,.cls-5{fill:none;stroke:#fff;stroke-miterlimit:10;}.cls-5{stroke-width:0.78px;}.cls-6{letter-spacing:-0.04em;}.cls-7{letter-spacing:0em;}.cls-8{letter-spacing:0.01em;}.cls-9{letter-spacing:-0.01em;}.cls-10{letter-spacing:-0.08em;}.cls-11{letter-spacing:0.01em;}.cls-13,.cls-18{font-size:63.94px;font-family:ACaslonPro-Regular, Adobe Caslon Pro;}.cls-13{stroke-width:0.34px;}.cls-14{letter-spacing:0.01em;}.cls-15{letter-spacing:0.01em;}.cls-16{letter-spacing:-0.01em;}.cls-17{letter-spacing:-0.01em;}</style></defs><g id="b"><rect class="cls-1" x="23.31" y="427.78" width="549.38" height="4.11"/><rect class="cls-2" x="270.25" width="7.76" height="7.32"/><path class="cls-3" d="M236.66,43.27h74.8S318.37,24.35,297.52,22c-10.79.14-20,13.26-34.4,4C246.07,14.42,231,31,236.66,43.27Z"/><path class="cls-3" d="M260.44,20.24s9.2-1.59,13.71-8.24c0,0,4.59,7.32,13.41,8C287.56,20,276.67,30.55,260.44,20.24Z"/><rect class="cls-2" x="239.42" y="45.61" width="69.16" height="8.32"/><polygon class="cls-3" points="244.07 56.02 244.07 95.94 304.76 95.94 304.76 56.02 299.1 56.02 299.1 91.61 250.42 91.61 250.42 56.01 244.07 56.02"/><path class="cls-3" d="M253.53,56V87s15.72-1.5,21.28-30.94Z"/><path class="cls-3" d="M296,56v30.5S280.36,85.45,274.81,56Z"/><path class="cls-3" d="M203.84,254.85h28.94S203.84,197,301.23,195c0,0,43,3.33,32.46,59.22h24.69s9-51.4-20.63-94.32c0,0,1.05-6.49,8.46,5.49l5.82,8,15.35-1s11.12,6.48,13.76,18c0,0,11.65,52.9,46.57,33.94l-.52-9.48s-32.29,20.45-29.64-40.93c0,0,23.28-76.85-47.11-69.86,0,0-109.55-11.48-127.54,3.49a54,54,0,0,0-20.77,20.47v0c-18.6,16-9.34,64.33-21,69.94-4.38-1.87-11,2.75-12.82,7.28,2.78,3.41,14.16.46,15.75-2.76,1.34-1.11,6.65-6.57,7.1-23.55,0,0,.42-18.69,5.28-26.19a50.81,50.81,0,0,0,.55,5.73s1.58,23.95,7.41,30.45C204.38,188.82,212.32,233.56,203.84,254.85Z"/><path class="cls-3" d="M233.12,220.58s14.83-8.32,20.47-12c0,0-3.17,29.27,7.77,39.59H237.71S239.48,233.56,233.12,220.58Z"/><path class="cls-3" d="M307.58,201s3.88,32.28-13.76,47.25h26.1s10.59-22.3,10.94-28.95C330.86,219.25,327.69,206.94,307.58,201Z"/><path class="cls-3" d="M401.1,152.3s.15-19.88-26.31-23.87c0,0-23,2.28-23.37-24.34.27-.22,6.54-1,14.29-.24,6,.6,13.36,1.86,20.77,7.31a27.8,27.8,0,0,1,3.33,2.84c.45.45.91.91,1.33,1.4s.82,1,1.28,1.51a28.74,28.74,0,0,1,4.7,7.9c.63,1.61,1.26,3.11,1.71,4.69.42,1.39.77,2.83,1.11,4.42.43,2,.74,4.45,1,6.5a48.54,48.54,0,0,1,.26,6.42A46.36,46.36,0,0,1,401.1,152.3Z"/><path class="cls-4" d="M354.85,105.14S369,111.46,375.32,107c0,0-11.11,8-.53,13.47,0,0,6.55,5,14.49-7,0,0-1.6,13.31,7.23,10,.24,0-5.67-13.51-20.83-17.69A43.38,43.38,0,0,0,354.85,105.14Z"/><path class="cls-4" d="M373.73,136.92s13.76-4,18,9.48h-3.45s-.52-8-13.23-6.74Z"/><path class="cls-3" d="M226.42,105.34V191s49.05-20.63,96.33,1.33V101.65c-1.44-.1-10.4-.67-22.6-1.32-16.17-.85-35.53-.45-37.84-.38s-5.45.24-7.81.36c-4.59.26-8.79.72-13.06,1.26a62.52,62.52,0,0,0-13.58,3.16c-.41.16-.78.32-1.19.5Z"/><path class="cls-4" d="M229.25,104.24,230,184s40.58-13.64,90,.67V101.46s-24.14-1.77-48.14-1.68C254.09,99.84,237.51,101.43,229.25,104.24Z"/><path class="cls-3" d="M239.13,101.93l-.35,70.42s44.46-8.32,71.26,0V100.86a479.6,479.6,0,0,0-50.05-.81A173.07,173.07,0,0,0,239.13,101.93Z"/><path class="cls-4" d="M257.48,120.45s17.28-2.33,16.93,23.62c0,0-11.64,3.33-12-8.65C262.42,135.42,263.83,125.44,257.48,120.45Z"/><path class="cls-4" d="M291.71,120.45s-17.29-2.33-16.94,23.62c0,0,11.64,3.33,12-8.65C286.77,135.42,285.35,125.44,291.71,120.45Z"/><polygon class="cls-4" points="274.76 112.56 268.24 119.06 275.12 125.1 281.52 118.84 274.76 112.56"/><path class="cls-4" d="M241.82,103.48v11.65S256.64,110.14,241.82,103.48Z"/><path class="cls-4" d="M241.82,122.11v11.65S256.64,128.77,241.82,122.11Z"/><path class="cls-4" d="M241.82,139.74v11.65S256.64,146.4,241.82,139.74Z"/><path class="cls-4" d="M307,103.48v11.65S292.18,110.14,307,103.48Z"/><path class="cls-4" d="M307,122.11v11.65S292.18,128.77,307,122.11Z"/><path class="cls-4" d="M307,139.74v11.65S292.18,146.4,307,139.74Z"/><path class="cls-4" d="M273.65,165.64H261.3S266.59,151.67,273.65,165.64Z"/><path class="cls-4" d="M289.18,165.64H276.82S282.11,151.67,289.18,165.64Z"/><path class="cls-4" d="M241.82,167.36s1.06-13,16.59-16.63C258.41,150.73,254.17,168.36,241.82,167.36Z"/><path class="cls-4" d="M290.42,150.72s4.24,17.64,16.58,16.64C307,167.36,306,154.38,290.42,150.72Z"/><text class="cls-5" transform="translate(22.3 340.21)">BH<tspan class="cls-6" x="131.76" y="0">A</tspan><tspan class="cls-7" x="189.53" y="0">G</tspan><tspan class="cls-8" x="260.57" y="0">I</tspan><tspan class="cls-9" x="296.51" y="0">R</tspan><tspan class="cls-10" x="357.83" y="0">A</tspan><tspan class="cls-11" x="411.95" y="0">T</tspan><tspan x="475.21" y="0">H</tspan></text><text class="cls-12" transform="translate(25.38 340.21)">BH<tspan class="cls-6" x="131.76" y="0">A</tspan><tspan class="cls-7" x="189.53" y="0">G</tspan><tspan class="cls-8" x="260.57" y="0">I</tspan><tspan class="cls-9" x="296.51" y="0">R</tspan><tspan class="cls-10" x="357.83" y="0">A</tspan><tspan class="cls-11" x="411.95" y="0">T</tspan><tspan x="475.21" y="0">H</tspan></text><text class="cls-13" transform="translate(23.97 411.07)"><tspan class="cls-14">T</tspan><tspan x="45.53" y="0">EC</tspan><tspan class="cls-15" x="137.35" y="0">H</tspan><tspan x="192.53" y="0">NO</tspan><tspan class="cls-16" x="295.86" y="0">L</tspan><tspan class="cls-14" x="337.42" y="0">O</tspan><tspan x="390.55" y="0">G</tspan><tspan class="cls-14" x="442.86" y="0">I</tspan><tspan class="cls-17" x="467.22" y="0">E</tspan><tspan x="510.38" y="0">S</tspan></text><text class="cls-18" transform="translate(27.27 411.07)"><tspan class="cls-14">T</tspan><tspan x="45.53" y="0">EC</tspan><tspan class="cls-15" x="137.35" y="0">H</tspan><tspan x="192.53" y="0">NO</tspan><tspan class="cls-16" x="295.86" y="0">L</tspan><tspan class="cls-14" x="337.42" y="0">O</tspan><tspan x="390.55" y="0">G</tspan><tspan class="cls-14" x="442.86" y="0">I</tspan><tspan class="cls-17" x="467.22" y="0">E</tspan><tspan x="510.38" y="0">S</tspan></text></g></svg>