<svg xmlns="http://www.w3.org/2000/svg" viewBox="0 0 884.23 718.36"><defs><style>.cls-1,.cls-11,.cls-19,.cls-3{fill:#08346c;}.cls-2{fill:#00a3d4;}.cls-2,.cls-3,.cls-4{fill-rule:evenodd;}.cls-4{fill:#fff;}.cls-11,.cls-5{font-size:135.37px;}.cls-12,.cls-5{fill:none;stroke:#08346c;stroke-miterlimit:10;}.cls-5{stroke-width:1.23px;}.cls-11,.cls-12,.cls-19,.cls-5{font-family:ACaslonPro-Bold, Adobe Caslon Pro;font-weight:700;}.cls-6{letter-spacing:-0.04em;}.cls-7{letter-spacing:0.01em;}.cls-8{letter-spacing:-0.01em;}.cls-9{letter-spacing:-0.08em;}.cls-10{letter-spacing:0.01em;}.cls-12,.cls-19{font-size:97.24px;}.cls-12{stroke-width:0.51px;}.cls-13{letter-spacing:0.01em;}.cls-14{letter-spacing:0.01em;}.cls-15{letter-spacing:-0.01em;}.cls-16{letter-spacing:0.01em;}.cls-17{letter-spacing:0em;}.cls-18{letter-spacing:-0.01em;}</style></defs><g id="Layer_2" data-name="Layer 2"><g id="w"><rect class="cls-1" x="0.18" y="687.91" width="884.04" height="10.06"/><path class="cls-2" d="M344,66.71H463.75s11.06-30.29-22.32-34.09c-17.27.23-32,21.23-55.05,6.4C359.09,20.52,334.94,47,344,66.71Z"/><path class="cls-2" d="M382.08,29.84s14.73-2.55,22-13.18c0,0,7.34,11.71,21.45,12.78C425.49,29.44,408.06,46.35,382.08,29.84Z"/><rect class="cls-1" x="348.44" y="70.44" width="110.7" height="13.32"/><polygon class="cls-3" points="355.89 87.11 355.89 151 453.02 151 453.02 87.11 443.97 87.11 443.97 144.08 366.05 144.08 366.05 87.09 355.89 87.11"/><path class="cls-3" d="M371,87.09v49.53s25.16-2.4,34.06-49.53Z"/><path class="cls-3" d="M439,87.09v48.82s-25-1.69-33.9-48.82Z"/><rect class="cls-1" x="397.58" width="12.42" height="11.72"/><path class="cls-2" d="M291.49,405.36h46.32s-46.32-92.65,109.56-95.85c0,0,68.89,5.33,52,94.79h39.52s14.4-82.27-33-151c0,0,1.69-10.38,13.54,8.79l9.33,12.79,24.56-1.6s17.8,10.37,22,28.75c0,0,18.64,84.67,74.54,54.31L649,341.2s-51.68,32.74-47.44-65.5c0,0,37.27-123-75.39-111.83,0,0-175.35-18.37-204.15,5.59a86.48,86.48,0,0,0-33.25,32.76l0,0c-29.78,25.68-14.95,103-33.66,112-7-3-17.57,4.4-20.52,11.66,4.44,5.45,22.67.73,25.21-4.42,2.15-1.78,10.64-10.52,11.37-37.7,0,0,.67-29.91,8.44-41.91a86.18,86.18,0,0,0,.88,9.17s2.54,38.33,11.86,48.72C292.35,299.66,305.06,371.28,291.49,405.36Z"/><path class="cls-2" d="M338.36,350.51s23.73-13.32,32.77-19.17c0,0-5.08,46.85,12.43,63.37H345.71S348.54,371.28,338.36,350.51Z"/><path class="cls-2" d="M457.53,319.09s6.22,51.65-22,75.62h41.78S494.24,359,494.8,348.38C494.8,348.38,489.73,328.68,457.53,319.09Z"/><path class="cls-4" d="M607.22,241.22s.24-31.82-42.1-38.2c0,0-36.84,3.64-37.41-39,.43-.35,10.46-1.68,22.87-.4,9.54,1,21.38,3,33.24,11.7a44.8,44.8,0,0,1,5.33,4.56c.72.71,1.46,1.44,2.13,2.24s1.31,1.61,2.06,2.42a46,46,0,0,1,7.51,12.63c1,2.58,2,5,2.74,7.51.67,2.23,1.24,4.53,1.79,7.07.68,3.2,1.17,7.13,1.55,10.41a76.83,76.83,0,0,1,.43,10.27C607.36,234.71,607.56,239.43,607.22,241.22Z"/><path class="cls-3" d="M533.2,165.73s22.59,10.12,32.76,2.94c0,0-17.78,12.77-.84,21.56,0,0,10.48,8,23.19-11.14,0,0-2.56,21.31,11.57,16,.38,0-9.09-21.62-33.34-28.31A69.41,69.41,0,0,0,533.2,165.73Z"/><path class="cls-3" d="M563.41,216.59s22-6.38,28.82,15.18h-5.52S585.87,219,565.53,221Z"/><path class="cls-4" d="M327.64,166.05V303.11s78.5-33,154.18,2.13V160.14c-2.31-.15-16.65-1.07-36.17-2.1-25.89-1.37-56.88-.72-60.57-.61s-8.73.38-12.51.58c-7.34.41-14.06,1.14-20.89,2a99.49,99.49,0,0,0-21.74,5.06c-.66.26-1.25.51-1.9.79Z"/><path class="cls-3" d="M332.16,164.28l1.13,127.61s64.94-21.83,144,1.07V159.84s-38.64-2.82-77.05-2.69C371.92,157.25,345.39,159.79,332.16,164.28Z"/><path class="cls-4" d="M348,160.6l-.57,112.71s71.16-13.32,114.07,0V158.88a769,769,0,0,0-80.11-1.3A275.76,275.76,0,0,0,348,160.6Z"/><path class="cls-3" d="M377.34,190.23S405,186.5,404.45,228c0,0-18.64,5.33-19.2-13.84C385.25,214.2,387.5,198.22,377.34,190.23Z"/><path class="cls-3" d="M432.13,190.23S404.46,186.5,405,228c0,0,18.63,5.33,19.2-13.84C424.23,214.2,422,198.22,432.13,190.23Z"/><polygon class="cls-3" points="405.01 177.6 394.57 188.01 405.58 197.69 415.83 187.66 405.01 177.6"/><path class="cls-2" d="M352.29,163.08v18.64S376,173.73,352.29,163.08Z"/><path class="cls-2" d="M352.29,192.9v18.64S376,203.55,352.29,192.9Z"/><path class="cls-2" d="M352.29,221.12v18.63S376,231.77,352.29,221.12Z"/><path class="cls-2" d="M456.62,163.08v18.64S432.89,173.73,456.62,163.08Z"/><path class="cls-2" d="M456.62,192.9v18.64S432.89,203.55,456.62,192.9Z"/><path class="cls-2" d="M456.62,221.12v18.63S432.89,231.77,456.62,221.12Z"/><path class="cls-2" d="M403.23,262.56H383.47S391.94,240.21,403.23,262.56Z"/><path class="cls-2" d="M428.08,262.56H408.3S416.78,240.21,428.08,262.56Z"/><path class="cls-2" d="M352.29,265.32s1.69-20.77,26.54-26.62C378.83,238.7,372.05,266.92,352.29,265.32Z"/><path class="cls-2" d="M430.08,238.69s6.78,28.23,26.54,26.63C456.62,265.32,454.93,244.55,430.08,238.69Z"/><text class="cls-5" transform="translate(0.62 536.98)">BH<tspan class="cls-6" x="210.9" y="0">A</tspan><tspan x="303.36" y="0">G</tspan><tspan class="cls-7" x="417.07" y="0">I</tspan><tspan class="cls-8" x="474.59" y="0">R</tspan><tspan class="cls-9" x="572.74" y="0">A</tspan><tspan class="cls-10" x="659.37" y="0">T</tspan><tspan x="760.62" y="0">H</tspan></text><text class="cls-11" transform="translate(5.54 536.98)">BH<tspan class="cls-6" x="210.9" y="0">A</tspan><tspan x="303.36" y="0">G</tspan><tspan class="cls-7" x="417.07" y="0">I</tspan><tspan class="cls-8" x="474.59" y="0">R</tspan><tspan class="cls-9" x="572.74" y="0">A</tspan><tspan class="cls-10" x="659.37" y="0">T</tspan><tspan x="760.62" y="0">H</tspan></text><text class="cls-12" transform="translate(11.59 650.04)"><tspan class="cls-13">T</tspan><tspan x="72.74" y="0">EC</tspan><tspan class="cls-14" x="213.44" y="0">H</tspan><tspan x="298.92" y="0">NO</tspan><tspan class="cls-15" x="461.99" y="0">L</tspan><tspan class="cls-16" x="525.3" y="0">O</tspan><tspan class="cls-17" x="610.58" y="0">G</tspan><tspan class="cls-16" x="692.26" y="0">I</tspan><tspan class="cls-18" x="733.59" y="0">E</tspan><tspan x="800.2" y="0">S</tspan></text><text class="cls-19" transform="translate(16.62 650.04)"><tspan class="cls-13">T</tspan><tspan x="72.74" y="0">EC</tspan><tspan class="cls-14" x="213.44" y="0">H</tspan><tspan x="298.92" y="0">NO</tspan><tspan class="cls-15" x="461.99" y="0">L</tspan><tspan class="cls-16" x="525.3" y="0">O</tspan><tspan class="cls-17" x="610.58" y="0">G</tspan><tspan class="cls-16" x="692.26" y="0">I</tspan><tspan class="cls-18" x="733.59" y="0">E</tspan><tspan x="800.2" y="0">S</tspan></text></g></g></svg>