<svg width="101" height="100" viewBox="0 0 101 100" fill="none" xmlns="http://www.w3.org/2000/svg">
<g clip-path="url(#clip0_547_429)">
<path d="M0.800781 50.0008C0.800781 70.475 13.1125 88.0641 30.7301 95.7973C30.5895 92.3059 30.7051 88.1145 31.6004 84.3156C32.5617 80.2566 38.034 57.0703 38.034 57.0703C38.034 57.0703 36.4367 53.8777 36.4367 49.1594C36.4367 41.7496 40.7313 36.2156 46.0797 36.2156C50.6277 36.2156 52.825 39.6316 52.825 43.7223C52.825 48.2941 49.909 55.1328 48.4094 61.4668C47.1566 66.7707 51.0687 71.0969 56.3012 71.0969C65.7746 71.0969 72.1551 58.9293 72.1551 44.5129C72.1551 33.5543 64.7742 25.352 51.3496 25.352C36.1824 25.352 26.7336 36.6629 26.7336 49.2973C26.7336 53.6535 28.018 56.7254 30.0297 59.1043C30.9547 60.1969 31.0832 60.6363 30.7484 61.891C30.5086 62.8109 29.9578 65.0258 29.7297 65.9035C29.3969 67.1699 28.3707 67.6227 27.2262 67.1551C20.2402 64.3031 16.9867 56.6527 16.9867 48.0527C16.9867 33.8492 28.9656 16.818 52.7219 16.818C71.8117 16.818 84.3762 30.632 84.3762 45.4605C84.3762 65.075 73.4715 79.7285 57.3973 79.7285C51.9992 79.7285 46.9215 76.8105 45.182 73.4961C45.182 73.4961 42.2793 85.0164 41.6645 87.241C40.6043 91.0961 38.5293 94.9492 36.632 97.9523C41.2326 99.3126 46.0052 100.003 50.8027 100.003C78.4137 100.003 100.801 77.6164 100.801 50.0008C100.801 22.3863 78.4137 0 50.8027 0C23.1891 0 0.800781 22.3863 0.800781 50.0008Z" fill="#CB1F27"/>
</g>
<defs>
<clipPath id="clip0_547_429">
<rect width="100" height="100" fill="white" transform="translate(0.800781)"/>
</clipPath>
</defs>
</svg>
