<svg width="101" height="100" viewBox="0 0 101 100" fill="none" xmlns="http://www.w3.org/2000/svg">
<g clip-path="url(#clip0_547_417)">
<path d="M77.3633 0H24.2383C11.2941 0 0.800781 10.4933 0.800781 23.4375V76.5625C0.800781 89.5067 11.2941 100 24.2383 100H77.3633C90.3075 100 100.801 89.5067 100.801 76.5625V23.4375C100.801 10.4933 90.3075 0 77.3633 0Z" fill="#242938"/>
<mask id="mask0_547_417" style="mask-type:luminance" maskUnits="userSpaceOnUse" x="24" y="10" width="53" height="80">
<path d="M24.6289 10.9375H76.7227V89.0625H24.6289V10.9375Z" fill="white"/>
</mask>
<g mask="url(#mask0_547_417)">
<path d="M37.6559 89.0623C44.8434 89.0623 50.6766 83.2291 50.6766 76.0416V63.0205H37.6559C30.4684 63.0205 24.6348 68.8541 24.6348 76.0416C24.6348 83.2291 30.4684 89.0623 37.6559 89.0623Z" fill="#0ACF83"/>
<path d="M24.6348 50.0002C24.6348 42.8127 30.4684 36.9795 37.6559 36.9795H50.6766V63.0209H37.6559C30.4684 63.0209 24.6348 57.1877 24.6348 50.0002Z" fill="#A259FF"/>
<path d="M24.6348 23.9582C24.6348 16.7707 30.4684 10.9375 37.6559 10.9375H50.6766V36.9793H37.6559C30.4684 36.9793 24.6348 31.1457 24.6348 23.9582Z" fill="#F24E1E"/>
<path d="M50.6758 10.9375H63.6965C70.884 10.9375 76.7176 16.7707 76.7176 23.9582C76.7176 31.1457 70.884 36.9793 63.6965 36.9793H50.6758V10.9375Z" fill="#FF7262"/>
<path d="M76.7176 50.0002C76.7176 57.1877 70.884 63.0209 63.6965 63.0209C56.509 63.0209 50.6758 57.1877 50.6758 50.0002C50.6758 42.8127 56.509 36.9795 63.6965 36.9795C70.884 36.9795 76.7176 42.8127 76.7176 50.0002Z" fill="#1ABCFE"/>
</g>
</g>
<defs>
<clipPath id="clip0_547_417">
<rect width="100" height="100" fill="white" transform="translate(0.800781)"/>
</clipPath>
</defs>
</svg>
