<svg width="101" height="100" viewBox="0 0 101 100" fill="none" xmlns="http://www.w3.org/2000/svg">
<g clip-path="url(#clip0_547_431)">
<path d="M47.2 0.118927C46.8219 0.158771 45.6414 0.298615 44.6 0.421271C40.4016 0.900177 35.6406 2.16111 31.4625 3.92127C16.3414 10.2392 4.96094 24.101 1.82109 40.0002C1.08203 43.7814 0.902344 45.6392 0.902344 50.0002C0.902344 55.6213 1.46094 59.5002 2.94141 64.4017C7.78125 80.4408 20.3812 93.0205 36.4617 97.8791C41.3016 99.3408 45.2016 99.8994 50.8016 99.8994C56.4227 99.8994 60.3016 99.3408 65.2031 97.8603C81.2422 93.0205 93.8219 80.4205 98.6805 64.34C100.142 59.5002 100.701 55.6002 100.701 50.0002C100.701 47.6197 100.582 44.901 100.441 43.8994C98.8211 32.34 94.0602 22.6197 86.1227 14.6791C78.2 6.79939 68.5203 2.02049 57.2 0.400177C55.6406 0.179865 48.4203 -0.0216977 47.2 0.118927ZM30.9008 31.6189C31.9633 31.9392 32.4602 32.2392 33.1805 32.9588C34.5812 34.3806 34.9016 35.1596 34.9016 37.2986C34.9016 38.901 34.8406 39.2002 34.3617 40.0392C33.4398 41.5986 31.3008 43.0392 29.8211 43.0783C28.7797 43.1002 28.8227 42.6392 29.9617 41.44C31.4812 39.8596 31.7008 39.2603 31.7008 36.8986C31.682 34.6197 31.4016 33.8408 30.3422 33.2002C29.4609 32.6603 28.5023 32.7002 27.1016 33.3588C23.4609 35.101 19.5211 40.9002 17.9828 46.8416C15.9414 54.7611 19.5609 61.0994 25.5211 60.0189C27.2602 59.6986 30.5406 58.0205 31.9633 56.6986C33.1414 55.6213 33.1414 55.6002 33.2602 54.2611C33.5227 51.4588 35.5 48.6603 38.143 47.3603C39.3602 46.7588 39.6625 46.701 41.3016 46.701C42.8609 46.701 43.2211 46.7806 43.9812 47.1986C46.4008 48.5814 45.9008 51.8002 43.282 51.8002C41.7625 51.8002 40.9812 51.0189 42.0828 50.6017C43.1633 50.2017 42.7602 48.7002 41.5031 48.3611C40.0227 47.9799 38.3414 48.9806 37.282 50.9002C36.0008 53.2205 35.9422 55.9814 37.1602 57.2392C38.3414 58.4994 39.8211 57.5017 40.9625 54.6385C41.5609 53.1799 42.4211 52.3986 43.4227 52.3986C44.3016 52.3986 44.4633 52.9392 44.0812 54.5806C43.5203 57.1197 43.9016 57.7791 45.482 57.001C46.0008 56.7596 46.8617 56.2017 47.3805 55.8017L48.3602 55.0205L49.0227 51.5596C49.743 47.6807 50.0203 47.1588 51.5008 46.8814C52.9227 46.6189 53.243 47.3205 52.7211 49.5392L52.4398 50.7814L53.4813 49.7189C55.9406 47.1986 58.9617 45.9596 60.0023 47.0002C60.5609 47.5588 60.5 48.2603 59.7008 50.7385C59.3219 51.9197 58.8 53.7814 58.5625 54.84C58.2023 56.4392 58.1805 56.8205 58.3828 57.0807C59.0234 57.84 60.982 57.0588 62.7219 55.3588L63.7414 54.3611L63.8633 52.1392C63.982 49.5791 64.2203 48.6603 64.9008 47.8392C65.5414 47.0799 66.7016 46.5213 67.3211 46.6799C67.9406 46.8416 67.9406 47.44 67.382 49.201C66.6008 51.6205 66.6828 57.1994 67.4828 57.1994C67.8031 57.1994 69.4414 55.4806 70.4828 54.0408L71.2609 52.9783L70.6414 52.3408C69.5609 51.2002 69.3016 50.4611 69.3016 48.5994C69.3016 47.2416 69.4023 46.7408 69.7406 46.0783C70.3023 45.0408 71.1813 44.2814 72.2219 43.9791C73.3203 43.64 74.6813 44.1986 75.2398 45.1994C75.8016 46.2189 75.6617 48.4986 74.9406 50.0611L74.4219 51.1994H75.1211C76.082 51.1994 76.4609 50.9611 78.182 49.3408C79.082 48.4806 80.1227 47.7392 80.9008 47.3791C83.9617 45.9416 87.5633 46.6799 88.1609 48.8799C88.6609 50.6408 87.5633 51.8799 85.6406 51.7392C84.2609 51.6392 84.0016 51.2783 84.8016 50.6017C86.2414 49.3986 84.8016 47.8611 82.7414 48.4197C81.6211 48.7213 80.3609 49.9791 79.7023 51.4408C78.3805 54.3611 79.082 57.8002 80.9805 57.8002C81.7406 57.8002 83.0828 56.2994 83.6016 54.84C84.2211 53.1588 85.5211 52.1002 86.5008 52.4807C87.0414 52.6799 87.0812 53.2197 86.7422 54.9197C86.3609 56.7814 86.3023 58.5213 86.6016 59.3205C86.7211 59.6189 87.0813 60.1806 87.4227 60.5596C88.0602 61.2791 88.082 61.5392 87.5414 61.8806C87.282 62.0603 86.9398 61.9814 86.1016 61.5213C84.9414 60.9197 83.9406 59.8392 83.5805 58.8197L83.3609 58.2213L82.5609 58.8197C82.1 59.14 81.3805 59.5002 80.9617 59.6189C79.3016 60.0588 77.2602 58.9205 76.3023 57.001C75.9203 56.2588 75.8016 54.0807 76.082 53.2408C76.2414 52.7799 76.2414 52.7799 75.6 53.1002C75.2617 53.2807 74.5414 53.4791 73.9828 53.54C73.0609 53.6416 72.9203 53.7416 72.0023 54.901C70.7023 56.5182 68.4008 58.701 67.4609 59.1619C65.4625 60.1596 64.8031 59.8791 64.2812 57.8182L63.9211 56.4392L63.0602 57.1994C61.9617 58.1603 59.7617 59.3205 58.5008 59.601C57.3016 59.8603 56.0203 59.4791 55.5008 58.6791C54.7234 57.4799 54.9828 54.9408 56.2211 51.5197C57.1398 48.9806 56.4813 48.9416 54.1617 51.3611C52.4406 53.1799 51.7016 54.4799 51.2227 56.5002C50.7227 58.6002 50.1211 59.3596 48.7633 59.6799C47.9422 59.8603 47.5602 59.3596 47.7227 58.2611L47.8414 57.3791L47.0812 57.901C46.0008 58.64 44.6398 59.3205 43.7 59.5799C42.7602 59.8392 41.5211 59.5611 41.2219 59.0392C40.682 58.1213 40.682 58.1213 39.843 58.7799C38.0211 60.2603 35.4211 59.8392 34.1023 57.8799L33.6805 57.2603L32.3625 58.4807C28.5602 61.9603 23.8023 63.5197 20.2813 62.4392C15.8008 61.0814 13.3227 57.2392 13.3625 51.7002C13.3812 46.14 15.8406 40.2806 19.982 35.9408C22.3227 33.4994 24.5227 32.0588 26.7633 31.5189C28.3805 31.1189 29.3633 31.1392 30.9008 31.6189Z" fill="#00C4CC"/>
<path d="M71.4397 45.8408C70.9999 46.2799 71.1616 48.0408 71.721 49.1612C72.0014 49.7408 72.3007 50.2018 72.4007 50.2018C72.4804 50.2018 72.66 49.7408 72.8007 49.1791C73.3007 47.101 72.4007 44.8791 71.4397 45.8408Z" fill="#00C4CC"/>
</g>
<defs>
<clipPath id="clip0_547_431">
<rect width="100" height="100" fill="white" transform="translate(0.800781)"/>
</clipPath>
</defs>
</svg>
