<svg width="100" height="100" viewBox="0 0 100 100" fill="none" xmlns="http://www.w3.org/2000/svg">
<g clip-path="url(#clip0_568_69)">
<path fill-rule="evenodd" clip-rule="evenodd" d="M1.43912e-06 50C0.00109895 41.3727 2.23446 32.8925 6.48295 25.3839C10.7314 17.8752 16.8505 11.5936 24.2452 7.14973C31.6399 2.70586 40.0586 0.25096 48.6829 0.0237015C57.3072 -0.203557 65.8435 1.80456 73.462 5.85281C81.0805 9.90107 87.5219 15.8517 92.1599 23.1262C96.7979 30.4007 99.4748 38.7515 99.9303 47.3667C100.386 55.9819 98.6043 64.5685 94.7591 72.2914C90.9139 80.0144 85.1358 86.611 77.9867 91.44L32.7067 28.0667C32.2956 27.4947 31.7139 27.0677 31.045 26.8469C30.3762 26.6261 29.6546 26.6228 28.9838 26.8375C28.313 27.0522 27.7274 27.4739 27.3111 28.0421C26.8949 28.6102 26.6692 29.2956 26.6667 30V80H33.3333V40.4L72.2 94.8133C64.576 98.5912 56.1141 100.361 47.6151 99.9551C39.1162 99.5492 30.8614 96.9812 23.6321 92.4941C16.4027 88.007 10.4381 81.7492 6.30271 74.3131C2.16731 66.877 -0.00203975 58.5086 1.43912e-06 50ZM66.6667 66.6666V26.6667H73.3333V66.6666H66.6667Z" fill="black"/>
</g>
<defs>
<clipPath id="clip0_568_69">
<rect width="100" height="100" fill="white"/>
</clipPath>
</defs>
</svg>
