<svg width="100" height="100" viewBox="0 0 100 100" fill="none" xmlns="http://www.w3.org/2000/svg">
<g clip-path="url(#clip0_568_71)">
<path d="M76.5625 0H23.4375C10.4933 0 0 10.4933 0 23.4375V76.5625C0 89.5067 10.4933 100 23.4375 100H76.5625C89.5067 100 100 89.5067 100 76.5625V23.4375C100 10.4933 89.5067 0 76.5625 0Z" fill="#242938"/>
<path d="M54.2137 73.9581H81.0777C81.9309 73.9585 82.7691 73.7359 83.5082 73.3128C84.2459 72.8915 84.8594 72.2831 85.2871 71.5492C85.7133 70.8179 85.9376 69.9866 85.9372 69.1402C85.9368 68.2939 85.7116 67.4628 85.2848 66.732L67.2437 35.7609C66.8159 35.0272 66.2025 34.4191 65.4652 33.9976C64.7253 33.5744 63.8876 33.3517 63.0352 33.3517C62.1827 33.3517 61.345 33.5744 60.6051 33.9976C59.8678 34.4191 59.2544 35.0272 58.8266 35.7609L54.2137 43.6855L45.1941 28.1894C44.7661 27.4558 44.1524 26.8478 43.4148 26.4265C42.6747 26.0033 41.8369 25.7808 40.9844 25.7808C40.1318 25.7808 39.294 26.0033 38.5539 26.4265C37.8164 26.8478 37.2028 27.4558 36.7746 28.1894L14.3242 66.732C13.8976 67.4629 13.6724 68.2939 13.6719 69.1402C13.6719 69.9859 13.8957 70.8167 14.3223 71.5492C14.7499 72.2831 15.3635 72.8915 16.1012 73.3128C16.8412 73.7362 17.6791 73.9587 18.5316 73.9581H35.3949C42.0762 73.9581 47.0035 71.0495 50.3937 65.3749L58.625 51.2464L63.034 43.6855L76.2656 66.3972H58.625L54.2137 73.9581ZM35.1199 66.3894L23.3516 66.3867L40.9922 36.1062L49.7941 51.2464L43.9008 61.3659C41.6492 65.048 39.0918 66.3894 35.1199 66.3894Z" fill="#00DC82"/>
</g>
<defs>
<clipPath id="clip0_568_71">
<rect width="100" height="100" fill="white"/>
</clipPath>
</defs>
</svg>
