<svg width="100" height="100" viewBox="0 0 100 100" fill="none" xmlns="http://www.w3.org/2000/svg">
<g clip-path="url(#clip0_568_79)">
<path d="M76.5625 0H23.4375C10.4933 0 0 10.4933 0 23.4375V76.5625C0 89.5067 0 100 23.4375 100H76.5625C100 100 100 89.5067 100 76.5625V23.4375C100 10.4933 89.5067 0 76.5625 0Z" fill="#023430"/>
<path fill-rule="evenodd" clip-rule="evenodd" d="M64.9082 72.5655C65.0137 72.3625 65.1149 72.1833 65.201 71.9979C65.2554 71.8793 65.339 71.8555 65.457 71.8587C66.1645 71.8786 66.8719 71.9005 67.58 71.9074C68.1813 71.9136 68.7838 71.9024 69.3858 71.8955C70.0639 71.8874 70.7419 71.8518 71.4194 71.8711C72.3217 71.8974 73.2008 72.0741 74.0169 72.4756C74.9916 72.9557 75.729 73.6869 76.2317 74.6503C76.5477 75.2612 76.7449 75.9265 76.813 76.6109C76.9204 77.615 76.8498 78.5959 76.5314 79.5562C76.1367 80.7463 75.3875 81.6573 74.3466 82.3398C73.5455 82.8649 72.667 83.1752 71.7254 83.3526C70.7288 83.5405 69.7292 83.4799 68.7295 83.4831C67.6331 83.4874 66.5373 83.4637 65.4408 83.4512C65.2491 83.4494 65.2217 83.4131 65.2722 83.2302L65.3191 83.0616C65.4258 82.7257 65.4833 82.7107 65.8242 82.6545C66.0658 82.6164 66.297 82.5286 66.5029 82.3966C66.6178 82.3204 66.6653 82.1219 66.7102 81.9689C66.7489 81.8353 66.7508 81.6886 66.752 81.5474C66.7677 79.4089 66.7839 77.2709 66.7926 75.1336C66.795 74.593 66.7815 74.0525 66.752 73.5127C66.7308 73.1349 66.5291 72.8764 66.0796 72.7871C65.7299 72.7178 65.3777 72.6641 65.0262 72.6023L64.9082 72.5655ZM74.946 77.7436C74.8986 77.3178 74.8755 76.8882 74.7993 76.4686C74.617 75.4614 74.1761 74.5842 73.4019 73.8967C72.15 72.7859 70.6427 72.6148 69.0629 72.7472C68.7033 72.7771 68.6259 72.9002 68.6202 73.2698C68.6115 73.7943 68.6028 74.3188 68.6021 74.8433C68.5996 76.5067 68.5996 78.1701 68.6021 79.8335C68.6028 80.3068 68.6078 80.7801 68.6215 81.2521C68.6365 81.7354 68.8119 82.1444 69.2852 82.3317C70.0314 82.627 70.8163 82.662 71.5992 82.5415C72.8499 82.3498 73.7247 81.6211 74.3116 80.529C74.7762 79.6624 74.9073 78.7164 74.946 77.7436ZM77.9862 83.4075C77.9712 83.1484 78.0774 82.9342 78.2085 82.7375C78.2441 82.6845 78.3665 82.687 78.4508 82.6701L79.1663 82.5284C79.4192 82.4747 79.5522 82.3048 79.5878 82.0569C79.6115 81.8933 79.634 81.7279 79.6359 81.5624C79.6528 80.2531 79.6651 78.9437 79.6727 77.6343C79.679 76.3231 79.674 75.0119 79.674 73.7006L79.6683 73.4502C79.6427 73.0288 79.4392 72.8102 79.0208 72.7484L78.1136 72.6104C78.0018 72.5954 77.9612 72.5417 78.0018 72.4425C78.0718 72.2733 78.1386 72.0978 78.2372 71.9454C78.2741 71.8893 78.3983 71.8674 78.482 71.8693C78.9153 71.8755 79.3486 71.908 79.782 71.9074L83.554 71.8849C84.2808 71.8843 84.9826 72.011 85.6345 72.3588C86.3519 72.7409 86.7534 73.3322 86.8683 74.1377C86.9882 74.9838 86.7315 75.6968 86.1134 76.2632C85.8592 76.4967 85.5302 76.649 85.2355 76.8389L85.1393 76.8988C85.4128 76.9993 85.6732 77.0861 85.9267 77.1898C86.6685 77.4938 87.2585 77.969 87.5707 78.7277C87.8174 79.3265 87.8174 79.9509 87.6712 80.5715C87.444 81.5431 86.804 82.1893 85.9716 82.6782C85.1905 83.1372 84.3451 83.4044 83.4447 83.4494C82.6142 83.4912 81.7801 83.4756 80.9477 83.4849L80.4657 83.4874C79.6635 83.469 78.8614 83.449 78.0593 83.4275L77.9862 83.4075ZM81.4435 79.6056H81.4516C81.4516 80.0164 81.446 80.4273 81.4535 80.8381C81.4585 81.1041 81.4491 81.3776 81.5066 81.6336C81.5927 82.0164 81.7676 82.3616 82.1971 82.4715C82.7714 82.6225 83.3714 82.6489 83.9567 82.549C84.6916 82.421 85.2779 82.0526 85.5995 81.3526C85.838 80.8325 85.8736 80.2812 85.7918 79.718C85.6832 78.9762 85.2892 78.4379 84.6342 78.0851C84.2046 77.8535 83.7463 77.7118 83.258 77.693C82.711 77.6724 82.1634 77.6712 81.6165 77.6543C81.4629 77.6499 81.4416 77.728 81.4423 77.8541C81.4454 78.4373 81.4435 79.0211 81.4435 79.6056ZM82.608 76.8114C82.9071 76.7964 83.2455 76.792 83.5821 76.7583C84.2264 76.694 84.6804 76.3699 84.917 75.7537C85.0375 75.4408 85.0325 75.1186 85.0357 74.7933C85.045 73.946 84.5505 73.2517 83.7457 72.9645C83.1244 72.7428 82.4837 72.7391 81.8394 72.7565C81.5784 72.7634 81.4616 72.8777 81.4579 73.1405L81.4192 76.5679C81.4173 76.704 81.476 76.7627 81.6083 76.767L82.608 76.8114Z" fill="white"/>
<path fill-rule="evenodd" clip-rule="evenodd" d="M17.0065 82.7488L16.9609 83.3382C16.5363 83.3382 16.1448 83.3351 15.7533 83.3395C15.0159 83.347 14.2785 83.3588 13.5404 83.3694L13.4692 83.3738C13.3637 83.3613 13.172 83.3613 13.167 83.3301C13.1358 83.1546 13.1458 82.9704 13.1539 82.7887C13.1546 82.7681 13.2264 82.7419 13.2682 82.7319L13.842 82.6039C14.1998 82.5109 14.3259 82.3567 14.3428 81.987C14.3621 81.5705 14.3815 81.1534 14.3834 80.737C14.389 79.7117 14.3827 78.6877 14.3871 77.6624C14.3877 77.4227 14.3047 77.2441 14.0812 77.1467C13.8155 77.0288 13.5481 76.9151 13.2788 76.8058C13.1514 76.7546 12.986 76.7265 13.0009 76.5554C13.0159 76.3812 13.1764 76.3356 13.3275 76.3013C13.9532 76.1583 14.5794 76.019 15.2032 75.8667C15.4043 75.8173 15.5966 75.7343 15.837 75.6506C15.8495 75.7805 15.8726 75.9041 15.8701 76.0278L15.8332 76.6153C15.8326 76.6815 15.8669 76.7702 15.9163 76.807C15.9462 76.8301 16.0468 76.7883 16.0967 76.7496C16.6299 76.3437 17.1944 75.9934 17.8382 75.7893C18.8353 75.4727 19.6914 75.7661 20.2908 76.6259C20.5018 76.9288 20.5025 76.9288 20.7953 76.7171C21.2979 76.3518 21.8237 76.0296 22.4119 75.8173C23.7031 75.3509 24.9438 75.9428 25.3927 77.2435C25.5563 77.7155 25.6188 78.2032 25.6175 78.7014L25.6057 82.0095C25.605 82.2824 25.6956 82.4378 25.9553 82.5228C26.2469 82.6183 26.5491 82.6839 26.8776 82.77L26.8014 83.3388C26.428 83.3388 26.0846 83.3363 25.7412 83.3395C24.902 83.347 24.0628 83.3513 23.2242 83.3707C23.0781 83.3744 23.04 83.3382 23.0325 83.2015C23.0082 82.7638 23.0044 82.7644 23.4165 82.6657L23.5551 82.6302C23.9579 82.5203 24.0921 82.3966 24.0952 81.9883C24.1046 80.8157 24.129 79.6399 24.0696 78.4698C24.0078 77.256 23.0444 76.6097 21.868 76.9207C21.4883 77.0246 21.1308 77.1969 20.8128 77.4289C20.7035 77.507 20.6829 77.5969 20.6917 77.7336C20.7247 78.2506 20.7454 78.7683 20.7497 79.2859C20.7572 80.1919 20.746 81.0979 20.7497 82.0045C20.751 82.3716 20.8765 82.5121 21.2393 82.5971L21.7781 82.7213L21.878 82.7438C21.8855 82.9161 21.8924 83.0885 21.8843 83.2608C21.8793 83.3688 21.7956 83.3782 21.7019 83.3763C21.1781 83.3632 20.6536 83.3457 20.1297 83.347C19.4922 83.3482 18.8553 83.3663 18.2184 83.3776H18.0686C18.0686 83.1946 18.0598 83.0198 18.0748 82.8456C18.0779 82.8037 18.1516 82.745 18.2022 82.7319L18.8303 82.5989C19.0969 82.5334 19.2243 82.3966 19.2393 82.1256C19.3105 80.8706 19.3617 79.6149 19.2437 78.3605C19.2149 78.1128 19.1462 77.8713 19.0401 77.6456C18.7186 76.935 17.9949 76.6384 17.1601 76.852C16.7636 76.9531 16.4058 77.1348 16.0674 77.364C15.9936 77.4094 15.9329 77.4734 15.8915 77.5495C15.8501 77.6256 15.8294 77.7113 15.8313 77.7979C15.8313 79.0499 15.8357 80.3018 15.8395 81.5531L15.8463 82.0357C15.8538 82.3723 15.9968 82.5496 16.3309 82.622C16.5457 82.6707 16.7629 82.7038 17.0065 82.7488Z" fill="white"/>
<path fill-rule="evenodd" clip-rule="evenodd" d="M54.7559 75.7787C54.8527 76.2494 54.8509 76.6728 54.5049 76.9937C54.1615 77.3128 53.7269 77.2054 53.303 77.1342C53.3423 77.3578 53.386 77.5476 53.4073 77.7399C53.5615 79.1691 52.9464 80.23 51.6209 80.8363C51.1201 81.0648 50.5887 81.1497 50.0461 81.1934C49.7764 81.2147 49.5404 81.4207 49.5148 81.6424C49.4885 81.8672 49.6296 82.0982 49.9119 82.1656C50.2447 82.2449 50.5918 82.2674 50.9334 82.3067C51.6664 82.3904 52.4076 82.4285 53.1319 82.5596C54.2271 82.7569 54.8384 83.7129 54.6454 84.8131C54.4737 85.7921 53.9068 86.5046 53.1163 87.0509C51.7844 87.9738 50.3233 88.2435 48.7674 87.7727C47.8776 87.503 47.2501 86.9179 47.0334 85.9713C46.9248 85.4974 47.0403 85.0684 47.3968 84.7469C47.8208 84.366 48.2822 84.0263 48.7261 83.6667L48.8698 83.5224L48.7049 83.4069C48.2522 83.1921 47.8901 82.898 47.7496 82.3873C47.7015 82.2143 47.7515 82.1007 47.8982 82.012C48.1479 81.8615 48.3965 81.7086 48.6431 81.5531C48.7592 81.4806 48.8741 81.4057 48.9821 81.3221C49.1295 81.2097 49.1164 81.126 48.9403 81.0611C48.5307 80.91 48.1667 80.6908 47.8845 80.3536C47.413 79.791 47.2794 79.121 47.3181 78.4136C47.3787 77.3084 47.9787 76.5804 48.954 76.1121C50.1136 75.5557 51.2768 75.5208 52.4588 76.0278C52.8959 76.2151 53.3567 76.2551 53.8256 76.2226C54.1759 76.1976 54.4818 76.0653 54.7559 75.7787ZM50.4832 83.6966C49.6128 83.6891 49.3399 83.7965 48.8292 84.3167C48.2572 84.8999 48.2603 85.7084 48.831 86.2941C49.2644 86.7381 49.8051 86.946 50.4064 87.0084C51.1088 87.0809 51.8007 87.0515 52.4388 86.7C53.1194 86.3235 53.4578 85.6242 53.3049 84.9198C53.1781 84.3385 52.7498 84.0725 52.2284 83.9195C51.6352 83.746 51.022 83.7129 50.4832 83.6966ZM48.7736 78.1345C48.8054 78.3761 48.8186 78.6209 48.8722 78.8576C49.0115 79.4707 49.2781 80.0096 49.8881 80.2824C50.6043 80.604 51.5191 80.466 51.8325 79.4607C52.0467 78.7917 52.0217 78.0691 51.762 77.4164C51.6519 77.1181 51.4537 76.8603 51.1938 76.6772C50.5719 76.2432 49.4498 76.1858 48.9928 77.1448C48.8442 77.4564 48.7861 77.788 48.7736 78.1345Z" fill="white"/>
<path fill-rule="evenodd" clip-rule="evenodd" d="M39.9872 75.6243C40.0103 75.7311 40.0566 75.8522 40.0578 75.974C40.0597 76.2056 40.0347 76.4373 40.0216 76.6689V76.87L40.2176 76.7201C40.7546 76.278 41.3316 75.9015 42.0034 75.6986C43.216 75.3333 44.4273 75.9971 44.8226 77.2321C44.9724 77.7017 45.0318 78.1843 45.0374 78.6751C45.0499 79.7653 45.0574 80.8555 45.0686 81.9457C45.0723 82.3372 45.1173 82.4071 45.4876 82.5202C45.6983 82.5831 45.9132 82.6308 46.1307 82.6631C46.25 82.6819 46.3012 82.7287 46.2949 82.8455L46.2962 82.9529C46.2918 83.4043 46.2606 83.4249 45.8229 83.4237C44.7751 83.4218 43.728 83.428 42.6803 83.4368C42.3681 83.4393 42.3674 83.4486 42.3362 83.1402L42.33 82.9628C42.3493 82.6969 42.3556 82.6994 42.6172 82.6606C42.7933 82.6344 42.9681 82.5938 43.1398 82.5489C43.3165 82.5033 43.4015 82.3728 43.4252 82.198C43.437 82.1093 43.4527 82.0206 43.452 81.932C43.437 80.7406 43.4564 79.548 43.3915 78.3585C43.339 77.3963 42.6047 76.8231 41.6388 76.8887C41.1732 76.921 40.7256 77.0815 40.3456 77.3526C40.0878 77.5331 40.0359 77.7935 40.0372 78.0738C40.0422 79.1877 40.0528 80.3017 40.0647 81.4162C40.0672 81.6604 40.074 81.9045 40.0971 82.1468C40.1215 82.4115 40.2145 82.5183 40.4743 82.5757C40.7228 82.6307 40.9763 82.6625 41.2417 82.7068L41.2641 82.9116C41.2729 83.3893 41.2229 83.4249 40.759 83.423C39.6757 83.4187 38.5923 83.4255 37.5096 83.4374C37.3392 83.4399 37.2667 83.3862 37.2711 83.2201L37.2686 83.1489C37.2405 82.7187 37.253 82.7025 37.6601 82.6325L37.8524 82.5938C38.2933 82.4945 38.4063 82.3772 38.4125 81.9295C38.4331 80.5115 38.4406 79.0941 38.455 77.6761C38.4568 77.4725 38.38 77.3145 38.1902 77.2303C37.9238 77.1136 37.656 77.0003 37.3866 76.8906C37.238 76.8294 37.0682 76.7907 37.0626 76.5853C37.0588 76.4404 37.2137 76.3124 37.4253 76.2693C37.8506 76.1831 38.2795 76.1113 38.6997 76.0058C39.1181 75.9015 39.5289 75.7617 39.9872 75.6243Z" fill="white"/>
<path fill-rule="evenodd" clip-rule="evenodd" d="M63.413 79.3282C63.393 80.6525 63.049 81.7234 62.1124 82.527C60.926 83.5466 59.0753 83.8932 57.5624 83.1308C56.9168 82.8055 56.4422 82.3066 56.1331 81.6591C55.6592 80.6631 55.5406 79.616 55.7878 78.5433C56.0326 77.4825 56.6751 76.7138 57.6367 76.2162C58.6257 75.7048 59.6672 75.505 60.7655 75.7735C62.1548 76.1125 63.1532 77.2452 63.3518 78.6876C63.3874 78.9404 63.4011 79.1964 63.413 79.3282ZM61.8039 80.0456L61.7502 80.0394C61.7502 79.9145 61.7571 79.7896 61.749 79.6647C61.7034 78.8867 61.5286 78.1456 61.0777 77.4943C60.65 76.8774 60.0675 76.5134 59.3094 76.4603C58.4609 76.4004 57.7478 76.8749 57.4974 77.7416C57.1216 79.0428 57.2489 80.311 57.9095 81.503C58.1974 82.0225 58.6239 82.4058 59.1952 82.6075C60.3147 83.0015 61.3075 82.4914 61.5991 81.345C61.7065 80.9216 61.7377 80.479 61.8039 80.0456Z" fill="white"/>
<path fill-rule="evenodd" clip-rule="evenodd" d="M35.9085 79.4308C35.8854 80.3811 35.6613 81.2596 35.0744 82.0233C34.4456 82.8412 33.5814 83.2783 32.5986 83.4625C31.4366 83.6798 30.3452 83.4825 29.4117 82.7026C28.9684 82.3317 28.6655 81.8566 28.4657 81.3158C28.1379 80.4292 28.0561 79.5207 28.2578 78.5947C28.4732 77.6038 29.0327 76.8464 29.9 76.3381C30.9027 75.7518 31.9848 75.4902 33.1406 75.7537C34.6267 76.0934 35.4846 77.0618 35.8018 78.5279C35.8655 78.8239 35.8742 79.1298 35.9085 79.4308ZM34.2814 80.0577L34.2383 80.0514V79.8729C34.2139 79.0012 34.0435 78.1707 33.5233 77.4464C33.1381 76.9088 32.6223 76.5717 31.9611 76.4774C30.8834 76.3238 30.1791 76.9632 29.9455 77.8317C29.6408 78.9662 29.7364 80.087 30.2078 81.1629C30.5019 81.8335 30.9664 82.3561 31.6801 82.6096C32.7928 83.0048 33.8006 82.4816 34.0822 81.3396C34.1858 80.9218 34.2171 80.486 34.2814 80.0577Z" fill="white"/>
<path fill-rule="evenodd" clip-rule="evenodd" d="M61.8495 30.9836C62.6156 33.1984 63.1664 35.4593 63.3481 37.8021C63.5728 40.7093 63.4704 43.5965 62.8573 46.4556L62.7786 46.6841C62.5863 46.6847 62.3902 46.6604 62.2023 46.6897C60.6144 46.9395 59.0285 47.198 57.4419 47.4553C55.8016 47.7212 54.16 47.9766 52.5229 48.2601C51.9428 48.36 51.2247 48.2407 50.9906 49.0425L50.8782 49.0806L50.9575 44.2864L50.877 32.7188L51.6412 32.5877C52.8906 32.3835 54.1401 32.1756 55.3913 31.9764C56.8837 31.7398 58.3772 31.5088 59.8708 31.2777C60.5301 31.1766 61.1901 31.0823 61.8495 30.9836Z" fill="#439934"/>
<path fill-rule="evenodd" clip-rule="evenodd" d="M49.2999 63.057C48.4938 62.3639 47.6596 61.7014 46.8872 60.9721C42.73 57.0509 39.6885 52.4347 38.1906 46.8695C37.7779 45.3385 37.5031 43.7818 37.4145 42.1996C37.352 41.0919 37.2627 39.9749 37.3414 38.8728C37.5493 35.9425 37.9733 33.0403 38.8325 30.2174L38.8799 30.1519C38.9636 30.263 39.0835 30.3617 39.1259 30.4872C39.9651 32.9573 40.7974 35.4299 41.626 37.9044C44.2291 45.6788 46.8291 53.455 49.4366 61.2281C49.4878 61.3799 49.6196 61.5041 49.7145 61.6409L49.2999 63.057Z" fill="#45A538"/>
<path fill-rule="evenodd" clip-rule="evenodd" d="M61.8474 30.9838C61.1874 31.0818 60.5274 31.1768 59.8687 31.2779C58.3751 31.5089 56.8816 31.74 55.3893 31.9766C54.1386 32.1752 52.8892 32.3831 51.6391 32.5879L50.8749 32.719L50.8686 32.2207C50.843 31.8111 50.8006 31.4015 50.795 30.9919L50.7094 23.1532C50.6894 21.5179 50.6595 19.8826 50.6264 18.248C50.6095 17.232 50.5802 16.2162 50.5383 15.2009C50.5133 14.6558 50.4253 14.1132 50.3903 13.5681C50.3697 13.2547 50.3972 12.9387 50.4041 12.624C50.7937 13.3789 51.1752 14.1394 51.5755 14.8887C52.208 16.0732 53.2164 16.9461 54.1249 17.8983C57.7127 21.6641 60.2596 26.0398 61.8474 30.9838Z" fill="#46A037"/>
<path fill-rule="evenodd" clip-rule="evenodd" d="M50.8805 49.0806L50.9929 49.0425C51.2271 48.2408 51.9451 48.3601 52.5252 48.2602C54.1624 47.9767 55.8039 47.7213 57.4442 47.4553C59.0308 47.1987 60.6168 46.9402 62.2046 46.6898C62.3926 46.6605 62.5886 46.6848 62.7809 46.6842C62.4843 47.7432 62.2508 48.8252 61.8743 49.8549C61.4466 51.0225 60.9296 52.1626 60.3807 53.2803C59.5586 54.9471 58.5414 56.5103 57.3505 57.9371C56.4352 59.0373 55.4149 60.0557 54.3928 61.0603C53.8271 61.6154 53.1615 62.0681 52.5408 62.5676L52.3797 62.4577L51.8009 61.9632L51.2021 60.6495C50.793 59.1175 50.5697 57.5418 50.5371 55.9565L50.5484 55.6892L50.6301 54.5316C50.657 54.1364 50.6932 53.7418 50.7101 53.3465C50.77 51.9254 50.8237 50.503 50.8805 49.0806Z" fill="#409433"/>
<path fill-rule="evenodd" clip-rule="evenodd" d="M50.8802 49.0807C50.824 50.503 50.7703 51.926 50.7097 53.3484C50.6928 53.7443 50.6573 54.1389 50.6298 54.5335L50.2651 54.6715C49.4547 52.2857 48.6436 49.9248 47.8506 47.5584C46.5387 43.6428 45.2431 39.7216 43.9331 35.8047C42.8753 32.6436 41.8101 29.485 40.7375 26.3288C40.6869 26.1815 40.5433 26.0654 40.4434 25.9349L42.7786 21.6409C42.8592 21.7801 42.9647 21.9106 43.0153 22.0605C44.0955 25.2574 45.1738 28.4549 46.2428 31.6556C47.6339 35.8203 49.0157 39.9869 50.4056 44.1523C50.4612 44.3184 50.5524 44.472 50.6398 44.6587L50.9595 44.2865L50.8802 49.0807Z" fill="#4FAA41"/>
<path fill-rule="evenodd" clip-rule="evenodd" d="M40.4399 25.9348C40.5404 26.0653 40.684 26.1815 40.734 26.3288C41.8067 29.4849 42.8719 32.6435 43.9297 35.8047C45.2396 39.7215 46.5353 43.6427 47.8471 47.5583C48.6401 49.9248 49.4512 52.285 50.2617 54.6715L50.6263 54.5335L50.5445 55.6911L50.4702 55.9577C50.3435 57.2246 50.2367 58.494 50.0819 59.7584C50.0044 60.3922 49.839 61.0141 49.7135 61.641C49.6192 61.5043 49.4868 61.38 49.4356 61.2283C46.8275 53.4551 44.2281 45.6789 41.625 37.9045C40.7968 35.4304 39.9634 32.958 39.1249 30.4873C39.0825 30.3618 38.9626 30.2631 38.8789 30.152L40.4399 25.9348Z" fill="#4AA73C"/>
<path fill-rule="evenodd" clip-rule="evenodd" d="M50.9582 44.2863L50.6385 44.6584C50.5511 44.4717 50.4599 44.3181 50.4044 44.152C49.0145 39.9867 47.6327 35.8201 46.2415 31.6553C45.1713 28.4551 44.0954 25.2567 43.014 22.0602C42.9634 21.9104 42.8579 21.7799 42.7773 21.6406L45.6652 17.8418C45.7563 17.9629 45.8862 18.071 45.933 18.2077C46.7348 20.5554 47.529 22.905 48.3195 25.2565C49.0575 27.4532 49.7843 29.6523 50.5311 31.8452C50.5811 31.9919 50.7553 32.0955 50.8714 32.2204L50.8777 32.7187L50.9582 44.2863Z" fill="#57AE47"/>
<path fill-rule="evenodd" clip-rule="evenodd" d="M50.8703 32.2205C50.7535 32.0962 50.5799 31.9926 50.53 31.8452C49.7838 29.6523 49.0564 27.4532 48.3184 25.2566C47.5285 22.9051 46.733 20.5555 45.9319 18.2078C45.8851 18.071 45.7552 17.963 45.6641 17.8419C46.6032 16.9221 47.5129 15.9693 48.4901 15.092C49.3586 14.3128 50.0567 13.4773 50.0892 12.2454L50.1579 12L50.4051 12.6231C50.3989 12.9378 50.3708 13.2538 50.3914 13.5672C50.427 14.1123 50.515 14.6549 50.5394 15.2C50.5849 16.2147 50.6068 17.2312 50.6274 18.2471C50.6605 19.8818 50.6905 21.5171 50.7104 23.1524L50.796 30.9911C50.8022 31.4013 50.8453 31.8109 50.8703 32.2205Z" fill="#60B24F"/>
<path fill-rule="evenodd" clip-rule="evenodd" d="M49.716 61.6402C49.8415 61.0133 50.007 60.3914 50.0844 59.7576C50.2393 58.4938 50.346 57.2238 50.4728 55.9569L50.5046 55.9519L50.5358 55.9575C50.5684 57.5429 50.7917 59.1185 51.2008 60.6505C51.1165 60.7616 50.9985 60.8597 50.9536 60.9846C50.607 61.9624 50.2798 62.9483 49.9314 63.9255C49.884 64.0591 49.7503 64.1634 49.6573 64.2801L49.3008 63.0563L49.716 61.6402Z" fill="#A9AA88"/>
<path fill-rule="evenodd" clip-rule="evenodd" d="M49.6582 64.2807C49.7512 64.1634 49.8849 64.0597 49.9323 63.9261C50.2807 62.9489 50.6079 61.963 50.9545 60.9852C50.9988 60.8603 51.1174 60.7623 51.2017 60.6511L51.8005 61.9649C51.6825 62.1322 51.5189 62.2839 51.4533 62.4706L50.307 65.8374C50.2595 65.9729 50.099 66.0678 49.9904 66.182L49.6582 64.2807Z" fill="#B6B598"/>
<path fill-rule="evenodd" clip-rule="evenodd" d="M49.9883 66.1815C50.0963 66.0673 50.2574 65.9724 50.3049 65.8369L51.4512 62.4701C51.5162 62.2834 51.6804 62.1317 51.7984 61.9644L52.3779 62.4583C52.0981 62.7349 51.9426 63.0546 52.0363 63.4585L51.8602 64.0349C51.7803 64.1335 51.6642 64.2197 51.6248 64.3327C51.2246 65.4791 50.8431 66.6317 50.4397 67.7775C50.3885 67.9224 50.2468 68.0366 50.1475 68.1652L49.9883 66.1815Z" fill="#C2C1A7"/>
<path fill-rule="evenodd" clip-rule="evenodd" d="M50.1482 68.1646C50.2481 68.0359 50.3898 67.9217 50.4404 67.7768C50.8438 66.6311 51.2259 65.4784 51.6255 64.332C51.6648 64.219 51.781 64.1335 51.8609 64.0342L51.618 66.6791C51.5531 66.7541 51.4594 66.8196 51.4282 66.9064L50.6202 69.2217C50.5634 69.3796 50.4548 69.5208 50.3698 69.6687C50.2943 69.5701 50.1594 69.4746 50.1532 69.3722C50.1294 68.9713 50.1463 68.5673 50.1482 68.1646Z" fill="#CECDB7"/>
<path fill-rule="evenodd" clip-rule="evenodd" d="M50.3711 69.6695C50.456 69.5216 50.5647 69.3805 50.6215 69.2225L51.4294 66.9072C51.4607 66.8198 51.5549 66.7549 51.6193 66.6799L51.6255 68.4158L51.0442 69.9062L50.3711 69.6695Z" fill="#DBDAC7"/>
<path fill-rule="evenodd" clip-rule="evenodd" d="M51.043 69.9062L51.6243 68.4158L51.7442 70.1791L51.043 69.9062Z" fill="#EBE9DC"/>
<path fill-rule="evenodd" clip-rule="evenodd" d="M52.0368 63.4583C51.9438 63.0549 52.0986 62.7352 52.3784 62.458L52.5395 62.5679L52.0368 63.4583Z" fill="#CECDB7"/>
<path fill-rule="evenodd" clip-rule="evenodd" d="M50.5338 55.9584L50.5025 55.9528L50.4707 55.9578L50.545 55.6912L50.5338 55.9584Z" fill="#4FAA41"/>
</g>
<defs>
<clipPath id="clip0_568_79">
<rect width="100" height="100" fill="white"/>
</clipPath>
</defs>
</svg>
