<svg width="103" height="100" viewBox="0 0 103 100" fill="none" xmlns="http://www.w3.org/2000/svg">
<g clip-path="url(#clip0_536_181)">
<path d="M85.4 0H17C7.61116 0 0 7.61116 0 17V82.84C0 92.2288 7.61116 99.84 17 99.84H85.4C94.7888 99.84 102.4 92.2288 102.4 82.84V17C102.4 7.61116 94.7888 0 85.4 0Z" fill="#470137"/>
<path d="M9.72421 69.8764V26.188C9.71624 26.1216 9.72189 26.0542 9.74083 25.9901C9.75976 25.9259 9.79158 25.8663 9.83433 25.8149C9.87709 25.7634 9.92988 25.7212 9.98949 25.6909C10.0491 25.6606 10.1143 25.6427 10.181 25.6384L10.2926 25.6312L10.661 25.61L11.0806 25.5908L11.7186 25.568L12.4466 25.548L13.0526 25.5356L15.8654 25.49L17.4898 25.4668L18.521 25.4548L19.5782 25.4448L20.6614 25.438L21.771 25.434L22.9066 25.4324C28.0138 25.4324 32.2674 26.3308 35.6674 28.1276L35.893 28.2488C39.1898 29.9875 41.885 32.681 43.6258 35.9768C45.3442 39.2516 46.2034 43.0184 46.2038 47.2768C46.2542 50.2508 45.8018 53.2119 44.8658 56.0352C44.0579 58.4264 42.8194 60.6497 41.2114 62.5952C39.7137 64.3869 37.9405 65.929 35.9582 67.1636C34.0183 68.3699 31.9057 69.2734 29.6934 69.8428C27.5415 70.4068 25.3268 70.6952 23.1022 70.7012H17.7282L16.7258 70.6984L15.7518 70.6928L14.807 70.6848L13.891 70.6736L12.803 70.6556L11.8462 70.6336L11.1806 70.6128L10.6038 70.5896L10.3486 70.5772L10.1158 70.564C9.85461 70.564 9.72381 70.3348 9.72421 69.8768M18.7298 33.8816V62.3208C19.2082 62.3208 19.643 62.332 20.035 62.3552L20.8326 62.4012L21.2422 62.4236C21.5962 62.444 21.9902 62.4556 22.425 62.4576L22.6454 62.458C24.623 62.4844 26.5894 62.1588 28.4534 61.4964C30.1438 60.8876 31.6728 59.9008 32.9238 58.6112C34.209 57.2548 35.1881 55.6384 35.795 53.8712C36.4981 51.8161 36.8403 49.6549 36.8066 47.4832C36.8474 45.4368 36.5158 43.4001 35.8278 41.4724C35.2351 39.8352 34.2688 38.3587 33.0057 37.1603C31.7426 35.9618 30.2175 35.0744 28.5514 34.5684C26.8319 34.0362 25.0437 33.7584 23.2438 33.744L22.483 33.7452L21.8918 33.7504L21.5278 33.756L21.187 33.764L20.8698 33.7732L20.4966 33.788L20.0274 33.8096L19.2702 33.8496L18.7298 33.8816ZM84.4078 70.5704H76.4222C76.3296 70.5829 76.2354 70.574 76.1468 70.5443C76.0582 70.5145 75.9776 70.4647 75.9114 70.3988C75.8027 70.2398 75.7166 70.0664 75.6558 69.8836L75.3458 68.56L75.1458 67.7004L74.8578 66.4452L74.5818 65.2308L74.3198 64.0572L74.0706 62.9244L73.7586 61.478L73.3186 59.3852L72.7906 56.8308L72.445 55.1232L71.993 52.8372L71.665 51.1372L71.429 49.8772L71.253 48.9112L71.1674 48.4316L71.0502 47.7532L70.979 47.328L70.9138 46.9248L70.8266 46.3612L70.8006 46.1844H70.7366C70.3239 48.0006 69.93 49.8211 69.555 51.6456C69.1887 53.4263 68.7946 55.2011 68.373 56.9696L67.8962 58.9532L67.3786 61.0772L66.8206 63.3412L66.3446 65.2536L65.7126 67.77L65.1786 69.8836C65.093 70.342 64.8594 70.5704 64.4758 70.5704H56.4902C56.2783 70.5932 56.0649 70.5449 55.8834 70.4332C55.7497 70.2989 55.6511 70.1338 55.5962 69.9524L47.291 36.9796C47.163 36.6136 47.3338 36.4304 47.8022 36.43H55.8514C56.235 36.43 56.4474 36.5672 56.4902 36.842L56.9662 38.9516L57.237 40.1624L57.7458 42.4604L58.2834 44.9332L58.6306 46.5624L58.849 47.608L58.9874 48.2828L59.1202 48.9388L59.247 49.5772L59.4262 50.5004L59.5926 51.3824L59.6962 51.9476L59.7938 52.4948L59.9298 53.2816L60.4114 56.1536L60.7382 58.0556L61.0746 59.9964L61.2818 61.2284H61.4098C61.4662 60.6704 61.5498 60.1152 61.6598 59.5656L61.7614 59.0788L62.0978 57.4088L62.5182 55.2824L62.6822 54.472L62.9854 53.0092L63.9794 48.328L64.465 46.0088L64.7102 44.832L64.8662 44.1048L65.0326 43.3576L65.119 42.9764L65.2998 42.1992L65.4898 41.402L65.6894 40.5848L65.8986 39.7476L66.1174 38.8908L66.3462 38.014L66.5842 37.1168C66.6006 36.9248 66.655 36.738 66.7442 36.5672C66.8078 36.476 66.9674 36.43 67.223 36.43H75.5918C75.8478 36.43 75.9958 36.5912 76.039 36.9108L76.2338 37.7508L76.5146 38.976L76.6946 39.7692L77.037 41.2992L77.3566 42.754L77.6526 44.134L77.8598 45.1196L78.6574 48.9972L79.007 50.7212L79.1378 51.3708L79.269 52.0376L79.393 52.6808L79.5086 53.3L79.5634 53.6008L79.6674 54.1848L79.763 54.7448L79.851 55.2816L79.931 55.7944L80.0818 56.8004L80.193 57.5092L80.2654 57.9544L80.3374 58.3776L80.4074 58.7788L80.5114 59.3392C80.6554 60.0545 80.7619 60.7768 80.8306 61.5032H80.9586C81.153 60.706 81.3306 59.7932 81.4902 58.764L81.577 58.1916L81.6706 57.5944L81.7734 56.9724L81.8854 56.3256C81.9046 56.2156 81.9242 56.1048 81.9446 55.9928L82.0698 55.3088L82.4878 53.1072L82.7102 51.9232L83.019 50.2572L83.163 49.4744L83.299 48.7564L83.443 48.0164L83.5942 47.2544L83.7542 46.4704L83.9214 45.6644L84.097 44.8364L84.2802 43.9864L84.485 43.0528L84.697 42.0968L84.9174 41.1184L85.1454 40.1172L85.3814 39.094L85.6254 38.048L85.8774 36.9796C85.9622 36.6136 86.1538 36.4304 86.4526 36.43H93.927C94.3102 36.43 94.459 36.636 94.3742 37.048L85.1746 69.952C85.1193 70.1265 85.0327 70.2896 84.919 70.4332C84.7731 70.544 84.5896 70.5933 84.4078 70.5704Z" fill="#FF61F6"/>
</g>
<defs>
<clipPath id="clip0_536_181">
<rect width="102.4" height="100" fill="white"/>
</clipPath>
</defs>
</svg>
