<svg width="103" height="100" viewBox="0 0 103 100" fill="none" xmlns="http://www.w3.org/2000/svg">
<g clip-path="url(#clip0_536_184)">
<path d="M85.4 0H17C7.61116 0 0 7.61116 0 17V82.84C0 92.2288 7.61116 99.84 17 99.84H85.4C94.7888 99.84 102.4 92.2288 102.4 82.84V17C102.4 7.61116 94.7888 0 85.4 0Z" fill="#49021F"/>
<path d="M37.1866 26.1187V69.8763C37.1866 70.3347 36.9806 70.5635 36.5682 70.5635H28.2562C27.8894 70.5635 27.7062 70.3343 27.707 69.8763V26.1187C27.707 25.7527 27.913 25.5695 28.325 25.5691H36.637C36.7069 25.5592 36.7781 25.5646 36.8457 25.5851C36.9133 25.6055 36.9756 25.6404 37.0283 25.6873C37.0811 25.7342 37.1229 25.7921 37.151 25.8569C37.1791 25.9216 37.1928 25.9917 37.191 26.0623L37.1866 26.1187ZM62.221 71.2459L61.7786 71.2503C58.6169 71.2984 55.4842 70.6414 52.6082 69.3271C49.929 68.0871 47.6893 66.0629 46.1854 63.5223C44.6658 60.9987 43.8878 57.8531 43.851 54.0863L43.8498 53.8023C43.8241 50.6495 44.6298 47.5457 46.1858 44.8035C47.7455 42.0852 50.0203 39.8464 52.763 38.3303L52.9862 38.2087C55.9622 36.5603 59.5574 35.7359 63.771 35.7359L63.8598 35.7363L64.057 35.7407L64.2802 35.7495L64.5294 35.7623L64.8042 35.7795L65.1046 35.8015L65.7834 35.8571L65.969 35.8731V22.3411C65.969 22.0211 66.1066 21.8599 66.381 21.8599H75.0366C75.0926 21.8519 75.1497 21.857 75.2033 21.8748C75.257 21.8927 75.3057 21.9228 75.3457 21.9628C75.3857 22.0028 75.4158 22.0515 75.4337 22.1052C75.4515 22.1588 75.4567 22.2159 75.4486 22.2719V62.8699C75.4515 63.7181 75.4859 64.5659 75.5518 65.4115L75.6166 66.2971L75.6738 67.1215L75.7234 67.8843C75.7319 68.027 75.6971 68.1689 75.6236 68.2916C75.5501 68.4142 75.4413 68.5117 75.3114 68.5715C73.0785 69.5027 70.7527 70.1933 68.3734 70.6319C66.3433 71.0067 64.2856 71.2121 62.2214 71.2459M65.9694 62.7323V43.9791C65.5982 43.8786 65.2191 43.8097 64.8362 43.7731C64.3683 43.726 63.8982 43.703 63.4278 43.7043C61.7606 43.6879 60.1134 44.0643 58.6194 44.8035C57.1641 45.5269 55.9214 46.6158 55.013 47.9635C54.0738 49.3371 53.6042 51.1463 53.6046 53.3903C53.5712 54.8876 53.8157 56.3781 54.3258 57.7863C54.741 58.9211 55.3973 59.9524 56.2494 60.8091C57.0652 61.5972 58.0529 62.185 59.1346 62.5263C60.2772 62.8963 61.4713 63.0819 62.6722 63.0763C63.313 63.0763 63.9082 63.0531 64.4582 63.0071C64.8969 62.9741 65.3317 62.9018 65.7574 62.7911L65.9694 62.7323Z" fill="#FF3366"/>
</g>
<defs>
<clipPath id="clip0_536_184">
<rect width="102.4" height="100" fill="white"/>
</clipPath>
</defs>
</svg>
