<svg width="100" height="100" viewBox="0 0 100 100" fill="none" xmlns="http://www.w3.org/2000/svg">
<g clip-path="url(#clip0_536_187)">
<path d="M46.3992 0.118683C46.0211 0.158527 44.8406 0.298371 43.7992 0.421027C39.6008 0.899933 34.8398 2.16087 30.6617 3.92103C15.5406 10.239 4.16016 24.1007 1.02031 39.9999C0.28125 43.7812 0.101562 45.639 0.101562 49.9999C0.101562 55.621 0.660156 59.4999 2.14063 64.4015C6.98047 80.4406 19.5805 93.0203 35.6609 97.8788C40.5008 99.3406 44.4008 99.8992 50.0008 99.8992C55.6219 99.8992 59.5008 99.3406 64.4023 97.8601C80.4414 93.0202 93.0211 80.4203 97.8797 64.3398C99.3414 59.4999 99.9 55.5999 99.9 49.9999C99.9 47.6195 99.7813 44.9007 99.6406 43.8992C98.0203 32.3398 93.2594 22.6195 85.3219 14.6788C77.3992 6.79915 67.7195 2.02025 56.3992 0.399933C54.8398 0.179621 47.6195 -0.0219419 46.3992 0.118683ZM30.1 31.6187C31.1625 31.939 31.6594 32.239 32.3797 32.9585C33.7805 34.3804 34.1008 35.1593 34.1008 37.2984C34.1008 38.9007 34.0398 39.1999 33.5609 40.039C32.6391 41.5984 30.5 43.039 29.0203 43.0781C27.9789 43.0999 28.0219 42.639 29.1609 41.4398C30.6805 39.8593 30.9 39.2601 30.9 36.8984C30.8812 34.6195 30.6008 33.8406 29.5414 33.1999C28.6602 32.6601 27.7016 32.6999 26.3008 33.3585C22.6602 35.1007 18.7203 40.8999 17.182 46.8413C15.1406 54.7609 18.7602 61.0992 24.7203 60.0187C26.4594 59.6984 29.7398 58.0202 31.1625 56.6984C32.3406 55.621 32.3406 55.5999 32.4594 54.2609C32.7219 51.4585 34.6992 48.6601 37.3422 47.3601C38.5594 46.7585 38.8617 46.7007 40.5008 46.7007C42.0602 46.7007 42.4203 46.7804 43.1805 47.1984C45.6 48.5812 45.1 51.7999 42.4812 51.7999C40.9617 51.7999 40.1805 51.0187 41.282 50.6015C42.3625 50.2015 41.9594 48.6999 40.7023 48.3609C39.2219 47.9796 37.5406 48.9804 36.4812 50.8999C35.2 53.2202 35.1414 55.9812 36.3594 57.239C37.5406 58.4992 39.0203 57.5015 40.1617 54.6382C40.7602 53.1796 41.6203 52.3984 42.6219 52.3984C43.5008 52.3984 43.6625 52.939 43.2805 54.5804C42.7195 57.1195 43.1008 57.7788 44.6813 57.0007C45.2 56.7593 46.0609 56.2015 46.5797 55.8015L47.5594 55.0203L48.2219 51.5593C48.9422 47.6804 49.2195 47.1585 50.7 46.8812C52.1219 46.6187 52.4422 47.3202 51.9203 49.539L51.6391 50.7812L52.6805 49.7187C55.1398 47.1984 58.1609 45.9593 59.2016 46.9999C59.7602 47.5585 59.6992 48.2601 58.9 50.7382C58.5211 51.9195 57.9992 53.7812 57.7617 54.8398C57.4016 56.439 57.3797 56.8203 57.582 57.0804C58.2227 57.8398 60.1813 57.0585 61.9211 55.3585L62.9406 54.3609L63.0625 52.139C63.1813 49.5788 63.4195 48.6601 64.1 47.839C64.7406 47.0796 65.9008 46.521 66.5203 46.6796C67.1398 46.8413 67.1398 47.4398 66.5813 49.2007C65.8 51.6202 65.882 57.1992 66.682 57.1992C67.0023 57.1992 68.6406 55.4804 69.682 54.0406L70.4602 52.9781L69.8406 52.3406C68.7602 51.1999 68.5008 50.4609 68.5008 48.5992C68.5008 47.2413 68.6016 46.7406 68.9398 46.0781C69.5016 45.0406 70.3805 44.2812 71.4211 43.9788C72.5195 43.6398 73.8805 44.1984 74.4391 45.1992C75.0008 46.2187 74.8609 48.4984 74.1398 50.0609L73.6211 51.1992H74.3203C75.2813 51.1992 75.6602 50.9609 77.3812 49.3406C78.2812 48.4804 79.3219 47.739 80.1 47.3788C83.1609 45.9413 86.7625 46.6796 87.3602 48.8796C87.8602 50.6406 86.7625 51.8796 84.8398 51.739C83.4602 51.639 83.2008 51.2781 84.0008 50.6015C85.4406 49.3984 84.0008 47.8609 81.9406 48.4195C80.8203 48.721 79.5602 49.9788 78.9016 51.4406C77.5797 54.3609 78.2812 57.7999 80.1797 57.7999C80.9398 57.7999 82.282 56.2992 82.8008 54.8398C83.4203 53.1585 84.7203 52.0999 85.7 52.4804C86.2406 52.6796 86.2805 53.2195 85.9414 54.9195C85.5602 56.7812 85.5016 58.521 85.8008 59.3202C85.9203 59.6187 86.2805 60.1804 86.6219 60.5593C87.2594 61.2788 87.2813 61.539 86.7406 61.8804C86.4813 62.0601 86.1391 61.9812 85.3008 61.521C84.1406 60.9195 83.1398 59.839 82.7797 58.8195L82.5602 58.221L81.7602 58.8195C81.2992 59.1398 80.5797 59.4999 80.1609 59.6187C78.5008 60.0585 76.4594 58.9202 75.5016 57.0007C75.1195 56.2585 75.0008 54.0804 75.2813 53.2406C75.4406 52.7796 75.4406 52.7796 74.7992 53.0999C74.4609 53.2804 73.7406 53.4788 73.182 53.5398C72.2602 53.6413 72.1195 53.7413 71.2016 54.9007C69.9016 56.5179 67.6 58.7007 66.6602 59.1617C64.6617 60.1593 64.0023 59.8788 63.4805 57.8179L63.1203 56.439L62.2594 57.1992C61.1609 58.1601 58.9609 59.3202 57.7 59.6007C56.5008 59.8601 55.2195 59.4788 54.7 58.6788C53.9227 57.4796 54.182 54.9406 55.4203 51.5195C56.3391 48.9804 55.6805 48.9413 53.3609 51.3609C51.6398 53.1796 50.9008 54.4796 50.4219 56.4999C49.9219 58.5999 49.3203 59.3593 47.9625 59.6796C47.1414 59.8601 46.7594 59.3593 46.9219 58.2609L47.0406 57.3788L46.2805 57.9007C45.2 58.6398 43.8391 59.3202 42.8992 59.5796C41.9594 59.839 40.7203 59.5609 40.4211 59.039C39.8812 58.121 39.8812 58.121 39.0422 58.7796C37.2203 60.2601 34.6203 59.839 33.3016 57.8796L32.8797 57.2601L31.5617 58.4804C27.7594 61.9601 23.0016 63.5195 19.4805 62.439C15 61.0812 12.5219 57.239 12.5617 51.6999C12.5805 46.1398 15.0398 40.2804 19.1813 35.9406C21.5219 33.4992 23.7219 32.0585 25.9625 31.5187C27.5797 31.1187 28.5625 31.139 30.1 31.6187Z" fill="#00C4CC"/>
<path d="M70.6389 45.8406C70.1991 46.2797 70.3608 48.0406 70.9202 49.1609C71.2007 49.7406 71.4999 50.2015 71.5999 50.2015C71.6796 50.2015 71.8593 49.7406 71.9999 49.1789C72.4999 47.1008 71.5999 44.8789 70.6389 45.8406Z" fill="#00C4CC"/>
</g>
<defs>
<clipPath id="clip0_536_187">
<rect width="100" height="100" fill="white"/>
</clipPath>
</defs>
</svg>
