<svg width="100" height="100" viewBox="0 0 100 100" fill="none" xmlns="http://www.w3.org/2000/svg">
<g clip-path="url(#clip0_574_14)">
<path d="M49.8054 0C77.3136 0 99.6109 22.3191 99.6109 49.8541C99.6109 76.5428 78.6599 98.3346 52.3206 99.6459H47.2903C20.9529 98.3346 0 76.5432 0 49.8541C0 22.3191 22.2996 0 49.8054 0Z" fill="#15C39A"/>
<path d="M47.8068 20.6239C58.9909 19.8741 68.9368 25.408 74.4718 34.0566C75.3473 35.5656 74.9224 37.4839 73.4675 38.4936C71.9344 39.5582 69.9173 39.0889 68.7644 37.4644C64.7656 31.8306 57.785 27.1702 49.827 27.1702C34.5582 27.1702 22.8414 42.5037 28.9951 58.5632C31.706 65.6383 38.1313 70.7033 45.6111 71.8792C54.799 73.322 63.2025 70.0512 68.0426 62.9438L65.0181 63.3687H59.799C58.1422 63.3687 56.6091 62.25 56.3142 60.6185C55.927 58.4769 57.5617 56.6107 59.6317 56.6107H77.9562V75.85C77.9564 76.3468 77.8471 76.8376 77.636 77.2873C77.4249 77.7371 77.1172 78.1347 76.7349 78.452C76.3526 78.7693 75.905 78.9983 75.424 79.1229C74.9431 79.2474 74.4406 79.2644 73.9523 79.1726C72.322 78.8776 71.2064 77.3414 71.2064 75.6846V72.4722L71.8407 68.9181C66.4815 75.1146 58.6138 78.9453 49.827 78.9453C33.099 78.9453 19.6484 65.0878 20.622 48.1154C21.4589 33.5298 33.2446 21.6022 47.8068 20.6239Z" fill="white"/>
</g>
<defs>
<clipPath id="clip0_574_14">
<rect width="99.6109" height="100" fill="white"/>
</clipPath>
</defs>
</svg>
