<svg width="100" height="100" viewBox="0 0 100 100" fill="none" xmlns="http://www.w3.org/2000/svg">
<g clip-path="url(#clip0_572_8)">
<path d="M67.6562 32.3438C77.4219 42.1094 77.4219 57.9297 67.6562 67.6953C62.7734 72.5781 62.7734 80.5078 67.6562 85.3516C72.5391 90.2344 80.4688 90.2344 85.3516 85.3516C104.883 65.8203 104.883 34.1797 85.3516 14.6484L67.6562 32.3438Z" fill="#EA4335"/>
<path d="M85.3125 14.6484C65.7812 -4.88281 34.1797 -4.88281 14.6484 14.6484C-4.88281 34.1797 -4.88281 65.8203 14.6484 85.3516L32.3438 67.6953C22.5781 57.9297 22.5781 42.1094 32.3438 32.3438C42.1094 22.5781 57.9297 22.5781 67.6953 32.3438C72.5781 37.2266 80.5078 37.2266 85.3906 32.3438C90.1953 27.4609 90.1953 19.5312 85.3125 14.6484Z" fill="url(#paint0_linear_572_8)"/>
<path d="M85.3125 85.3516L67.6172 67.6953C57.8516 77.4609 42.0313 77.4609 32.2656 67.6953L14.5703 85.3516C34.1797 104.883 65.7812 104.883 85.3125 85.3516Z" fill="#FBBC04"/>
<path d="M67.6562 67.6953C72.5391 62.8125 80.4297 62.8125 85.3125 67.6953C90.1953 72.5781 90.1953 80.5078 85.3125 85.3906C80.4297 90.2734 72.5391 90.2734 67.6562 85.3906C62.7734 80.5078 62.7734 72.5781 67.6562 67.6953Z" fill="#EA4335"/>
<path d="M14.6484 67.6953C19.5312 62.8125 27.4219 62.8125 32.3047 67.6953C37.1875 72.5781 37.1875 80.5078 32.3047 85.3906C27.4219 90.2734 19.5312 90.2734 14.6484 85.3906C9.76562 80.5078 9.76562 72.5781 14.6484 67.6953Z" fill="#34A853"/>
</g>
<defs>
<linearGradient id="paint0_linear_572_8" x1="0" y1="4267.58" x2="8898.35" y2="4267.58" gradientUnits="userSpaceOnUse">
<stop stop-color="#246FDB"/>
<stop offset="0.0552" stop-color="#2973DF"/>
<stop offset="0.2781" stop-color="#377DEB"/>
<stop offset="0.5491" stop-color="#3F83F2"/>
<stop offset="1" stop-color="#4285F4"/>
</linearGradient>
<clipPath id="clip0_572_8">
<rect width="100" height="100" fill="white"/>
</clipPath>
</defs>
</svg>
