<svg xmlns="http://www.w3.org/2000/svg" viewBox="0 0 415.24 405.36"><defs><style>.cls-1{fill:#00a3d4;}.cls-1,.cls-3,.cls-4{fill-rule:evenodd;}.cls-2,.cls-3{fill:#08346c;}.cls-4{fill:#fff;}</style></defs><g id="Layer_2" data-name="Layer 2"><g id="w"><path class="cls-1" d="M109.43,66.71H229.16s11.07-30.29-22.32-34.09c-17.26.23-32,21.23-55.05,6.4C124.5,20.52,100.35,47,109.43,66.71Z"/><path class="cls-1" d="M147.49,29.84s14.73-2.55,22-13.18c0,0,7.34,11.71,21.45,12.78C190.9,29.44,173.47,46.35,147.49,29.84Z"/><rect class="cls-2" x="113.85" y="70.44" width="110.7" height="13.32"/><polygon class="cls-3" points="121.3 87.11 121.3 151 218.44 151 218.44 87.11 209.38 87.11 209.38 144.08 131.46 144.08 131.46 87.09 121.3 87.11"/><path class="cls-3" d="M136.44,87.09v49.53s25.16-2.4,34.06-49.53Z"/><path class="cls-3" d="M204.4,87.09v48.82s-25-1.69-33.9-48.82Z"/><rect class="cls-2" x="162.99" width="12.42" height="11.72"/><path class="cls-1" d="M56.91,405.36h46.32s-46.32-92.65,109.55-95.85c0,0,68.89,5.33,52,94.79h39.53s14.39-82.27-33-151c0,0,1.69-10.38,13.54,8.79l9.33,12.79,24.56-1.6s17.8,10.37,22,28.75c0,0,18.64,84.67,74.55,54.31l-.84-15.17S362.71,373.94,367,275.7c0,0,37.27-123-75.39-111.83,0,0-175.35-18.37-204.15,5.59a86.48,86.48,0,0,0-33.25,32.76l0,0c-29.77,25.68-15,103-33.66,112-7-3-17.57,4.4-20.52,11.66,4.45,5.45,22.67.73,25.21-4.42,2.15-1.78,10.64-10.52,11.37-37.7,0,0,.67-29.91,8.45-41.91a83.65,83.65,0,0,0,.88,9.17s2.53,38.33,11.85,48.72C57.76,299.66,70.47,371.28,56.91,405.36Z"/><path class="cls-1" d="M103.78,350.51s23.72-13.32,32.76-19.17c0,0-5.08,46.85,12.43,63.37H111.12S114,371.28,103.78,350.51Z"/><path class="cls-1" d="M223,319.09s6.21,51.65-22,75.62h41.78s16.94-35.68,17.51-46.33C260.22,348.38,255.14,328.68,223,319.09Z"/><path class="cls-4" d="M372.63,241.22s.24-31.82-42.1-38.2c0,0-36.84,3.64-37.4-39,.42-.35,10.45-1.68,22.87-.4,9.54,1,21.38,3,33.23,11.7a44,44,0,0,1,5.33,4.56c.72.71,1.46,1.44,2.13,2.24s1.32,1.61,2.06,2.42a46,46,0,0,1,7.51,12.63c1,2.58,2,5,2.75,7.51.67,2.23,1.23,4.53,1.78,7.07.68,3.2,1.17,7.13,1.55,10.41a75.2,75.2,0,0,1,.43,10.27C372.77,234.71,373,239.43,372.63,241.22Z"/><path class="cls-3" d="M298.61,165.73s22.6,10.12,32.76,2.94c0,0-17.78,12.77-.84,21.56,0,0,10.48,8,23.19-11.14,0,0-2.56,21.31,11.57,16,.38,0-9.08-21.62-33.34-28.31A69.4,69.4,0,0,0,298.61,165.73Z"/><path class="cls-3" d="M328.82,216.59s22-6.38,28.82,15.18h-5.52S351.28,219,330.94,221Z"/><path class="cls-4" d="M93.05,166.05V303.11s78.5-33,154.18,2.13V160.14c-2.31-.15-16.65-1.07-36.17-2.1-25.89-1.37-56.88-.72-60.57-.61s-8.73.38-12.5.58c-7.35.41-14.07,1.14-20.9,2a99.77,99.77,0,0,0-21.74,5.06c-.65.26-1.25.51-1.9.79Z"/><path class="cls-3" d="M97.57,164.28,98.7,291.89s64.94-21.83,144,1.07V159.84s-38.64-2.82-77.06-2.69C137.33,157.25,110.8,159.79,97.57,164.28Z"/><path class="cls-4" d="M113.39,160.6l-.56,112.71s71.16-13.32,114.06,0V158.88a769,769,0,0,0-80.11-1.3A276.13,276.13,0,0,0,113.39,160.6Z"/><path class="cls-3" d="M142.75,190.23s27.67-3.73,27.11,37.81c0,0-18.64,5.33-19.2-13.84C150.66,214.2,152.92,198.22,142.75,190.23Z"/><path class="cls-3" d="M197.54,190.23s-27.67-3.73-27.1,37.81c0,0,18.63,5.33,19.2-13.84C189.64,214.2,187.37,198.22,197.54,190.23Z"/><polygon class="cls-3" points="170.42 177.6 159.99 188.01 170.99 197.69 181.24 187.66 170.42 177.6"/><path class="cls-1" d="M117.7,163.08v18.64S141.41,173.73,117.7,163.08Z"/><path class="cls-1" d="M117.7,192.9v18.64S141.41,203.55,117.7,192.9Z"/><path class="cls-1" d="M117.7,221.12v18.63S141.41,231.77,117.7,221.12Z"/><path class="cls-1" d="M222,163.08v18.64S198.31,173.73,222,163.08Z"/><path class="cls-1" d="M222,192.9v18.64S198.31,203.55,222,192.9Z"/><path class="cls-1" d="M222,221.12v18.63S198.31,231.77,222,221.12Z"/><path class="cls-1" d="M168.64,262.56H148.88S157.35,240.21,168.64,262.56Z"/><path class="cls-1" d="M193.49,262.56H173.72S182.19,240.21,193.49,262.56Z"/><path class="cls-1" d="M117.7,265.32s1.69-20.77,26.55-26.62C144.25,238.7,137.47,266.92,117.7,265.32Z"/><path class="cls-1" d="M195.49,238.69s6.78,28.23,26.54,26.63C222,265.32,220.34,244.55,195.49,238.69Z"/></g></g></svg>