<svg width="100" height="100" viewBox="0 0 100 100" fill="none" xmlns="http://www.w3.org/2000/svg">
<g clip-path="url(#clip0_579_148)">
<path d="M46.0359 0.0466617C45.6578 0.0865054 44.4773 0.226349 43.4359 0.349005C39.2375 0.827912 34.4766 2.08885 30.2984 3.84901C15.1773 10.167 3.79688 24.0287 0.657031 39.9279C-0.0820312 43.7092 -0.261719 45.567 -0.261719 49.9279C-0.261719 55.549 0.296875 59.4279 1.77734 64.3295C6.61719 80.3685 19.2172 92.9482 35.2977 97.8068C40.1375 99.2685 44.0375 99.8271 49.6375 99.8271C55.2586 99.8271 59.1375 99.2685 64.0391 97.7881C80.0781 92.9482 92.6578 80.3482 97.5164 64.2678C98.9781 59.4279 99.5367 55.5279 99.5367 49.9279C99.5367 47.5474 99.418 44.8287 99.2773 43.8271C97.657 32.2678 92.8961 22.5474 84.9586 14.6068C77.0359 6.72713 67.3563 1.94822 56.0359 0.327912C54.4766 0.107599 47.2562 -0.0939633 46.0359 0.0466617ZM29.7367 31.5467C30.7992 31.867 31.2961 32.167 32.0164 32.8865C33.4172 34.3084 33.7375 35.0873 33.7375 37.2263C33.7375 38.8287 33.6766 39.1279 33.1977 39.967C32.2758 41.5263 30.1367 42.967 28.657 43.006C27.6156 43.0279 27.6586 42.567 28.7977 41.3678C30.3172 39.7873 30.5367 39.1881 30.5367 36.8263C30.518 34.5474 30.2375 33.7685 29.1781 33.1279C28.2969 32.5881 27.3383 32.6279 25.9375 33.2865C22.2969 35.0287 18.357 40.8279 16.8188 46.7693C14.7773 54.6888 18.3969 61.0271 24.357 59.9467C26.0961 59.6263 29.3766 57.9482 30.7992 56.6263C31.9773 55.549 31.9773 55.5279 32.0961 54.1889C32.3586 51.3865 34.3359 48.5881 36.9789 47.2881C38.1961 46.6865 38.4984 46.6287 40.1375 46.6287C41.6969 46.6287 42.057 46.7084 42.8172 47.1263C45.2367 48.5092 44.7367 51.7279 42.118 51.7279C40.5984 51.7279 39.8172 50.9467 40.9187 50.5295C41.9992 50.1295 41.5961 48.6279 40.3391 48.2888C38.8586 47.9076 37.1773 48.9084 36.118 50.8279C34.8367 53.1482 34.7781 55.9092 35.9961 57.167C37.1773 58.4271 38.657 57.4295 39.7984 54.5662C40.3969 53.1076 41.257 52.3264 42.2586 52.3264C43.1375 52.3264 43.2992 52.867 42.9172 54.5084C42.3562 57.0474 42.7375 57.7068 44.318 56.9287C44.8367 56.6873 45.6977 56.1295 46.2164 55.7295L47.1961 54.9482L47.8586 51.4873C48.5789 47.6084 48.8562 47.0865 50.3367 46.8092C51.7586 46.5467 52.0789 47.2482 51.557 49.467L51.2758 50.7092L52.3172 49.6467C54.7766 47.1263 57.7977 45.8873 58.8383 46.9279C59.3969 47.4865 59.3359 48.1881 58.5367 50.6662C58.1578 51.8474 57.6359 53.7092 57.3984 54.7678C57.0383 56.367 57.0164 56.7482 57.2188 57.0084C57.8594 57.7678 59.818 56.9865 61.5578 55.2865L62.5773 54.2889L62.6992 52.067C62.818 49.5068 63.0562 48.5881 63.7367 47.767C64.3773 47.0076 65.5375 46.449 66.157 46.6076C66.7766 46.7693 66.7766 47.3678 66.218 49.1287C65.4367 51.5482 65.5187 57.1271 66.3187 57.1271C66.6391 57.1271 68.2773 55.4084 69.3188 53.9685L70.0969 52.906L69.4773 52.2685C68.3969 51.1279 68.1375 50.3888 68.1375 48.5271C68.1375 47.1693 68.2383 46.6685 68.5766 46.006C69.1383 44.9685 70.0172 44.2092 71.0578 43.9068C72.1563 43.5678 73.5172 44.1263 74.0758 45.1271C74.6375 46.1467 74.4977 48.4264 73.7766 49.9889L73.2578 51.1271H73.957C74.918 51.1271 75.2969 50.8888 77.018 49.2685C77.918 48.4084 78.9586 47.667 79.7367 47.3068C82.7977 45.8693 86.3992 46.6076 86.9969 48.8076C87.4969 50.5685 86.3992 51.8076 84.4766 51.667C83.0969 51.567 82.8375 51.206 83.6375 50.5295C85.0773 49.3263 83.6375 47.7888 81.5773 48.3474C80.457 48.649 79.1969 49.9068 78.5383 51.3685C77.2164 54.2889 77.918 57.7279 79.8164 57.7279C80.5766 57.7279 81.9188 56.2271 82.4375 54.7678C83.057 53.0865 84.357 52.0279 85.3367 52.4084C85.8773 52.6076 85.9172 53.1474 85.5781 54.8474C85.1969 56.7092 85.1383 58.449 85.4375 59.2482C85.557 59.5467 85.9172 60.1084 86.2586 60.4873C86.8961 61.2068 86.918 61.467 86.3773 61.8084C86.118 61.9881 85.7758 61.9092 84.9375 61.449C83.7773 60.8474 82.7766 59.767 82.4164 58.7474L82.1969 58.149L81.3969 58.7474C80.9359 59.0678 80.2164 59.4279 79.7977 59.5467C78.1375 59.9865 76.0961 58.8482 75.1383 56.9287C74.7563 56.1865 74.6375 54.0084 74.918 53.1685C75.0773 52.7076 75.0773 52.7076 74.4359 53.0279C74.0977 53.2084 73.3773 53.4068 72.8187 53.4678C71.8969 53.5693 71.7563 53.6693 70.8383 54.8287C69.5383 56.4459 67.2367 58.6287 66.2969 59.0896C64.2984 60.0873 63.6391 59.8068 63.1172 57.7459L62.757 56.367L61.8961 57.1271C60.7977 58.0881 58.5977 59.2482 57.3367 59.5287C56.1375 59.7881 54.8563 59.4068 54.3367 58.6068C53.5594 57.4076 53.8187 54.8685 55.057 51.4474C55.9758 48.9084 55.3172 48.8693 52.9977 51.2888C51.2766 53.1076 50.5375 54.4076 50.0586 56.4279C49.5586 58.5279 48.957 59.2873 47.5992 59.6076C46.7781 59.7881 46.3961 59.2873 46.5586 58.1888L46.6773 57.3068L45.9172 57.8287C44.8367 58.5678 43.4758 59.2482 42.5359 59.5076C41.5961 59.767 40.357 59.4889 40.0578 58.967C39.518 58.049 39.518 58.049 38.6789 58.7076C36.857 60.1881 34.257 59.767 32.9383 57.8076L32.5164 57.1881L31.1984 58.4084C27.3961 61.8881 22.6383 63.4474 19.1172 62.367C14.6367 61.0092 12.1586 57.167 12.1984 51.6279C12.2172 46.0678 14.6766 40.2084 18.818 35.8685C21.1586 33.4271 23.3586 31.9865 25.5992 31.4467C27.2164 31.0467 28.1992 31.067 29.7367 31.5467Z" fill="url(#paint0_linear_579_148)"/>
<path d="M70.2757 45.7686C69.8358 46.2076 69.9975 47.9686 70.5569 49.0889C70.8374 49.6686 71.1366 50.1295 71.2366 50.1295C71.3163 50.1295 71.496 49.6686 71.6366 49.1069C72.1366 47.0287 71.2366 44.8069 70.2757 45.7686Z" fill="#3371DC"/>
</g>
<defs>
<linearGradient id="paint0_linear_579_148" x1="49.6375" y1="0" x2="49.6375" y2="99.8271" gradientUnits="userSpaceOnUse">
<stop stop-color="#00BBC9"/>
<stop offset="0.51" stop-color="#3B63DF"/>
<stop offset="1" stop-color="#7427E9"/>
</linearGradient>
<clipPath id="clip0_579_148">
<rect width="100" height="100" fill="white"/>
</clipPath>
</defs>
</svg>
