<svg width="112" height="100" viewBox="0 0 112 100" fill="none" xmlns="http://www.w3.org/2000/svg">
<g clip-path="url(#clip0_542_304)">
<path d="M2.55966 72.35L39.5127 9.08691C44.2066 11.8504 67.8762 24.9495 71.6988 27.4408L34.7457 90.7074C30.7044 96.0465 -2.56034 80.4521 2.55966 72.3465V72.35Z" fill="#FBBC04"/>
<path d="M108.732 72.3487L71.7794 9.08954C66.6133 0.492147 55.4872 -2.6322 46.3485 2.44563C37.2098 7.52345 34.4272 18.4617 39.5933 27.443L76.5463 90.71C81.7124 99.3035 92.8389 102.427 101.978 97.35C110.717 92.2717 113.898 80.9456 108.732 72.3561V72.3487Z" fill="#4285F4"/>
<path d="M18.5496 99.7946C28.7942 99.7946 37.0991 91.696 37.0991 81.7059C37.0991 71.7158 28.7942 63.6172 18.5496 63.6172C8.30492 63.6172 0 71.7158 0 81.7059C0 91.696 8.30492 99.7946 18.5496 99.7946Z" fill="#34A853"/>
</g>
<defs>
<clipPath id="clip0_542_304">
<rect width="111.304" height="100" fill="white"/>
</clipPath>
</defs>
</svg>
