<svg width="96" height="100" viewBox="0 0 96 100" fill="none" xmlns="http://www.w3.org/2000/svg">
<g clip-path="url(#clip0_542_309)">
<path d="M62.7791 62.7797C58.8553 66.7035 53.7494 68.7998 48.5891 69.0685C48.2665 69.0685 47.8903 69.1221 47.568 69.1221C47.2453 69.1221 46.8691 69.1221 46.5468 69.0685C41.0103 68.9072 35.5282 67.4024 30.5828 64.6072C27.949 63.1024 25.4765 61.2748 23.2728 59.0172C19.8865 55.6306 17.3605 51.7607 15.6943 47.6221C11.7706 37.9473 12.4691 26.9284 17.6832 17.7373C7.25568 23.596 0.267578 34.776 0.267578 47.5685C0.267578 60.3611 7.25494 71.541 17.6824 77.4533C22.6813 80.302 28.4862 81.9685 34.6676 81.9685C39.2364 81.9685 43.5899 81.0548 47.5672 79.4421C54.7702 76.5395 60.7903 71.2722 64.5523 64.5537C67.2401 59.8235 68.8523 54.3946 69.0137 48.5897C68.7988 53.8035 66.7025 58.8559 62.7787 62.7797" fill="#4FC3F7"/>
<path d="M71.8638 10.3735C58.4262 -3.0633 36.6582 -3.0633 23.2203 10.3735C20.9627 12.6311 19.1351 15.104 17.6303 17.6839C12.4166 26.8754 11.7716 37.8939 15.6954 47.5687C17.3615 51.7077 19.8876 55.6315 23.2738 58.9638C25.5314 61.2215 28.0039 63.049 30.5838 64.5538C35.5288 67.349 41.0114 68.8538 46.5478 69.0151C41.3879 68.7464 36.3351 66.6501 32.3578 62.7263C28.1653 58.5876 26.069 53.0516 26.069 47.569V47.5151C26.069 41.5569 27.6254 35.7019 30.5838 30.53C32.089 27.8965 33.9166 25.4241 36.1738 23.2203C39.5604 19.8337 43.4303 17.3077 47.569 15.6415C57.2441 11.7177 68.3162 12.4166 77.5076 17.6304C76.0028 15.0505 74.121 12.5772 71.8638 10.3735Z" fill="#4285F4"/>
<path opacity="0.2" d="M47.5685 15.1577C43.4299 16.8239 39.5061 19.3499 36.1734 22.7361C33.9161 24.9938 32.0886 27.4662 30.5834 30.0462C27.5734 35.2599 26.0685 41.1187 26.0685 46.9774V47.2462C26.1221 41.4952 27.6273 35.69 30.5834 30.5302C32.0886 27.8964 33.9161 25.4239 36.1734 23.2202C39.56 19.8335 43.4299 17.3075 47.5685 15.6413C57.2436 11.7175 68.3158 12.4164 77.5072 17.6302L77.0236 16.8235C67.9396 11.8789 57.0823 11.2874 47.5685 15.1577ZM23.2734 58.4261C19.8871 55.0399 17.3611 51.17 15.6949 47.0313C14.0284 42.8926 13.1685 38.5387 13.1685 34.1852C13.1146 38.754 13.921 43.2688 15.6949 47.5688C17.3611 51.7075 19.8871 55.6313 23.2734 58.9636C25.531 61.2213 28.0035 63.0488 30.5834 64.5536C35.5284 67.3488 41.0109 68.8536 46.5474 69.0149C44.2897 68.9075 42.0321 68.4239 39.8819 67.6172C36.6574 66.8651 33.5399 65.6826 30.5834 64.0164C27.9496 62.5651 25.4771 60.6837 23.2734 58.4261Z" fill="#1A237E"/>
<path d="M84.7632 23.2738C82.5059 21.0166 80.0334 19.1891 77.4531 17.6839C68.262 12.4701 57.1892 11.7716 47.5145 15.695C43.3758 17.3616 39.452 19.8876 36.1197 23.2738C33.862 25.5318 32.0345 28.004 30.5297 30.5839C27.6058 35.7478 26.0689 41.5809 26.0684 47.5151C26.0684 42.0326 28.1646 36.5501 32.3572 32.3579C36.2806 28.4341 41.3869 26.3378 46.5468 26.069C47.2457 26.0151 47.9446 26.0151 48.5896 26.069C54.1256 26.2304 59.6081 27.7352 64.5531 30.53C67.1869 32.0356 69.6594 33.8627 71.8632 36.1203C75.2498 39.5066 77.7758 43.3765 79.442 47.5151C83.3658 57.1902 82.6669 68.2623 77.4531 77.3999C80.087 75.895 82.5594 74.0675 84.7632 71.8103C98.2007 58.4802 98.2007 36.6579 84.7632 23.2738Z" fill="#FFC107"/>
<path opacity="0.2" d="M26.0684 48.1062C26.0684 53.5887 28.1646 59.1248 32.3572 63.3173C36.2806 67.2411 41.3869 69.3374 46.5468 69.6062C46.8695 69.6062 47.2457 69.6597 47.5684 69.6597C47.8907 69.6597 48.2672 69.6597 48.5896 69.6062C53.7494 69.3374 58.8022 67.2411 62.7795 63.3173C66.3806 59.7162 68.4234 55.1474 68.9609 50.4712C69.0145 49.8802 69.0684 49.2348 69.0684 48.6437C68.7996 53.8036 66.7033 58.856 62.7795 62.7798C58.8557 66.7036 53.7498 68.7999 48.5896 69.0686C48.2669 69.0686 47.8907 69.1222 47.5684 69.1222C47.2457 69.1222 46.8695 69.1222 46.5472 69.0686C41.3873 68.7999 36.3345 66.7036 32.3572 62.7798C28.2182 58.6411 26.1758 53.266 26.0684 47.8374V48.1062Z" fill="white"/>
<path opacity="0.2" d="M79.4959 47.0314C77.8293 42.8927 75.3033 38.9689 71.9171 35.6362C69.6594 33.3789 67.187 31.5514 64.607 30.0462C59.662 27.2514 54.1795 25.7462 48.6435 25.5853C47.9636 25.5315 47.2806 25.5315 46.6007 25.5853C41.4409 25.854 36.3884 27.8964 32.4111 31.8737C28.1646 36.0128 26.0684 41.4949 26.0684 46.9778V47.3001C26.1219 41.8715 28.2182 36.4964 32.3572 32.3578C36.2806 28.434 41.3869 26.3377 46.5468 26.0689C47.2457 26.015 47.9446 26.015 48.5896 26.0689C54.1256 26.2302 59.6081 27.7351 64.5531 30.5299C67.187 32.0354 69.6594 33.8626 71.8632 36.1202C75.2498 39.5065 77.7758 43.3763 79.442 47.515C81.1081 51.6537 81.9145 56.0076 81.9145 60.3615C82.0223 55.8462 81.2156 51.3314 79.4959 47.0314ZM84.7632 71.3262C82.6669 73.4228 80.3022 75.196 77.8293 76.6477C77.6684 76.9161 77.5609 77.1849 77.3996 77.4537C80.0334 75.9488 82.5059 74.1213 84.7096 71.8637C91.4821 65.0912 94.8684 56.1685 94.7606 47.2466C94.8145 56.0076 91.4282 64.715 84.7632 71.3262Z" fill="#BF360C"/>
<path opacity="0.2" d="M71.8638 36.711C75.2501 40.0977 77.7761 43.9675 79.4423 48.1062C81.1088 52.2449 81.9147 56.5988 81.9147 60.9523C81.9687 56.3835 81.1623 51.8687 79.4426 47.5687C77.7761 43.43 75.2501 39.5062 71.8638 36.1735C69.6062 33.9162 67.1337 32.0887 64.5538 30.5835C59.6088 27.7887 54.1263 26.2835 48.5898 26.1226C50.8475 26.23 53.1051 26.7136 55.2553 27.52C58.4798 28.2724 61.5973 29.4549 64.5538 31.1211C67.1876 32.5724 69.6601 34.4538 71.8638 36.711Z" fill="#1A237E"/>
<path opacity="0.2" d="M84.7643 23.2738C82.5071 21.0165 80.0346 19.189 77.4543 17.6838C75.9495 15.0504 74.1219 12.5775 71.8643 10.3738C58.4268 -3.06339 36.6584 -3.06339 23.2208 10.3738C20.9632 12.6314 19.1357 15.1039 17.6309 17.6838C7.25689 23.5965 0.269531 34.7764 0.269531 47.5689V47.8381C0.377338 35.3139 7.14946 24.4031 17.2008 18.4905C14.513 23.5429 13.1695 29.1329 13.1695 34.7228C13.2773 29.0255 14.7283 23.3281 17.6305 18.2217C19.1361 15.5879 20.9632 13.1154 23.2208 10.9117C36.6584 -2.52585 58.4268 -2.52585 71.8643 10.9117C73.8532 12.9005 75.5732 15.1043 76.9706 17.4693C67.887 12.4704 57.0294 11.8794 47.5156 15.7492C43.377 17.4154 39.4532 19.9418 36.1208 23.3281C33.8632 25.5857 32.0357 28.0582 30.5309 30.6381C27.5744 35.7979 26.0695 41.6567 26.0695 47.5154C26.0695 46.8165 26.1231 46.0641 26.1773 45.3656C26.5532 40.4206 28.0584 35.5292 30.5844 31.0682C32.0896 28.4344 33.9171 25.9619 36.1744 23.7582C39.561 20.3715 43.4309 17.8455 47.5695 16.1794C57.2446 12.2556 68.3167 12.9544 77.5082 18.1682C80.142 19.673 82.6145 21.5005 84.8182 23.7582C91.4833 30.4228 94.8156 39.0768 94.8706 47.8381C94.9231 38.9154 91.5907 30.0463 84.7643 23.2738Z" fill="white"/>
<g filter="url(#filter0_d_542_309)">
<path d="M79.4966 47.5687C77.8305 43.43 75.3044 39.5062 71.9182 36.1735C69.6606 33.9162 67.1881 32.0887 64.6082 30.5835C59.6632 27.7887 54.1807 26.2835 48.6442 26.1226C53.8041 26.391 58.8569 28.4337 62.8342 32.411C66.7041 36.2809 68.8007 41.3872 69.0691 46.4936C69.0691 46.8698 69.123 47.1924 69.123 47.5687C69.123 47.9449 69.123 48.2675 69.0691 48.6437C68.9082 54.4486 67.2955 59.8772 64.6082 64.6073C60.7918 71.2724 54.8256 76.5936 47.623 79.4958C43.6453 81.1084 39.2918 82.0222 34.7234 82.0222C28.542 82.0222 22.7368 80.356 17.7383 77.5073C19.2431 80.1412 21.0706 82.6136 23.3282 84.8174C36.7654 98.2549 58.5342 98.2549 71.9717 84.8174C74.2294 82.5597 76.0569 80.0872 77.5617 77.5073C82.7216 68.3162 83.3669 57.2434 79.4966 47.5687" fill="black"/>
</g>
<path d="M79.497 47.5687C77.8308 43.43 75.3044 39.5062 71.9182 36.1735C69.6606 33.9162 67.1881 32.0887 64.6082 30.5835C59.6632 27.7887 54.1807 26.2835 48.6446 26.1226C53.8045 26.391 58.8569 28.4337 62.8342 32.411C66.7045 36.2809 68.8007 41.3872 69.0695 46.4936C69.0695 46.8698 69.123 47.1924 69.123 47.5687C69.123 47.9449 69.123 48.2675 69.0695 48.6438C68.9082 54.4486 67.2955 59.8772 64.6085 64.6073C60.7918 71.2724 54.8256 76.5936 47.6234 79.4958C43.6457 81.1084 39.2918 82.0222 34.7234 82.0222C28.542 82.0222 22.7372 80.356 17.7383 77.5073C19.2431 80.1412 21.0706 82.6136 23.3282 84.8174C36.7658 98.2549 58.5346 98.2549 71.9721 84.8174C74.2294 82.5597 76.0569 80.0872 77.5621 77.5073C82.7219 68.3162 83.3669 57.2434 79.497 47.5687Z" fill="#3367D6"/>
<path opacity="0.2" d="M47.5695 79.98C54.7721 77.0774 60.7383 71.8101 64.5546 65.0915C67.242 60.3614 68.8543 54.9324 69.0156 49.1276C69.0156 48.7514 69.0695 48.4287 69.0695 48.0525V47.7837V48.5904C68.9082 54.3952 67.2955 59.8238 64.6085 64.554C60.7918 71.2186 54.8256 76.5402 47.6234 79.4424C43.6457 81.0551 39.2918 81.9688 34.7234 81.9688C28.542 81.9688 22.7372 80.3027 17.7383 77.454L18.2219 78.2599C23.2935 81.0498 28.9887 82.5107 34.7769 82.5064C39.2379 82.5064 43.5918 81.5926 47.5695 79.98Z" fill="#1A237E"/>
<path opacity="0.2" d="M18.1145 77.7221C23.1861 80.512 28.8813 81.9729 34.6695 81.9686C39.2383 81.9686 43.5918 81.0548 47.5692 79.4422C54.7721 76.5396 60.7922 71.2723 64.5543 64.5537C67.242 59.8236 68.8543 54.3946 69.0156 48.5898C69.0156 49.0199 68.9621 49.4496 68.9082 49.8797C68.4781 54.986 66.9732 59.7697 64.5543 64.0162C60.7383 70.7348 54.7721 76.0024 47.5692 78.9046C43.5918 80.5173 39.2383 81.431 34.6695 81.431C28.4881 81.431 22.6833 79.7649 17.6844 76.9162C7.3647 71.0574 0.376966 59.9849 0.269531 47.2998V47.5686C0.269531 60.3611 7.25689 71.5411 17.6844 77.4533" fill="#1A237E"/>
<path d="M72.1855 36.4961C75.4105 39.7749 77.829 43.5909 79.4421 47.5686C83.3655 57.2437 82.6666 68.3158 77.4532 77.4533C80.0867 75.9485 82.5592 74.121 84.7629 71.8634C88.9015 67.7247 91.7506 62.8336 93.3093 57.6199L72.1855 36.4961Z" fill="url(#paint0_linear_542_309)"/>
<path opacity="0.2" d="M77.4543 76.9162C75.9495 79.55 74.1219 82.0225 71.8643 84.2262C58.4268 97.6637 36.6584 97.6637 23.2208 84.2262C21.2637 82.2713 19.5492 80.0876 18.1145 77.7225C17.9532 77.615 17.7918 77.5615 17.6309 77.4537C19.1357 80.0875 20.9632 82.56 23.2208 84.7637C36.6584 98.2013 58.4268 98.2013 71.8643 84.7637C74.1219 82.5065 75.9495 80.034 77.4543 77.4537C80.4643 72.186 81.9695 66.2738 81.9156 60.415C81.8621 66.1124 80.4104 71.8102 77.4543 76.9162Z" fill="#1A237E"/>
<path d="M84.7643 23.2738C82.5071 21.0165 80.0342 19.189 77.4543 17.6838C75.9495 15.05 74.1219 12.5775 71.8643 10.3738C58.4268 -3.06339 36.6584 -3.06339 23.2208 10.3738C20.9632 12.6314 19.1357 15.1039 17.6309 17.6838C7.25689 23.5965 0.269531 34.7764 0.269531 47.5689C0.269531 60.3619 7.25689 71.5418 17.6844 77.4541C19.1896 80.0879 21.0171 82.5604 23.2744 84.7641C36.7119 98.2017 58.4807 98.2017 71.9182 84.7641C74.1755 82.5069 76.003 80.034 77.5082 77.4541C80.142 75.9492 82.6145 74.1217 84.8182 71.8641C98.2019 58.4805 98.2019 36.6578 84.7643 23.2738ZM69.0692 47.5693C69.0692 59.4481 59.4483 69.0693 47.5695 69.0693C35.6907 69.0693 26.0695 59.4481 26.0695 47.5693C26.0695 35.6905 35.6907 26.0693 47.5695 26.0693C59.4483 26.0693 69.0692 35.6905 69.0692 47.5693Z" fill="url(#paint1_radial_542_309)" fill-opacity="0.1"/>
</g>
<defs>
<filter id="filter0_d_542_309" x="16.7383" y="24.1226" width="76.2461" height="80.7729" filterUnits="userSpaceOnUse" color-interpolation-filters="sRGB">
<feFlood flood-opacity="0" result="BackgroundImageFix"/>
<feColorMatrix in="SourceAlpha" type="matrix" values="0 0 0 0 0 0 0 0 0 0 0 0 0 0 0 0 0 0 127 0" result="hardAlpha"/>
<feOffset dx="5" dy="4"/>
<feGaussianBlur stdDeviation="3"/>
<feColorMatrix type="matrix" values="0 0 0 0 0.768627 0 0 0 0 0.489469 0 0 0 0 0.0235294 0 0 0 0.2 0"/>
<feBlend mode="normal" in2="BackgroundImageFix" result="effect1_dropShadow_542_309"/>
<feBlend mode="normal" in="SourceGraphic" in2="effect1_dropShadow_542_309" result="shape"/>
</filter>
<linearGradient id="paint0_linear_542_309" x1="103.09" y1="1849.22" x2="2013.84" y2="2357.47" gradientUnits="userSpaceOnUse">
<stop stop-color="#BF360C" stop-opacity="0.2"/>
<stop offset="1" stop-color="#BF360C" stop-opacity="0"/>
</linearGradient>
<radialGradient id="paint1_radial_542_309" cx="0" cy="0" r="1" gradientUnits="userSpaceOnUse" gradientTransform="translate(1218.22 1269.68) scale(9389.23 9389.21)">
<stop stop-color="white"/>
<stop offset="1" stop-color="white" stop-opacity="0"/>
</radialGradient>
<clipPath id="clip0_542_309">
<rect width="95.1673" height="100" fill="white"/>
</clipPath>
</defs>
</svg>
