<svg width="100" height="100" viewBox="0 0 100 100" fill="none" xmlns="http://www.w3.org/2000/svg">
<g clip-path="url(#clip0_547_367)">
<path d="M76.5625 0H23.4375C10.4933 0 0 10.4933 0 23.4375V76.5625C0 89.5067 10.4933 100 23.4375 100H76.5625C89.5067 100 100 89.5067 100 76.5625V23.4375C100 10.4933 89.5067 0 76.5625 0Z" fill="#001E36"/>
<path d="M22.5 69.5471V26.6721C22.5 26.3803 22.625 26.2139 22.9168 26.2139C23.625 26.2139 24.2918 26.2139 25.25 26.1721C26.25 26.1303 27.2918 26.1303 28.4168 26.0889C29.5418 26.0471 30.75 26.0471 32.0418 26.0053C33.3332 25.9639 34.5832 25.9639 35.8332 25.9639C39.25 25.9639 42.0832 26.3803 44.4168 27.2553C46.5084 27.9656 48.4156 29.1328 50 30.6721C51.3426 32.0191 52.38 33.6391 53.0418 35.4221C53.6668 37.1721 54 38.9639 54 40.8389C54 44.4221 53.1668 47.3803 51.5 49.7139C49.8332 52.0471 47.5 53.7971 44.7918 54.7971C41.9582 55.8389 38.8332 56.2139 35.4168 56.2139C34.4168 56.2139 33.75 56.2139 33.3332 56.1721C32.9168 56.1303 32.3332 56.1303 31.5418 56.1303V69.5053C31.5832 69.7971 31.375 70.0471 31.0832 70.0889H23C22.6668 70.0889 22.5 69.9221 22.5 69.5471ZM31.5832 34.2553V48.2553C32.1668 48.2971 32.7082 48.3389 33.2082 48.3389H35.4168C37.0418 48.3389 38.6668 48.0889 40.2082 47.5889C41.5418 47.2139 42.7082 46.4221 43.625 45.3803C44.5 44.3389 44.9168 42.9221 44.9168 41.0889C44.9559 39.7867 44.6234 38.5004 43.9582 37.3803C43.25 36.2971 42.25 35.4639 41.0418 35.0053C39.5 34.3803 37.8332 34.1303 36.125 34.1721C35.0418 34.1721 34.0832 34.1721 33.2918 34.2139C32.4582 34.1721 31.875 34.2139 31.5832 34.2553ZM80 45.7139C78.75 45.0471 77.4168 44.5889 76 44.2971C74.4582 43.9639 72.9168 43.7553 71.3332 43.7553C70.5 43.7139 69.625 43.8389 68.8332 44.0471C68.2918 44.1721 67.8332 44.4639 67.5418 44.8803C67.3332 45.2139 67.2082 45.6303 67.2082 46.0053C67.2082 46.3803 67.375 46.7553 67.625 47.0889C68 47.5471 68.5 47.9221 69.0418 48.2139C70.0078 48.7142 70.9948 49.1729 72 49.5889C74.25 50.3389 76.4168 51.3803 78.4168 52.6303C79.7918 53.5053 80.9168 54.6721 81.7082 56.0889C82.375 57.4221 82.7082 58.8803 82.6668 60.3803C82.7082 62.3389 82.125 64.2971 81.0418 65.9221C79.8796 67.5853 78.2579 68.8739 76.375 69.6303C74.3332 70.5053 71.8332 70.9639 68.8332 70.9639C66.9168 70.9639 65.0418 70.7971 63.1668 70.4221C61.6972 70.1682 60.268 69.7199 58.9168 69.0889C58.625 68.9221 58.4168 68.6303 58.4582 68.2971V61.0471C58.4582 60.9221 58.5 60.7553 58.625 60.6721C58.75 60.5889 58.875 60.6303 59 60.7139C60.625 61.6721 62.3332 62.3389 64.1668 62.7553C65.75 63.1721 67.4168 63.3803 69.0832 63.3803C70.6668 63.3803 71.7918 63.1721 72.5418 62.7971C73.2082 62.5053 73.6668 61.7971 73.6668 61.0471C73.6668 60.4639 73.3332 59.9221 72.6668 59.3803C72 58.8389 70.625 58.2139 68.5832 57.4221C66.4888 56.6841 64.4998 55.6755 62.6668 54.4221C61.3611 53.4914 60.2793 52.2815 59.5 50.8803C58.8332 49.5471 58.5 48.0889 58.5418 46.6303C58.5418 44.8389 59.0418 43.1303 59.9582 41.5889C61 39.9221 62.5418 38.5889 64.3332 37.7553C66.2918 36.7553 68.75 36.2971 71.7082 36.2971C73.4168 36.2971 75.1668 36.4221 76.875 36.6721C78.125 36.8389 79.3332 37.1721 80.4582 37.6303C80.625 37.6721 80.7918 37.8389 80.875 38.0053C80.9168 38.1721 80.9582 38.3389 80.9582 38.5053V45.2971C80.9582 45.4639 80.875 45.6303 80.75 45.7139C80.375 45.7971 80.1668 45.7971 80 45.7139Z" fill="#31A8FF"/>
</g>
<defs>
<clipPath id="clip0_547_367">
<rect width="100" height="100" fill="white"/>
</clipPath>
</defs>
</svg>
