<svg width="103" height="100" viewBox="0 0 103 100" fill="none" xmlns="http://www.w3.org/2000/svg">
<g clip-path="url(#clip0_547_364)">
<path d="M85.8004 0H17.4004C8.01155 0 0.400391 7.61116 0.400391 17V82.84C0.400391 92.2288 8.01155 99.84 17.4004 99.84H85.8004C95.1892 99.84 102.8 92.2288 102.8 82.84V17C102.8 7.61116 95.1892 0 85.8004 0Z" fill="#49021F"/>
<path d="M37.587 26.1189V69.8765C37.587 70.3349 37.381 70.5637 36.9686 70.5637H28.6566C28.2898 70.5637 28.1066 70.3345 28.1074 69.8765V26.1189C28.1074 25.7529 28.3134 25.5697 28.7254 25.5693H37.0374C37.1073 25.5594 37.1785 25.5649 37.2461 25.5853C37.3137 25.6057 37.376 25.6406 37.4287 25.6875C37.4815 25.7345 37.5233 25.7923 37.5514 25.8571C37.5795 25.9219 37.5932 25.992 37.5914 26.0625L37.587 26.1189ZM62.6214 71.2461L62.179 71.2505C59.0173 71.2987 55.8846 70.6417 53.0086 69.3273C50.3294 68.0873 48.0897 66.0631 46.5858 63.5225C45.0662 60.9989 44.2882 57.8533 44.2514 54.0865L44.2502 53.8025C44.2245 50.6498 45.0302 47.5459 46.5862 44.8037C48.1459 42.0855 50.4207 39.8466 53.1634 38.3305L53.3866 38.2089C56.3626 36.5605 59.9578 35.7361 64.1714 35.7361L64.2602 35.7365L64.4574 35.7409L64.6806 35.7497L64.9298 35.7625L65.2046 35.7797L65.505 35.8017L66.1838 35.8573L66.3694 35.8733V22.3413C66.3694 22.0213 66.507 21.8601 66.7814 21.8601H75.437C75.493 21.8521 75.5501 21.8572 75.6037 21.8751C75.6574 21.893 75.7061 21.9231 75.7461 21.9631C75.7861 22.003 75.8162 22.0518 75.8341 22.1054C75.8519 22.1591 75.8571 22.2162 75.849 22.2721V62.8701C75.8519 63.7183 75.8863 64.5661 75.9522 65.4117L76.017 66.2973L76.0742 67.1217L76.1238 67.8845C76.1323 68.0272 76.0975 68.1692 76.024 68.2918C75.9505 68.4144 75.8417 68.512 75.7118 68.5717C73.4789 69.5029 71.1531 70.1936 68.7738 70.6321C66.7437 71.0069 64.686 71.2123 62.6218 71.2461M66.3698 62.7325V43.9793C65.9986 43.8788 65.6195 43.8099 65.2366 43.7733C64.7687 43.7262 64.2986 43.7033 63.8282 43.7045C62.161 43.6881 60.5138 44.0645 59.0198 44.8037C57.5644 45.5272 56.3218 46.616 55.4134 47.9637C54.4742 49.3373 54.0046 51.1465 54.005 53.3905C53.9716 54.8879 54.2161 56.3784 54.7262 57.7865C55.1414 58.9213 55.7976 59.9526 56.6498 60.8093C57.4656 61.5974 58.4533 62.1853 59.535 62.5265C60.6776 62.8965 61.8717 63.0822 63.0726 63.0765C63.7134 63.0765 64.3086 63.0533 64.8586 63.0073C65.2973 62.9743 65.7321 62.9021 66.1578 62.7913L66.3698 62.7325Z" fill="#FF3366"/>
</g>
<defs>
<clipPath id="clip0_547_364">
<rect width="102.4" height="100" fill="white" transform="translate(0.400391)"/>
</clipPath>
</defs>
</svg>
