<svg width="100" height="100" viewBox="0 0 100 100" fill="none" xmlns="http://www.w3.org/2000/svg">
<path d="M34.836 3.2889C24.8445 6.75506 16.2278 13.3339 10.2516 22.0592C4.27541 30.7845 1.25473 41.1963 1.63325 51.7652C2.01178 62.3341 5.76955 72.5031 12.3546 80.7785C18.9397 89.0539 28.0049 94.9995 38.2189 97.742C46.4995 99.8787 55.1752 99.9725 63.5001 98.0155C71.0417 96.3215 78.014 92.698 83.7345 87.4998C89.6882 81.9244 94.0098 74.8317 96.2345 66.9842C98.6518 58.4502 99.0821 49.4759 97.4923 40.7498H50.9923V60.0389H77.922C77.3838 63.1154 76.2304 66.0516 74.531 68.672C72.8315 71.2923 70.6209 73.5428 68.0314 75.2889C64.7434 77.465 61.0363 78.9286 57.1485 79.5858C53.2497 80.3109 49.2505 80.3109 45.3517 79.5858C41.3997 78.7696 37.6614 77.1386 34.3751 74.7967C29.095 71.0591 25.1304 65.7492 23.047 59.6248C20.9289 53.3856 20.9289 46.6219 23.047 40.3826C24.53 36.0093 26.9816 32.0275 30.2189 28.7342C33.9235 24.8963 38.6136 22.1529 43.7748 20.8051C48.9359 19.4573 54.3685 19.5571 59.4767 21.0936C63.4673 22.318 67.1165 24.4583 70.1329 27.3436C73.1694 24.3227 76.2006 21.2941 79.2267 18.2576C80.7892 16.6248 82.4923 15.0701 84.0314 13.3983C79.4261 9.11326 74.0209 5.77877 68.1251 3.58577C57.3884 -0.312747 45.6406 -0.417516 34.836 3.2889Z" fill="white"/>
<path d="M34.8359 3.28927C45.6396 -0.419656 57.3874 -0.317645 68.125 3.57834C74.0218 5.78624 79.4246 9.13677 84.0234 13.4377C82.4609 15.1096 80.8125 16.6721 79.2187 18.2971C76.1875 21.3231 73.1588 24.3388 70.1328 27.344C67.1163 24.4586 63.4672 22.3184 59.4766 21.094C54.3701 19.5521 48.9376 19.4465 43.7752 20.7888C38.6127 22.1311 33.9196 24.8694 30.2109 28.7033C26.9737 31.9966 24.5221 35.9785 23.0391 40.3518L6.84375 27.8127C12.6407 16.3171 22.6777 7.52384 34.8359 3.28927Z" fill="#E33629"/>
<path d="M2.54685 40.2344C3.41669 35.9201 4.8619 31.7421 6.84373 27.8125L23.039 40.3828C20.921 46.622 20.921 53.3858 23.039 59.625C17.6432 63.7917 12.2448 67.9792 6.84373 72.1875C1.88397 62.315 0.371327 51.0664 2.54685 40.2344Z" fill="#F8BD00"/>
<path d="M50.9918 40.7422H97.4918C99.0815 49.4683 98.6512 58.4426 96.2339 66.9766C94.0092 74.8241 89.6877 81.9168 83.7339 87.4922C78.5074 83.4141 73.2574 79.3672 68.0308 75.2891C70.622 73.5412 72.8337 71.2882 74.5332 68.6651C76.2328 66.042 77.3852 63.1027 77.9214 60.0234H50.9918C50.9839 53.6016 50.9918 47.1719 50.9918 40.7422Z" fill="#587DBD"/>
<path d="M6.83594 72.1875C12.237 68.0208 17.6354 63.8333 23.0312 59.625C25.1188 65.7515 29.0891 71.0617 34.375 74.7969C37.6715 77.1279 41.4179 78.7457 45.375 79.5469C49.2739 80.272 53.273 80.272 57.1719 79.5469C61.0596 78.8897 64.7667 77.4261 68.0547 75.25C73.2813 79.3281 78.5312 83.375 83.7578 87.4531C78.0382 92.6541 71.0658 96.2803 63.5234 97.9766C55.1985 99.9336 46.5228 99.8398 38.2422 97.7031C31.693 95.9545 25.5756 92.8718 20.2734 88.6484C14.6619 84.1923 10.0784 78.5775 6.83594 72.1875Z" fill="#319F43"/>
</svg>
