<svg width="103" height="100" viewBox="0 0 103 100" fill="none" xmlns="http://www.w3.org/2000/svg">
<g clip-path="url(#clip0_536_223)">
<path d="M85.4 0H17C7.61116 0 0 7.61116 0 17V82.84C0 92.2288 7.61116 99.84 17 99.84H85.4C94.7888 99.84 102.4 92.2288 102.4 82.84V17C102.4 7.61116 94.7888 0 85.4 0Z" fill="#330000"/>
<path d="M49.6216 59.9161H33.7536L30.5248 69.9453C30.4809 70.1282 30.3745 70.2901 30.224 70.403C30.0735 70.5159 29.8883 70.5727 29.7004 70.5637H21.6632C21.2052 70.5637 21.0448 70.3117 21.1824 69.8077L34.9212 30.2405C35.0584 29.8285 35.196 29.3593 35.3332 28.8325C35.5132 27.9157 35.6052 26.9845 35.608 26.0505C35.5987 25.9852 35.6047 25.9186 35.6255 25.8559C35.6464 25.7933 35.6815 25.7364 35.7281 25.6897C35.7748 25.643 35.8317 25.6079 35.8943 25.5869C35.9569 25.566 36.0235 25.56 36.0888 25.5693H47.0112C47.3312 25.5693 47.5144 25.6841 47.5608 25.9133L63.154 69.8765C63.2916 70.3349 63.154 70.5641 62.742 70.5637H53.8116C53.6583 70.5807 53.504 70.5413 53.3776 70.4528C53.2512 70.3643 53.1613 70.2328 53.1248 70.0829L49.6216 59.9161ZM36.2264 51.2609H47.08L46.9252 50.7501L46.6768 49.9413L46.4996 49.3733L46.2168 48.4789L45.6156 46.5961L45.0868 44.9269L43.7136 40.5789C43.3718 39.498 43.0438 38.4129 42.7296 37.3237L42.4784 36.4397L42.1848 35.3945L41.7368 33.7745L41.6528 33.4693H41.5844C41.2407 35.1182 40.8222 36.7505 40.33 38.3613L39.3108 41.6397L38.75 43.4509L38.184 45.2845C38.0816 45.6157 37.98 45.9433 37.878 46.2669L37.574 47.2261L37.2716 48.1629L36.9708 49.0765L36.6716 49.9673C36.5724 50.2605 36.4732 50.5497 36.3744 50.8353L36.2264 51.2609ZM72.4268 32.8509C71.7262 32.879 71.0276 32.759 70.3765 32.4986C69.7255 32.2381 69.1368 31.8433 68.6488 31.3397C68.1622 30.8143 67.7842 30.1979 67.5366 29.5259C67.289 28.8539 67.1767 28.1396 67.206 27.4241C67.1811 26.7157 67.3059 26.0101 67.5722 25.3532C67.8386 24.6964 68.2404 24.1031 68.7516 23.6121C69.7376 22.6656 71.0508 22.1358 72.4176 22.1333L72.564 22.1349C74.2128 22.1349 75.5068 22.6269 76.4456 23.6117C76.9195 24.1234 77.2877 24.7235 77.5293 25.3777C77.7709 26.0319 77.8811 26.7273 77.8536 27.4241C77.8824 28.1425 77.7665 28.8593 77.5128 29.532C77.2591 30.2048 76.8728 30.8196 76.3768 31.3401C75.8761 31.8337 75.2816 32.2221 74.6284 32.4825C73.9753 32.7428 73.2766 32.8699 72.5736 32.8561L72.4268 32.8509ZM67.6868 69.8765V37.0413C67.6868 36.6293 67.8692 36.4229 68.2364 36.4229H76.686C77.052 36.4229 77.2352 36.6289 77.2356 37.0413V69.8765C77.2356 70.3349 77.0524 70.5641 76.686 70.5637H68.3052C67.9148 70.5637 67.7092 70.3581 67.6888 69.9469L67.6868 69.8765Z" fill="#FF9A00"/>
</g>
<defs>
<clipPath id="clip0_536_223">
<rect width="102.4" height="100" fill="white"/>
</clipPath>
</defs>
</svg>
