<svg width="103" height="100" viewBox="0 0 103 100" fill="none" xmlns="http://www.w3.org/2000/svg">
<g clip-path="url(#clip0_536_232)">
<path d="M85.4 0H17C7.61116 0 0 7.61116 0 17V82.84C0 92.2288 7.61116 99.84 17 99.84H85.4C94.7888 99.84 102.4 92.2288 102.4 82.84V17C102.4 7.61116 94.7888 0 85.4 0Z" fill="#49021F"/>
<path d="M37.1866 26.1189V69.8765C37.1866 70.3349 36.9806 70.5637 36.5682 70.5637H28.2562C27.8894 70.5637 27.7062 70.3345 27.707 69.8765V26.1189C27.707 25.7529 27.913 25.5697 28.325 25.5693H36.637C36.7069 25.5594 36.7781 25.5649 36.8457 25.5853C36.9133 25.6057 36.9756 25.6406 37.0283 25.6875C37.0811 25.7345 37.1229 25.7923 37.151 25.8571C37.1791 25.9219 37.1928 25.992 37.191 26.0625L37.1866 26.1189ZM62.221 71.2461L61.7786 71.2505C58.6169 71.2987 55.4842 70.6417 52.6082 69.3273C49.929 68.0873 47.6893 66.0631 46.1854 63.5225C44.6658 60.9989 43.8878 57.8533 43.851 54.0865L43.8498 53.8025C43.8241 50.6498 44.6298 47.5459 46.1858 44.8037C47.7455 42.0855 50.0203 39.8466 52.763 38.3305L52.9862 38.2089C55.9622 36.5605 59.5574 35.7361 63.771 35.7361L63.8598 35.7365L64.057 35.7409L64.2802 35.7497L64.5294 35.7625L64.8042 35.7797L65.1046 35.8017L65.7834 35.8573L65.969 35.8733V22.3413C65.969 22.0213 66.1066 21.8601 66.381 21.8601H75.0366C75.0926 21.8521 75.1497 21.8572 75.2033 21.8751C75.257 21.893 75.3057 21.9231 75.3457 21.9631C75.3857 22.003 75.4158 22.0518 75.4337 22.1054C75.4515 22.1591 75.4567 22.2162 75.4486 22.2721V62.8701C75.4515 63.7183 75.4859 64.5661 75.5518 65.4117L75.6166 66.2973L75.6738 67.1217L75.7234 67.8845C75.7319 68.0272 75.6971 68.1692 75.6236 68.2918C75.5501 68.4144 75.4413 68.512 75.3114 68.5717C73.0785 69.5029 70.7527 70.1936 68.3734 70.6321C66.3433 71.0069 64.2856 71.2123 62.2214 71.2461M65.9694 62.7325V43.9793C65.5982 43.8788 65.2191 43.8099 64.8362 43.7733C64.3683 43.7262 63.8982 43.7033 63.4278 43.7045C61.7606 43.6881 60.1134 44.0645 58.6194 44.8037C57.1641 45.5272 55.9214 46.616 55.013 47.9637C54.0738 49.3373 53.6042 51.1465 53.6046 53.3905C53.5712 54.8879 53.8157 56.3784 54.3258 57.7865C54.741 58.9213 55.3973 59.9526 56.2494 60.8093C57.0652 61.5974 58.0529 62.1853 59.1346 62.5265C60.2772 62.8965 61.4713 63.0822 62.6722 63.0765C63.313 63.0765 63.9082 63.0533 64.4582 63.0073C64.8969 62.9743 65.3317 62.9021 65.7574 62.7913L65.9694 62.7325Z" fill="#FF3366"/>
</g>
<defs>
<clipPath id="clip0_536_232">
<rect width="102.4" height="100" fill="white"/>
</clipPath>
</defs>
</svg>
