<svg width="100" height="100" viewBox="0 0 100 100" fill="none" xmlns="http://www.w3.org/2000/svg">
<g clip-path="url(#clip0_536_226)">
<path d="M46.3992 0.118927C46.0211 0.158771 44.8406 0.298615 43.7992 0.421271C39.6008 0.900177 34.8398 2.16111 30.6617 3.92127C15.5406 10.2392 4.16016 24.101 1.02031 40.0002C0.28125 43.7814 0.101562 45.6392 0.101562 50.0002C0.101562 55.6213 0.660156 59.5002 2.14063 64.4017C6.98047 80.4408 19.5805 93.0205 35.6609 97.8791C40.5008 99.3408 44.4008 99.8994 50.0008 99.8994C55.6219 99.8994 59.5008 99.3408 64.4023 97.8603C80.4414 93.0205 93.0211 80.4205 97.8797 64.34C99.3414 59.5002 99.9 55.6002 99.9 50.0002C99.9 47.6197 99.7813 44.901 99.6406 43.8994C98.0203 32.34 93.2594 22.6197 85.3219 14.6791C77.3992 6.79939 67.7195 2.02049 56.3992 0.400177C54.8398 0.179865 47.6195 -0.0216977 46.3992 0.118927ZM30.1 31.6189C31.1625 31.9392 31.6594 32.2392 32.3797 32.9588C33.7805 34.3806 34.1008 35.1596 34.1008 37.2986C34.1008 38.901 34.0398 39.2002 33.5609 40.0392C32.6391 41.5986 30.5 43.0392 29.0203 43.0783C27.9789 43.1002 28.0219 42.6392 29.1609 41.44C30.6805 39.8596 30.9 39.2603 30.9 36.8986C30.8812 34.6197 30.6008 33.8408 29.5414 33.2002C28.6602 32.6603 27.7016 32.7002 26.3008 33.3588C22.6602 35.101 18.7203 40.9002 17.182 46.8416C15.1406 54.7611 18.7602 61.0994 24.7203 60.0189C26.4594 59.6986 29.7398 58.0205 31.1625 56.6986C32.3406 55.6213 32.3406 55.6002 32.4594 54.2611C32.7219 51.4588 34.6992 48.6603 37.3422 47.3603C38.5594 46.7588 38.8617 46.701 40.5008 46.701C42.0602 46.701 42.4203 46.7806 43.1805 47.1986C45.6 48.5814 45.1 51.8002 42.4812 51.8002C40.9617 51.8002 40.1805 51.0189 41.282 50.6017C42.3625 50.2017 41.9594 48.7002 40.7023 48.3611C39.2219 47.9799 37.5406 48.9806 36.4812 50.9002C35.2 53.2205 35.1414 55.9814 36.3594 57.2392C37.5406 58.4994 39.0203 57.5017 40.1617 54.6385C40.7602 53.1799 41.6203 52.3986 42.6219 52.3986C43.5008 52.3986 43.6625 52.9392 43.2805 54.5806C42.7195 57.1197 43.1008 57.7791 44.6813 57.001C45.2 56.7596 46.0609 56.2017 46.5797 55.8017L47.5594 55.0205L48.2219 51.5596C48.9422 47.6807 49.2195 47.1588 50.7 46.8814C52.1219 46.6189 52.4422 47.3205 51.9203 49.5392L51.6391 50.7814L52.6805 49.7189C55.1398 47.1986 58.1609 45.9596 59.2016 47.0002C59.7602 47.5588 59.6992 48.2603 58.9 50.7385C58.5211 51.9197 57.9992 53.7814 57.7617 54.84C57.4016 56.4392 57.3797 56.8205 57.582 57.0807C58.2227 57.84 60.1813 57.0588 61.9211 55.3588L62.9406 54.3611L63.0625 52.1392C63.1813 49.5791 63.4195 48.6603 64.1 47.8392C64.7406 47.0799 65.9008 46.5213 66.5203 46.6799C67.1398 46.8416 67.1398 47.44 66.5813 49.201C65.8 51.6205 65.882 57.1994 66.682 57.1994C67.0023 57.1994 68.6406 55.4806 69.682 54.0408L70.4602 52.9783L69.8406 52.3408C68.7602 51.2002 68.5008 50.4611 68.5008 48.5994C68.5008 47.2416 68.6016 46.7408 68.9398 46.0783C69.5016 45.0408 70.3805 44.2814 71.4211 43.9791C72.5195 43.64 73.8805 44.1986 74.4391 45.1994C75.0008 46.2189 74.8609 48.4986 74.1398 50.0611L73.6211 51.1994H74.3203C75.2813 51.1994 75.6602 50.9611 77.3812 49.3408C78.2812 48.4806 79.3219 47.7392 80.1 47.3791C83.1609 45.9416 86.7625 46.6799 87.3602 48.8799C87.8602 50.6408 86.7625 51.8799 84.8398 51.7392C83.4602 51.6392 83.2008 51.2783 84.0008 50.6017C85.4406 49.3986 84.0008 47.8611 81.9406 48.4197C80.8203 48.7213 79.5602 49.9791 78.9016 51.4408C77.5797 54.3611 78.2812 57.8002 80.1797 57.8002C80.9398 57.8002 82.282 56.2994 82.8008 54.84C83.4203 53.1588 84.7203 52.1002 85.7 52.4807C86.2406 52.6799 86.2805 53.2197 85.9414 54.9197C85.5602 56.7814 85.5016 58.5213 85.8008 59.3205C85.9203 59.6189 86.2805 60.1806 86.6219 60.5596C87.2594 61.2791 87.2813 61.5392 86.7406 61.8806C86.4813 62.0603 86.1391 61.9814 85.3008 61.5213C84.1406 60.9197 83.1398 59.8392 82.7797 58.8197L82.5602 58.2213L81.7602 58.8197C81.2992 59.14 80.5797 59.5002 80.1609 59.6189C78.5008 60.0588 76.4594 58.9205 75.5016 57.001C75.1195 56.2588 75.0008 54.0807 75.2813 53.2408C75.4406 52.7799 75.4406 52.7799 74.7992 53.1002C74.4609 53.2807 73.7406 53.4791 73.182 53.54C72.2602 53.6416 72.1195 53.7416 71.2016 54.901C69.9016 56.5182 67.6 58.701 66.6602 59.1619C64.6617 60.1596 64.0023 59.8791 63.4805 57.8182L63.1203 56.4392L62.2594 57.1994C61.1609 58.1603 58.9609 59.3205 57.7 59.601C56.5008 59.8603 55.2195 59.4791 54.7 58.6791C53.9227 57.4799 54.182 54.9408 55.4203 51.5197C56.3391 48.9806 55.6805 48.9416 53.3609 51.3611C51.6398 53.1799 50.9008 54.4799 50.4219 56.5002C49.9219 58.6002 49.3203 59.3596 47.9625 59.6799C47.1414 59.8603 46.7594 59.3596 46.9219 58.2611L47.0406 57.3791L46.2805 57.901C45.2 58.64 43.8391 59.3205 42.8992 59.5799C41.9594 59.8392 40.7203 59.5611 40.4211 59.0392C39.8812 58.1213 39.8812 58.1213 39.0422 58.7799C37.2203 60.2603 34.6203 59.8392 33.3016 57.8799L32.8797 57.2603L31.5617 58.4807C27.7594 61.9603 23.0016 63.5197 19.4805 62.4392C15 61.0814 12.5219 57.2392 12.5617 51.7002C12.5805 46.14 15.0398 40.2806 19.1813 35.9408C21.5219 33.4994 23.7219 32.0588 25.9625 31.5189C27.5797 31.1189 28.5625 31.1392 30.1 31.6189Z" fill="#00C4CC"/>
<path d="M70.6389 45.8408C70.1991 46.2799 70.3608 48.0408 70.9202 49.1612C71.2007 49.7408 71.4999 50.2018 71.5999 50.2018C71.6796 50.2018 71.8593 49.7408 71.9999 49.1791C72.4999 47.101 71.5999 44.8791 70.6389 45.8408Z" fill="#00C4CC"/>
</g>
<defs>
<clipPath id="clip0_536_226">
<rect width="100" height="100" fill="white"/>
</clipPath>
</defs>
</svg>
