<svg width="101" height="100" viewBox="0 0 101 100" fill="none" xmlns="http://www.w3.org/2000/svg">
<g clip-path="url(#clip0_536_226)">
<path d="M46.2977 0.0466617C45.9195 0.0865054 44.7391 0.226349 43.6977 0.349005C39.4992 0.827912 34.7383 2.08885 30.5602 3.84901C15.4391 10.167 4.05859 24.0287 0.91875 39.9279C0.179688 43.7092 0 45.567 0 49.9279C0 55.549 0.558594 59.4279 2.03906 64.3295C6.87891 80.3685 19.4789 92.9482 35.5594 97.8068C40.3992 99.2685 44.2992 99.8271 49.8992 99.8271C55.5203 99.8271 59.3992 99.2685 64.3008 97.7881C80.3398 92.9482 92.9195 80.3482 97.7781 64.2678C99.2398 59.4279 99.7984 55.5279 99.7984 49.9279C99.7984 47.5474 99.6797 44.8287 99.5391 43.8271C97.9188 32.2678 93.1578 22.5474 85.2203 14.6068C77.2977 6.72713 67.618 1.94822 56.2977 0.327912C54.7383 0.107599 47.518 -0.0939633 46.2977 0.0466617ZM29.9984 31.5467C31.0609 31.867 31.5578 32.167 32.2781 32.8865C33.6789 34.3084 33.9992 35.0873 33.9992 37.2263C33.9992 38.8287 33.9383 39.1279 33.4594 39.967C32.5375 41.5263 30.3984 42.967 28.9187 43.006C27.8773 43.0279 27.9203 42.567 29.0594 41.3678C30.5789 39.7873 30.7984 39.1881 30.7984 36.8263C30.7797 34.5474 30.4992 33.7685 29.4398 33.1279C28.5586 32.5881 27.6 32.6279 26.1992 33.2865C22.5586 35.0287 18.6188 40.8279 17.0805 46.7693C15.0391 54.6889 18.6586 61.0271 24.6188 59.9467C26.3578 59.6264 29.6383 57.9482 31.0609 56.6264C32.2391 55.549 32.2391 55.5279 32.3578 54.1889C32.6203 51.3865 34.5977 48.5881 37.2406 47.2881C38.4578 46.6865 38.7602 46.6287 40.3992 46.6287C41.9586 46.6287 42.3187 46.7084 43.0789 47.1264C45.4984 48.5092 44.9984 51.7279 42.3797 51.7279C40.8602 51.7279 40.0789 50.9467 41.1805 50.5295C42.2609 50.1295 41.8578 48.6279 40.6008 48.2888C39.1203 47.9076 37.4391 48.9084 36.3797 50.8279C35.0984 53.1482 35.0398 55.9092 36.2578 57.167C37.4391 58.4271 38.9187 57.4295 40.0602 54.5662C40.6586 53.1076 41.5187 52.3264 42.5203 52.3264C43.3992 52.3264 43.5609 52.867 43.1789 54.5084C42.618 57.0474 42.9992 57.7068 44.5797 56.9287C45.0984 56.6873 45.9594 56.1295 46.4781 55.7295L47.4578 54.9482L48.1203 51.4873C48.8406 47.6084 49.118 47.0865 50.5984 46.8092C52.0203 46.5467 52.3406 47.2482 51.8188 49.467L51.5375 50.7092L52.5789 49.6467C55.0383 47.1263 58.0594 45.8873 59.1 46.9279C59.6586 47.4865 59.5977 48.1881 58.7984 50.6662C58.4195 51.8474 57.8977 53.7092 57.6602 54.7678C57.3 56.367 57.2781 56.7482 57.4805 57.0084C58.1211 57.7678 60.0797 56.9865 61.8195 55.2865L62.8391 54.2889L62.9609 52.067C63.0797 49.5068 63.318 48.5881 63.9984 47.767C64.6391 47.0076 65.7992 46.449 66.4187 46.6076C67.0383 46.7693 67.0383 47.3678 66.4797 49.1287C65.6984 51.5482 65.7805 57.1271 66.5805 57.1271C66.9008 57.1271 68.5391 55.4084 69.5805 53.9685L70.3586 52.906L69.7391 52.2685C68.6586 51.1279 68.3992 50.3888 68.3992 48.5271C68.3992 47.1693 68.5 46.6685 68.8383 46.006C69.4 44.9685 70.2789 44.2092 71.3195 43.9068C72.418 43.5678 73.7789 44.1263 74.3375 45.1271C74.8992 46.1467 74.7594 48.4263 74.0383 49.9888L73.5195 51.1271H74.2188C75.1797 51.1271 75.5586 50.8888 77.2797 49.2685C78.1797 48.4084 79.2203 47.667 79.9984 47.3068C83.0594 45.8693 86.6609 46.6076 87.2586 48.8076C87.7586 50.5685 86.6609 51.8076 84.7383 51.667C83.3586 51.567 83.0992 51.206 83.8992 50.5295C85.3391 49.3263 83.8992 47.7888 81.8391 48.3474C80.7188 48.649 79.4586 49.9068 78.8 51.3685C77.4781 54.2889 78.1797 57.7279 80.0781 57.7279C80.8383 57.7279 82.1805 56.2271 82.6992 54.7678C83.3188 53.0865 84.6188 52.0279 85.5984 52.4084C86.1391 52.6076 86.1789 53.1474 85.8398 54.8474C85.4586 56.7092 85.4 58.449 85.6992 59.2482C85.8187 59.5467 86.1789 60.1084 86.5203 60.4873C87.1578 61.2068 87.1797 61.467 86.6391 61.8084C86.3797 61.9881 86.0375 61.9092 85.1992 61.449C84.0391 60.8474 83.0383 59.767 82.6781 58.7474L82.4586 58.149L81.6586 58.7474C81.1977 59.0678 80.4781 59.4279 80.0594 59.5467C78.3992 59.9865 76.3578 58.8482 75.4 56.9287C75.018 56.1865 74.8992 54.0084 75.1797 53.1685C75.3391 52.7076 75.3391 52.7076 74.6977 53.0279C74.3594 53.2084 73.6391 53.4068 73.0805 53.4678C72.1586 53.5693 72.018 53.6693 71.1 54.8287C69.8 56.4459 67.4984 58.6287 66.5586 59.0896C64.5602 60.0873 63.9008 59.8068 63.3789 57.7459L63.0188 56.367L62.1578 57.1271C61.0594 58.0881 58.8594 59.2482 57.5984 59.5287C56.3992 59.7881 55.118 59.4068 54.5984 58.6068C53.8211 57.4076 54.0805 54.8685 55.3187 51.4474C56.2375 48.9084 55.5789 48.8693 53.2594 51.2888C51.5383 53.1076 50.7992 54.4076 50.3203 56.4279C49.8203 58.5279 49.2187 59.2873 47.8609 59.6076C47.0398 59.7881 46.6578 59.2873 46.8203 58.1889L46.9391 57.3068L46.1789 57.8287C45.0984 58.5678 43.7375 59.2482 42.7977 59.5076C41.8578 59.767 40.6187 59.4888 40.3195 58.967C39.7797 58.049 39.7797 58.049 38.9406 58.7076C37.1187 60.1881 34.5187 59.767 33.2 57.8076L32.7781 57.1881L31.4602 58.4084C27.6578 61.8881 22.9 63.4474 19.3789 62.367C14.8984 61.0092 12.4203 57.167 12.4602 51.6279C12.4789 46.0678 14.9383 40.2084 19.0797 35.8685C21.4203 33.4271 23.6203 31.9865 25.8609 31.4467C27.4781 31.0467 28.4609 31.067 29.9984 31.5467Z" fill="url(#paint0_linear_536_226)"/>
<path d="M70.5374 45.7686C70.0975 46.2076 70.2593 47.9686 70.8186 49.0889C71.0991 49.6686 71.3983 50.1295 71.4983 50.1295C71.578 50.1295 71.7577 49.6686 71.8983 49.1069C72.3983 47.0287 71.4983 44.8069 70.5374 45.7686Z" fill="#3371DC"/>
</g>
<defs>
<linearGradient id="paint0_linear_536_226" x1="49.8992" y1="0" x2="49.8992" y2="99.8271" gradientUnits="userSpaceOnUse">
<stop stop-color="#00BBC9"/>
<stop offset="0.51" stop-color="#3B63DF"/>
<stop offset="1" stop-color="#7427E9"/>
</linearGradient>
<clipPath id="clip0_536_226">
<rect width="100" height="100" fill="white" transform="translate(0.261719)"/>
</clipPath>
</defs>
</svg>
