<svg width="103" height="100" viewBox="0 0 103 100" fill="none" xmlns="http://www.w3.org/2000/svg">
<g clip-path="url(#clip0_579_112)">
<path d="M85.4 0H17C7.61116 0 0 7.61116 0 17V82.84C0 92.2288 7.61116 99.84 17 99.84H85.4C94.7888 99.84 102.4 92.2288 102.4 82.84V17C102.4 7.61116 94.7888 0 85.4 0Z" fill="#470137"/>
<path d="M53.8311 26.2561L41.0539 47.3453L54.7239 69.7393C54.8119 69.8961 54.8363 70.0801 54.7927 70.2545C54.7715 70.3289 54.7259 70.3473 54.6559 70.3501L54.5783 70.3489L54.4839 70.3465C54.4327 70.3465 54.3755 70.3489 54.3119 70.3593H44.4559L44.2623 70.3561C43.7311 70.3421 43.3483 70.2661 43.1151 69.8765C42.2031 68.0999 41.2871 66.3254 40.3671 64.5529C39.5441 62.9721 38.6987 61.403 37.8311 59.8461L37.4479 59.1605C36.4102 57.3162 35.3912 55.4615 34.3911 53.5965H34.3223C33.3987 55.442 32.4483 57.2739 31.4715 59.0917C30.4863 60.9237 29.5131 62.7445 28.5519 64.5529C27.5901 66.3628 26.6055 68.1604 25.5983 69.9453C25.4363 70.3093 25.1671 70.3853 24.7923 70.3977L24.6363 70.4001H15.2255L15.1847 70.4013L15.0503 70.4133C14.9755 70.4177 14.9307 70.4017 14.9163 70.2889C14.8904 70.1214 14.9272 69.9503 15.0195 69.8081L28.2771 48.0321L15.3627 26.1881C15.2255 26.0057 15.2027 25.8569 15.2939 25.7417C15.3445 25.683 15.4082 25.637 15.4798 25.6071C15.5513 25.5773 15.6289 25.5645 15.7063 25.5697H25.3919C25.6031 25.5582 25.8142 25.5934 26.0103 25.6729C26.1743 25.7661 26.3155 25.8953 26.4223 26.0509C27.2467 27.8829 28.1627 29.7149 29.1703 31.5461C30.17 33.3658 31.189 35.1748 32.2271 36.9729C33.2492 38.7432 34.2002 40.5536 35.0779 42.3997H35.1467C36.0461 40.554 36.9735 38.7221 37.9287 36.9045C38.8667 35.1185 39.8287 33.3205 40.8135 31.5117C41.7858 29.7261 42.7361 27.9287 43.6643 26.1197C43.7171 25.9501 43.8115 25.7965 43.9391 25.6729C44.1087 25.587 44.2994 25.5512 44.4887 25.5697H53.4875C53.5702 25.5491 53.6574 25.5559 53.7359 25.5891C53.8145 25.6223 53.8801 25.6801 53.9229 25.7538C53.9658 25.8275 53.9836 25.9132 53.9735 25.9978C53.9635 26.0825 53.9263 26.1616 53.8675 26.2233L53.8311 26.2561ZM74.0191 71.2453L73.5455 71.2505C70.3836 71.2987 67.2508 70.6417 64.3747 69.3273C61.6954 68.0873 59.4557 66.0631 57.9519 63.5225C56.4355 61.0041 55.6571 57.8657 55.6179 54.1085L55.6163 53.8025C55.5905 50.6498 56.3963 47.5459 57.9523 44.8037C59.5095 42.0896 61.7797 39.8534 64.5171 38.3373L64.7527 38.2093C67.7287 36.5605 71.3239 35.7361 75.5375 35.7361L75.7215 35.7381L75.9319 35.7449L76.1679 35.7553L76.4303 35.7705L76.8711 35.8017L77.3703 35.8417L77.7355 35.8737V22.3409C77.7355 22.0209 77.8731 21.8601 78.1475 21.8601H86.8031C86.859 21.8521 86.9161 21.8572 86.9697 21.8751C87.0234 21.893 87.0721 21.9231 87.1121 21.9631C87.1521 22.003 87.1822 22.0518 87.2001 22.1054C87.218 22.1591 87.2231 22.2162 87.215 22.2721V62.8701C87.215 63.5517 87.2415 64.2861 87.2943 65.0717L87.4223 66.8537L87.4903 67.8845C87.4987 68.0273 87.4639 68.1693 87.3903 68.2919C87.3167 68.4145 87.2078 68.512 87.0779 68.5717C84.8449 69.5029 82.5191 70.1936 80.1399 70.6321C78.12 71.0049 76.0727 71.21 74.0191 71.2453ZM77.7355 62.7325V43.9793C77.3642 43.8788 76.9851 43.8099 76.6023 43.7733C76.1343 43.7262 75.6642 43.7033 75.1939 43.7045C73.527 43.688 71.8796 44.0646 70.3855 44.8037C68.9301 45.5272 67.6874 46.616 66.7791 47.9637C65.8723 49.2901 65.4031 51.0221 65.3723 53.1597L65.3707 53.3905C65.3372 54.8879 65.5818 56.3784 66.0919 57.7865C66.5071 58.9214 67.1635 59.9527 68.0159 60.8093C68.8315 61.5974 69.8191 62.1852 70.9007 62.5265C72.0432 62.8965 73.2373 63.0822 74.4383 63.0765C75.0791 63.0765 75.6743 63.0533 76.2243 63.0073C76.6629 62.9743 77.0977 62.9021 77.5235 62.7913L77.7355 62.7325Z" fill="#FF61F6"/>
</g>
<defs>
<clipPath id="clip0_579_112">
<rect width="102.4" height="100" fill="white"/>
</clipPath>
</defs>
</svg>
