<svg width="111" height="100" viewBox="0 0 111 100" fill="none" xmlns="http://www.w3.org/2000/svg">
<g clip-path="url(#clip0_579_131)">
<path d="M55.1724 0L24.0754 3.28793L0 35.6065L55.1724 99.8543L110.345 35.6065L86.2698 3.28793L55.1724 0Z" fill="#FDB300"/>
<path d="M0 35.6069L55.1724 99.8543L22.3474 35.6069H0ZM87.997 35.6069L55.1724 99.8543L110.344 35.6069H87.997Z" fill="#EB6C00"/>
<path d="M22.3477 35.6069L55.1727 99.8543L87.9977 35.6069H22.3477Z" fill="#FDAD00"/>
<path d="M24.0757 3.28793L22.3477 35.6065L55.1727 0L24.0757 3.28793ZM87.9972 35.6069L86.2696 3.28793L55.1727 0.000431034L87.9972 35.6069Z" fill="#FDD231"/>
<path d="M87.9974 35.6071H110.344L86.2694 3.28809L87.9974 35.6071ZM0 35.6071H22.3474L24.0754 3.28809L0 35.6071Z" fill="#FDAD00"/>
<path d="M55.1727 0L22.3477 35.6065H87.9977L55.1727 0Z" fill="#FEEEB7"/>
</g>
<defs>
<clipPath id="clip0_579_131">
<rect width="110.345" height="100" fill="white"/>
</clipPath>
</defs>
</svg>
