<svg width="100" height="100" viewBox="0 0 100 100" fill="none" xmlns="http://www.w3.org/2000/svg">
<path d="M80.209 11.4585H19.7923C15.1899 11.4585 11.459 15.1895 11.459 19.7918V80.2085C11.459 84.8109 15.1899 88.5418 19.7923 88.5418H80.209C84.8114 88.5418 88.5423 84.8109 88.5423 80.2085V19.7918C88.5423 15.1895 84.8114 11.4585 80.209 11.4585Z" stroke="black" stroke-linecap="round" stroke-linejoin="round"/>
<path d="M65.0214 70.8333C63.8257 70.8336 62.6556 70.4874 61.6525 69.8367C60.6495 69.186 59.8564 68.2586 59.3693 67.1666L50.0006 46.1458L44.511 58.4625H46.2568C47.8773 58.4922 49.4215 59.1569 50.557 60.3134C51.6925 61.47 52.3287 63.026 52.3287 64.6468C52.3287 66.2677 51.6925 67.8237 50.557 68.9803C49.4215 70.1368 47.8773 70.8015 46.2568 70.8312H34.9797C33.9489 70.8304 32.9345 70.5721 32.0289 70.0797C31.1232 69.5874 30.355 68.8765 29.7938 68.0117C29.2327 67.147 28.8965 66.1557 28.8159 65.128C28.7352 64.1004 28.9125 63.0688 29.3318 62.1271L41.5943 34.6229C42.3193 32.9989 43.4988 31.6194 44.9904 30.6508C46.482 29.6823 48.2221 29.1661 50.0006 29.1646C51.7791 29.1658 53.5193 29.6819 55.0109 30.6505C56.5026 31.6191 57.682 32.9987 58.4068 34.6229L70.6693 62.1291C71.0892 63.0708 71.2669 64.1025 71.1865 65.1304C71.1061 66.1583 70.77 67.1498 70.2087 68.0148C69.6475 68.8797 68.879 69.5906 67.973 70.0828C67.0671 70.5751 66.0524 70.8331 65.0214 70.8333Z" stroke="black" stroke-linecap="round" stroke-linejoin="round"/>
</svg>
