<svg width="73" height="100" viewBox="0 0 73 100" fill="none" xmlns="http://www.w3.org/2000/svg">
<g clip-path="url(#clip0_536_210)">
<path fill-rule="evenodd" clip-rule="evenodd" d="M28.5592 91.0227H43.4201L41.3981 100H30.5547L28.5592 91.0227ZM24.4309 36.084C25.2049 49.5859 28.6418 66.4584 34.5352 86.0416C35.5541 86.552 36.5219 86.5324 37.444 86.0416C43.3356 66.465 46.7725 49.5967 47.5475 36.0969C50.0977 -12.5 21.9401 -11.1328 24.4309 36.084ZM30.5811 0C30.5811 0 13.2334 6.56562 14.4822 31.8186C15.7309 57.0713 32.9856 86.0279 32.9856 86.0279C22.3631 76.6035 6.6297 47.2437 6.32658 29.9668C6.2174 14.6484 16.6469 1.80273 30.5811 0ZM2.99982 32.1836C5.53556 57.8254 31.6893 87.018 29.6014 85.1031C23.7774 80.0805 4.1674 56.432 0.482439 34.2723C-3.20252 12.1127 15.4317 4.4375 15.4317 4.4375C4.61525 11.7709 1.78595 22.5027 3.00002 32.1838M42.9311 84.8225C44.3541 81.8576 56.6557 55.607 57.8321 31.8188C59.0805 6.56562 41.733 0 41.733 0C43.3502 0.06875 46.9498 1.11875 50.3479 2.73828C53.7459 4.35762 65.7535 11.7357 65.9873 29.9668C65.7881 41.3164 60.4262 57.4805 53.7592 69.9082C60.5123 59.5516 68.0899 45.3965 69.3963 32.1836C70.6104 22.5027 67.7811 11.7709 56.9647 4.4375C56.9647 4.4375 75.5987 12.1127 71.9139 34.2723C68.2285 56.432 48.5834 80.1039 42.7598 85.1266L42.9311 84.8225Z" fill="black"/>
</g>
<defs>
<clipPath id="clip0_536_210">
<rect width="72.4609" height="100" fill="white"/>
</clipPath>
</defs>
</svg>
