<svg width="93" height="100" viewBox="0 0 93 100" fill="none" xmlns="http://www.w3.org/2000/svg">
<g clip-path="url(#clip0_581_200)">
<path d="M20.6296 99.9974C19.8335 99.9975 19.0648 99.7057 18.4688 99.177C17.8728 98.6483 17.4906 97.9194 17.3944 97.1278L7.01886 3.60896C7.00657 3.49363 7.00028 3.37774 7 3.26176C7 2.39751 7.34244 1.56858 7.95214 0.957018C8.56183 0.345454 9.38891 0.00125164 10.2518 0H46.7758C47.6395 0 48.4678 0.34365 49.0785 0.955349C49.6892 1.56705 50.0323 2.39669 50.0323 3.26176V99.9974H20.6155" fill="white"/>
<path d="M50.0307 27.6182C57.1771 27.6177 64.1632 29.7399 70.1055 33.7163C76.0478 37.6928 80.6794 43.3449 83.4145 49.9579C86.1497 56.5709 86.8656 63.8479 85.4717 70.8684C84.0777 77.8889 80.6366 84.3378 75.5835 89.3995C70.5303 94.4611 64.0921 97.9082 57.083 99.3049C50.0739 100.702 42.8087 99.9849 36.2062 97.2458C29.6037 94.5066 23.9604 89.8679 19.99 83.9163C16.0196 77.9646 13.9004 70.9673 13.9004 63.8093C13.9001 59.0567 14.8344 54.3506 16.65 49.9597C18.4655 45.5688 21.1268 41.5791 24.4819 38.2185C27.8369 34.8578 31.82 32.1919 36.2037 30.3731C40.5873 28.5543 45.2858 27.6182 50.0307 27.6182Z" fill="white"/>
<path d="M20.6296 99.9974C19.8335 99.9975 19.0648 99.7057 18.4688 99.177C17.8728 98.6483 17.4906 97.9194 17.3944 97.1278L7.01886 3.60896C7.00657 3.49363 7.00028 3.37774 7 3.26176C7 2.39751 7.34244 1.56858 7.95214 0.957018C8.56183 0.345454 9.38891 0.00125164 10.2518 0H46.7758C47.6395 0 48.4678 0.34365 49.0785 0.955349C49.6892 1.56705 50.0323 2.39669 50.0323 3.26176V99.9974H20.6155" fill="url(#paint0_linear_581_200)"/>
<path style="mix-blend-mode:multiply" d="M50.0307 27.6182C57.1771 27.6177 64.1632 29.7399 70.1055 33.7163C76.0478 37.6928 80.6794 43.3449 83.4145 49.9579C86.1497 56.5709 86.8656 63.8479 85.4717 70.8684C84.0777 77.8889 80.6366 84.3378 75.5835 89.3995C70.5303 94.4611 64.0921 97.9082 57.083 99.3049C50.0739 100.702 42.8087 99.9849 36.2062 97.2458C29.6037 94.5066 23.9604 89.8679 19.99 83.9163C16.0196 77.9646 13.9004 70.9673 13.9004 63.8093C13.9001 59.0567 14.8344 54.3506 16.65 49.9597C18.4655 45.5688 21.1268 41.5791 24.4819 38.2185C27.8369 34.8578 31.82 32.1919 36.2037 30.3731C40.5873 28.5543 45.2858 27.6182 50.0307 27.6182Z" fill="url(#paint1_linear_581_200)"/>
</g>
<defs>
<linearGradient id="paint0_linear_581_200" x1="-0.583537" y1="80.1009" x2="63.8627" y2="15.7588" gradientUnits="userSpaceOnUse">
<stop stop-color="#E50051"/>
<stop offset="0.18" stop-color="#EB143D"/>
<stop offset="0.52" stop-color="#F6341C"/>
<stop offset="0.81" stop-color="#FD4907"/>
<stop offset="1" stop-color="#FF5000"/>
</linearGradient>
<linearGradient id="paint1_linear_581_200" x1="24.4834" y1="89.398" x2="75.6606" y2="38.3011" gradientUnits="userSpaceOnUse">
<stop stop-color="#E50051"/>
<stop offset="0.18" stop-color="#EB143D"/>
<stop offset="0.52" stop-color="#F6341C"/>
<stop offset="0.81" stop-color="#FD4907"/>
<stop offset="1" stop-color="#FF5000"/>
</linearGradient>
<clipPath id="clip0_581_200">
<rect width="92.8205" height="100" fill="white"/>
</clipPath>
</defs>
</svg>
