<svg width="99" height="100" viewBox="0 0 99 100" fill="none" xmlns="http://www.w3.org/2000/svg">
<g clip-path="url(#clip0_580_175)">
<path d="M49.0664 99.4316C76.1648 99.4316 98.1325 77.2893 98.1325 49.9756C98.1325 22.6618 76.1648 0.519531 49.0664 0.519531C21.9677 0.519531 0 22.6618 0 49.9756C0 77.2893 21.9677 99.4316 49.0664 99.4316Z" fill="#7DBD7F"/>
<mask id="mask0_580_175" style="mask-type:luminance" maskUnits="userSpaceOnUse" x="23" y="23" width="57" height="54">
<path d="M79.3955 23.1401H23.0645V76.3665H79.3955V23.1401Z" fill="white"/>
</mask>
<g mask="url(#mask0_580_175)">
<path d="M27.8919 72.3825C30.5826 74.5655 33.882 75.6666 37.7205 75.6666C38.3228 75.6666 38.9373 75.6412 39.571 75.5841C39.7905 75.5521 40.01 75.4758 40.2044 75.3359C40.8255 74.8903 40.9696 74.0246 40.5369 73.3945C40.2358 72.9618 39.734 72.7644 39.251 72.8218C35.3811 73.14 32.132 72.2617 29.6043 70.2124C28.814 69.5694 28.0362 68.5449 28.0362 68.5449C25.0067 64.4462 25.3956 58.4953 27.2585 48.2486C28.3436 42.2659 29.0649 35.7677 29.5855 31.0198C29.7799 29.2761 29.9744 27.4939 30.1311 26.3419C31.8497 27.462 35.1679 30.5171 37.821 33.3236L38.6927 34.2339L39.6649 33.4385C39.6649 33.4385 42.7259 30.9752 46.4014 30.8736H46.5958C50.2713 30.9752 53.3009 33.4193 53.3323 33.4385L54.3108 34.2402L55.1825 33.3173C57.8419 30.5105 61.1538 27.4493 62.8724 26.3355C63.0291 27.4875 63.2298 29.2761 63.4179 31.0198C63.9385 35.7677 64.6598 42.2659 65.745 48.2486C67.3318 56.9743 67.8524 63.7587 65.3186 68.1693C64.7163 69.1367 64.0453 69.9767 63.3868 70.5688C59.9684 69.2512 56.3868 66.9791 53.0626 64.8789C47.0725 61.0922 41.9041 57.8206 38.6425 60.7228C36.2214 62.8804 36.3282 66.1645 38.9185 69.3024C41.4212 72.3317 45.818 74.8457 50.3969 75.864C51.902 76.2013 53.3886 76.3667 54.8186 76.3667C58.1807 76.3667 61.2854 75.4567 63.876 73.681C66.2154 74.4193 68.53 74.7184 70.7379 74.2919C73.943 73.6684 76.3075 72.1855 77.7815 69.8688C79.4624 67.221 79.8512 63.5168 78.8727 59.4244C78.6595 58.5273 78.3898 57.5661 78.1015 56.5479C76.646 51.3927 74.8273 44.9707 78.6093 40.4519H78.6033C79.0737 39.9809 79.155 39.2429 78.76 38.6953C78.321 38.0781 77.4553 37.9316 76.8344 38.3643C76.7151 38.4471 76.6212 38.5491 76.5333 38.6573C71.8039 44.309 73.9304 51.8254 75.4795 57.3117C75.7618 58.3045 76.0252 59.2399 76.2259 60.0736C76.69 62.0084 77.2044 65.6618 75.492 68.3604C74.4445 70.0087 72.676 71.0844 70.2361 71.5617C69.0067 71.797 67.702 71.7399 66.341 71.4597C66.5228 71.2435 66.6984 71.0015 66.8802 70.7662L66.9053 70.785C67.1876 70.4032 67.4385 70.0087 67.6706 69.6077C67.6831 69.5886 67.702 69.5631 67.7145 69.544C70.6562 64.4334 70.1921 57.3305 68.4484 47.7521C67.3757 41.8712 66.667 35.4241 66.1526 30.7207C65.3999 23.9107 65.3563 23.5033 64.2208 23.2106C63.6063 23.0515 61.7621 22.5614 54.0411 30.5617C52.6233 29.6451 49.8951 28.2004 46.6586 28.1113H46.3323C43.1272 28.2067 40.405 29.6451 38.9938 30.5617C31.2477 22.5614 29.4098 23.0451 28.7889 23.2106C27.7477 23.4843 27.616 24.4898 27.3902 26.151C27.2396 27.2775 27.064 28.8751 26.857 30.7207C26.3364 35.4304 25.6277 41.8712 24.5614 47.7584C22.8491 57.1843 21.8518 64.8281 25.8472 70.2315C25.8848 70.2823 26.8319 71.53 27.8919 72.3891V72.3825ZM41.0073 67.5201C39.8781 66.1517 38.8623 64.2234 40.4427 62.8105C40.7627 62.524 41.1954 62.3969 41.7097 62.3969C43.9553 62.3969 47.8377 64.8535 51.6075 67.2402C54.4738 69.0539 57.516 70.9761 60.5704 72.3891C53.7085 75.5587 44.7017 72.0007 41.0073 67.5267V67.5201Z" fill="white"/>
</g>
</g>
<defs>
<clipPath id="clip0_580_175">
<rect width="98.8636" height="100" fill="white"/>
</clipPath>
</defs>
</svg>
