<svg width="100" height="100" viewBox="0 0 100 100" fill="none" xmlns="http://www.w3.org/2000/svg">
<g clip-path="url(#clip0_540_290)">
<path d="M0 50.0008C0 70.475 12.3117 88.0641 29.9293 95.7973C29.7887 92.3059 29.9043 88.1145 30.7996 84.3156C31.7609 80.2566 37.2332 57.0703 37.2332 57.0703C37.2332 57.0703 35.6359 53.8777 35.6359 49.1594C35.6359 41.7496 39.9305 36.2156 45.2789 36.2156C49.827 36.2156 52.0242 39.6316 52.0242 43.7223C52.0242 48.2941 49.1082 55.1328 47.6086 61.4668C46.3559 66.7707 50.268 71.0969 55.5004 71.0969C64.9738 71.0969 71.3543 58.9293 71.3543 44.5129C71.3543 33.5543 63.9734 25.352 50.5488 25.352C35.3816 25.352 25.9328 36.6629 25.9328 49.2973C25.9328 53.6535 27.2172 56.7254 29.2289 59.1043C30.1539 60.1969 30.2824 60.6363 29.9477 61.891C29.7078 62.8109 29.157 65.0258 28.9289 65.9035C28.5961 67.1699 27.5699 67.6227 26.4254 67.1551C19.4395 64.3031 16.1859 56.6527 16.1859 48.0527C16.1859 33.8492 28.1648 16.818 51.9211 16.818C71.0109 16.818 83.5754 30.632 83.5754 45.4605C83.5754 65.075 72.6707 79.7285 56.5965 79.7285C51.1984 79.7285 46.1207 76.8105 44.3812 73.4961C44.3812 73.4961 41.4785 85.0164 40.8637 87.241C39.8035 91.0961 37.7285 94.9492 35.8312 97.9523C40.4319 99.3126 45.2044 100.003 50.002 100.003C77.6129 100.003 100 77.6164 100 50.0008C100 22.3863 77.6129 0 50.002 0C22.3883 0 0 22.3863 0 50.0008Z" fill="#CB1F27"/>
</g>
<defs>
<clipPath id="clip0_540_290">
<rect width="100" height="100" fill="white"/>
</clipPath>
</defs>
</svg>
