<svg width="88" height="100" viewBox="0 0 88 100" fill="none" xmlns="http://www.w3.org/2000/svg">
<g clip-path="url(#clip0_540_292)">
<path d="M78.125 6.25H9.375C4.19922 6.25 0 10.4492 0 15.625V84.375C0 89.5508 4.19922 93.75 9.375 93.75H78.125C83.3008 93.75 87.5 89.5508 87.5 84.375V15.625C87.5 10.4492 83.3008 6.25 78.125 6.25ZM76.8555 67.7539C76.1719 69.3359 73.3203 70.4883 68.1055 71.3086C67.832 71.6797 67.6172 73.2227 67.2656 74.4141C67.0508 75.1367 66.543 75.5664 65.6836 75.5664H65.6445C64.4336 75.5664 63.1445 75 60.6055 75C57.168 75 55.9766 75.7813 53.3008 77.6758C50.4687 79.6875 47.7539 81.4062 43.6914 81.2305C39.5898 81.543 36.1523 79.043 34.2187 77.6758C31.5234 75.7813 30.3516 75 26.9141 75C24.4727 75 22.9297 75.6055 21.875 75.6055C20.8203 75.6055 20.4102 74.9609 20.2539 74.4336C19.9023 73.2422 19.6875 71.6797 19.4141 71.3086C16.7188 70.8984 10.6641 69.8438 10.5273 67.1289C10.4883 66.4258 10.9766 65.8008 11.6797 65.6836C20.7227 64.1992 24.7852 54.9219 24.9609 54.5313C24.9609 54.5117 24.9805 54.4922 25 54.4727C25.4883 53.4961 25.5859 52.6758 25.3125 52.0312C24.6484 50.4883 21.8164 49.9414 20.625 49.4531C17.5391 48.2422 17.1094 46.8359 17.3047 45.8789C17.6172 44.2187 20.1172 43.1836 21.582 43.8672C22.7344 44.4141 23.7695 44.6875 24.6484 44.6875C25.293 44.6875 25.7227 44.5312 25.9375 44.4141C25.6641 39.7461 25.0195 33.0859 26.6797 29.3555C31.0742 19.5313 40.3711 18.75 43.1055 18.75C43.2227 18.75 44.2969 18.7305 44.4141 18.7305C51.1914 18.7305 57.6953 22.207 60.8789 29.3359C62.5391 33.0664 61.8945 39.707 61.6211 44.3945C61.8359 44.5117 62.1875 44.6484 62.7344 44.668C63.5742 44.6289 64.5312 44.3555 65.6055 43.8477C66.3867 43.4766 67.4805 43.5352 68.2617 43.8477C69.4922 44.2969 70.2734 45.1758 70.293 46.1719C70.3125 47.4414 69.1797 48.5352 66.9336 49.4141C66.6602 49.5313 66.3281 49.6289 65.9766 49.7461C64.707 50.1562 62.7734 50.7617 62.2656 51.9922C61.9922 52.6367 62.1094 53.457 62.5781 54.4336C62.5977 54.4531 62.5977 54.4727 62.6172 54.4922C62.793 54.8828 66.8555 64.1602 75.8984 65.6445C76.6797 65.8398 77.2852 66.7187 76.8555 67.7539Z" fill="#FFC700"/>
</g>
<defs>
<clipPath id="clip0_540_292">
<rect width="87.5" height="100" fill="white"/>
</clipPath>
</defs>
</svg>
