<svg width="143" height="100" viewBox="0 0 143 100" fill="none" xmlns="http://www.w3.org/2000/svg">
<g clip-path="url(#clip0_540_284)">
<path d="M139.081 15.5972C138.265 12.5825 136.674 9.83414 134.466 7.62571C132.258 5.41729 129.509 3.8259 126.495 3.01C115.458 0 71.039 0 71.039 0C71.039 0 26.6179 0.0911109 15.5812 3.10111C12.5665 3.91706 9.81813 5.50853 7.60979 7.71706C5.40146 9.92558 3.81023 12.6741 2.99455 15.6889C-0.343782 35.2989 -1.63878 65.18 3.08622 84.0056C3.90198 87.0203 5.49325 89.7686 7.70158 91.9771C9.9099 94.1855 12.6582 95.7769 15.6729 96.5928C26.7096 99.6028 71.1296 99.6028 71.1296 99.6028C71.1296 99.6028 115.549 99.6028 126.585 96.5928C129.6 95.777 132.348 94.1856 134.557 91.9772C136.765 89.7688 138.357 87.0203 139.172 84.0056C142.693 64.3678 143.778 34.505 139.081 15.5972Z" fill="#FF0000"/>
<path d="M56.9004 71.1447L93.7493 49.8013L56.9004 28.458V71.1447Z" fill="white"/>
</g>
<defs>
<clipPath id="clip0_540_284">
<rect width="142.222" height="100" fill="white"/>
</clipPath>
</defs>
</svg>
