<svg width="100" height="100" viewBox="0 0 100 100" fill="none" xmlns="http://www.w3.org/2000/svg">
<path d="M6.25 6.25H93.75V93.75H6.25V6.25Z" fill="#F5DE19"/>
<path d="M65.0277 74.6095C65.7733 76.1239 66.9315 77.3967 68.3691 78.2814C69.8066 79.166 71.4649 79.6264 73.1527 79.6095C76.559 79.6095 78.7371 77.9064 78.7371 75.547C78.7371 72.7345 76.4996 71.7282 72.7496 70.0876L70.6934 69.2064C64.7559 66.6782 60.8184 63.5126 60.8184 56.8189C60.8184 50.6532 65.5059 45.9564 72.859 45.9564C75.2393 45.7845 77.6176 46.3172 79.6971 47.4881C81.7766 48.6591 83.4654 50.4163 84.5527 52.5407L78.1246 56.6501C77.7059 55.5968 76.9769 54.6955 76.0343 54.066C75.0916 53.4365 73.9799 53.1083 72.8465 53.1251C72.352 53.0756 71.8526 53.1297 71.3801 53.2838C70.9077 53.438 70.4725 53.6889 70.1024 54.0205C69.7323 54.3521 69.4353 54.7572 69.2303 55.21C69.0254 55.6627 68.917 56.1532 68.9121 56.6501C68.9121 59.1158 70.4402 60.1158 73.9684 61.6501L76.0246 62.5314C83.0121 65.5282 86.9621 68.5814 86.9621 75.447C86.9621 82.8501 81.1465 86.9064 73.3371 86.9064C70.2943 87.1002 67.2604 86.4094 64.6015 84.9172C61.9427 83.425 59.7724 81.1953 58.3527 78.497L65.0277 74.6095ZM35.9809 75.322C37.2715 77.6126 38.4465 79.5501 41.2715 79.5501C43.9715 79.5501 45.6777 78.4939 45.6777 74.3845V46.4251H53.8996V74.4939C53.8996 83.0064 48.8996 86.8814 41.6215 86.8814C39.0488 87.022 36.4938 86.3809 34.2924 85.0422C32.0909 83.7036 30.346 81.7302 29.2871 79.3814L35.9809 75.322Z" fill="black"/>
</svg>
