<svg width="100" height="100" viewBox="0 0 100 100" fill="none" xmlns="http://www.w3.org/2000/svg">
<path d="M23.1087 14C17.8593 14 13.9748 18.5766 14.1488 23.5397C14.3159 28.3078 14.0988 34.4837 12.538 39.5199C10.9726 44.5707 8.32472 47.7702 4 48.1811V52.8189C8.32472 53.2298 10.9726 56.4293 12.538 61.4805C14.0988 66.5167 14.3159 72.6919 14.1488 77.4603C13.9748 82.4227 17.8593 87 23.1094 87H76.8981C82.1479 87 86.0313 82.4234 85.8574 77.4603C85.6906 72.6922 85.9073 66.5167 87.4681 61.4805C89.0346 56.4296 91.6753 53.2295 96 52.8189V48.1811C91.6753 47.7702 89.0346 44.5707 87.4684 39.5199C85.9073 34.4844 85.6906 28.3081 85.8574 23.5397C86.0313 18.5773 82.1479 14 76.8981 14H23.108H23.1087ZM66.3731 58.9361C66.3731 65.7703 61.2556 69.9148 52.7629 69.9148H38.3052C37.8917 69.9147 37.4952 69.751 37.2028 69.4598C36.9105 69.1685 36.7463 68.7735 36.7463 68.3616V32.6384C36.7462 32.4344 36.7865 32.2324 36.8648 32.0439C36.9432 31.8554 37.058 31.6841 37.2028 31.5399C37.3476 31.3956 37.5196 31.2812 37.7088 31.2031C37.898 31.125 38.1008 31.0848 38.3056 31.0848H52.6802C59.7617 31.0848 64.4091 34.9061 64.4091 40.7724C64.4091 44.89 61.2826 48.5763 57.2996 49.2217V49.4369C62.7222 50.0293 66.3731 53.7696 66.3731 58.9361ZM51.1859 36.0086H42.943V47.6066H49.8861C55.253 47.6066 58.2128 45.4538 58.2128 41.6057C58.2128 38 55.6673 36.0086 51.1859 36.0086ZM42.9433 52.2086V64.9896H51.49C57.0775 64.9896 60.0381 62.7563 60.0381 58.5588C60.0381 54.3606 56.9952 52.2078 51.1306 52.2078H42.9433V52.2086Z" fill="#7E13F8"/>
</svg>
