<svg width="71" height="100" viewBox="0 0 71 100" fill="none" xmlns="http://www.w3.org/2000/svg">
<g clip-path="url(#clip0_524_274)">
<path d="M70.7906 19.6028L64.3527 91.7247L35.4136 99.7474L6.55435 91.7357L0.123047 19.6028H70.7906Z" fill="#E44D26"/>
<path d="M35.457 93.6149L58.8412 87.1321L64.3426 25.5005H35.457V93.6149Z" fill="#F16529"/>
<path d="M22.9419 43.1945H35.4571V34.3477H13.2734L13.4851 36.7211L15.6596 61.1006H35.4571V52.2537H23.7504L22.9419 43.1945ZM24.9358 65.5241H16.0549L17.2942 79.415L35.4164 84.4454L35.4571 84.4344V75.2299L35.4183 75.2402L25.5657 72.5798L24.9358 65.5241Z" fill="#EBEBEB"/>
<path d="M6.69727 0H11.1931V4.44183H15.3059V0H19.802V13.451H15.3061V8.94681H11.1934V13.451H6.69754L6.69727 0ZM25.7139 4.46066H21.7565V0H34.1704V4.46066H30.2106V13.451H25.7147V4.46066H25.7139ZM36.1405 0H40.8283L43.7119 4.72632L46.5928 0H51.2826V13.451H46.805V6.78393L43.7119 11.5665H43.6344L40.5394 6.78393V13.451H36.1405V0ZM53.52 0H58.0172V9.00499H64.3396V13.451H53.5197L53.52 0Z" fill="black"/>
<path d="M35.4261 61.1006H46.32L45.2928 72.5743L35.4258 75.2374V84.4413L53.5623 79.415L53.6953 77.9202L55.7745 54.6294L55.9903 52.2537H35.4261V61.1006ZM35.4261 43.1729V43.1945H56.7953L56.9726 41.2061L57.3759 36.7211L57.5873 34.3477H35.4261V43.1729Z" fill="white"/>
</g>
<defs>
<clipPath id="clip0_524_274">
<rect width="70.9141" height="100" fill="white"/>
</clipPath>
</defs>
</svg>
