<svg width="71" height="100" viewBox="0 0 71 100" fill="none" xmlns="http://www.w3.org/2000/svg">
<g clip-path="url(#clip0_524_280)">
<path d="M35.4136 99.7474L6.55435 91.7357L0.123047 19.6028H70.7906L64.3527 91.7247L35.4136 99.7474Z" fill="#264DE4"/>
<path d="M58.8412 87.1321L64.3426 25.5005H35.457V93.6149L58.8412 87.1321Z" fill="#2965F1"/>
<path d="M14.8668 52.2537L15.6596 61.1006H35.4571V52.2537H14.8668ZM13.2734 34.3477L14.0776 43.1945H35.4571V34.3477H13.2734ZM35.4571 75.2299L35.4183 75.2402L25.5657 72.5798L24.9358 65.5241H16.0549L17.2942 79.415L35.4164 84.4454L35.4571 84.4344V75.2299Z" fill="#EBEBEB"/>
<path d="M16.7539 0H27.4686V4.48089H21.2348V8.96177H27.4691V13.4424H16.7539V0ZM29.6118 0H40.3268V3.8964H34.0927V4.67562H40.3268V13.6374H29.6121V9.54571H35.8461V8.76648H29.6115L29.6118 0ZM42.47 0H53.1849V3.8964H46.9509V4.67562H53.1849V13.6374H42.47V9.54571H48.704V8.76648H42.4703L42.47 0Z" fill="black"/>
<path d="M55.9903 52.2537L57.5873 34.3477H35.4261V43.1945H47.892L47.087 52.2537H35.4261V61.1006H46.32L45.2928 72.5743L35.4258 75.2374V84.4413L53.5623 79.415L53.6953 77.9202L55.7745 54.6294L55.9903 52.2537Z" fill="white"/>
</g>
<defs>
<clipPath id="clip0_524_280">
<rect width="70.9141" height="100" fill="white"/>
</clipPath>
</defs>
</svg>
