<svg width="100" height="100" viewBox="0 0 100 100" fill="none" xmlns="http://www.w3.org/2000/svg">
<g clip-path="url(#clip0_524_265)">
<path d="M76.5625 0H23.4375C10.4933 0 0 10.4933 0 23.4375V76.5625C0 89.5067 10.4933 100 23.4375 100H76.5625C89.5067 100 100 89.5067 100 76.5625V23.4375C100 10.4933 89.5067 0 76.5625 0Z" fill="#242938"/>
<path d="M89.0625 71.4597C87.9253 71.8904 86.6698 71.8895 85.5332 71.4573C84.3966 71.0251 83.4578 70.1914 82.8941 69.114C79.3539 63.8144 75.4445 58.7538 71.6871 53.5847L70.0578 51.4128C65.5836 57.4073 61.1094 63.1628 57.0262 69.1359C56.4943 70.1657 55.6063 70.967 54.5274 71.3906C53.4486 71.8141 52.2525 71.8311 51.1621 71.4382L67.9512 48.9152L52.3348 28.5636C53.4589 28.1577 54.6887 28.1521 55.8164 28.5477C56.9442 28.9434 57.9009 29.7162 58.525 30.7355C62.152 36.0355 66.1703 41.096 70.1664 46.4609C74.1848 41.1394 78.1594 36.0569 81.8734 30.8007C82.4082 29.7876 83.2968 29.0065 84.3701 28.606C85.4434 28.2056 86.6264 28.2137 87.6941 28.6288L81.6344 36.6652C78.9195 40.2487 76.248 43.8542 73.4246 47.3511C73.1969 47.5547 73.0148 47.8041 72.8901 48.083C72.7654 48.3618 72.701 48.6638 72.701 48.9693C72.701 49.2747 72.7654 49.5767 72.8901 49.8555C73.0148 50.1344 73.1969 50.3838 73.4246 50.5874C78.6156 57.4726 83.7629 64.3792 89.0625 71.4597ZM10.9375 48.6327C11.3937 46.4609 11.6758 44.0933 12.3059 41.878C16.0633 28.5206 31.3754 22.9601 41.9094 31.2355C48.0777 36.0792 49.6199 42.9425 49.316 50.6745H14.5648C14 64.4882 23.9691 72.8284 36.7184 68.5714C38.7865 67.8315 40.6378 66.5883 42.1053 64.954C43.5727 63.3197 44.6101 61.3456 45.1238 59.2101C45.7973 57.0382 46.8832 56.6691 48.9465 57.2987C48.6067 59.9429 47.6719 62.4756 46.2123 64.7065C44.7527 66.9373 42.8063 68.8082 40.5195 70.1784C36.7413 72.2448 32.4064 73.0634 28.1347 72.5173C23.8631 71.9711 19.8736 70.0882 16.7367 67.1378C13.6333 63.6485 11.7569 59.2395 11.3937 54.5839C11.3937 53.8456 11.1113 53.1069 10.9594 52.412C10.945 51.1523 10.9377 49.8925 10.9375 48.6327ZM14.6082 47.6987H46.0363C45.8406 37.6862 39.5203 30.5839 31.0934 30.5191C21.7105 30.3886 14.9992 37.3386 14.5863 47.6554L14.6082 47.6987Z" fill="white"/>
</g>
<defs>
<clipPath id="clip0_524_265">
<rect width="100" height="100" fill="white"/>
</clipPath>
</defs>
</svg>
