<svg width="179" height="80" viewBox="0 0 179 80" fill="none" xmlns="http://www.w3.org/2000/svg">
<path d="M112.2 25.2512C114.427 25.2512 116.231 23.4466 116.231 21.2207C116.231 18.9948 114.427 17.1902 112.2 17.1902C109.975 17.1902 108.17 18.9948 108.17 21.2207C108.17 23.4466 109.975 25.2512 112.2 25.2512Z" fill="#00D8FF"/>
<path d="M112.206 13.0264C117.618 13.0264 122.645 13.8028 126.435 15.1079C131.002 16.6801 133.81 19.0632 133.81 21.2213C133.81 23.4701 130.834 26.0019 125.93 27.6267C122.222 28.8551 117.343 29.4964 112.206 29.4964C106.94 29.4964 101.952 28.8945 98.2026 27.6131C93.4587 25.9917 90.6016 23.4273 90.6016 21.2213C90.6016 19.0807 93.2826 16.7159 97.7854 15.1462C101.59 13.8197 106.741 13.0264 112.205 13.0264H112.206Z" stroke="#00D8FF" stroke-width="3"/>
<path d="M105.072 17.1473C107.775 12.4596 110.959 8.49264 113.983 5.86125C117.626 2.69039 121.094 1.44858 122.963 2.52642C124.911 3.64984 125.618 7.4928 124.575 12.5529C123.788 16.3784 121.905 20.9252 119.339 25.3753C116.708 29.9377 113.695 33.9573 110.712 36.5645C106.938 39.8639 103.289 41.058 101.378 39.956C99.5234 38.8874 98.8143 35.383 99.704 30.6981C100.456 26.7396 102.342 21.881 105.071 17.1473H105.072Z" stroke="#00D8FF" stroke-width="3"/>
<path d="M105.079 25.3869C102.368 20.7044 100.522 15.964 99.7513 12.0298C98.8239 7.28963 99.4796 3.66552 101.347 2.58445C103.294 1.45757 106.976 2.76463 110.839 6.19495C113.76 8.78832 116.759 12.6894 119.333 17.1351C121.972 21.6932 123.949 26.3111 124.719 30.1973C125.692 35.1152 124.904 38.8729 122.995 39.9779C121.143 41.0504 117.753 39.9151 114.138 36.8045C111.084 34.1765 107.817 30.116 105.079 25.3869Z" stroke="#00D8FF" stroke-width="3"/>
<path d="M159.396 0.407812C160.344 -0.134684 161.579 -0.137189 162.526 0.407812C167.29 3.10006 172.056 5.78787 176.82 8.48166C177.716 8.98638 178.315 9.9835 178.306 11.0159V27.2127C178.313 28.2879 177.654 29.3089 176.709 29.802C171.96 32.4795 167.214 35.1599 162.466 37.8374C161.498 38.3904 160.239 38.3479 159.302 37.7493C157.878 36.9241 156.452 36.1027 155.028 35.2783C154.737 35.1048 154.409 34.9668 154.204 34.6847C154.386 34.44 154.71 34.4095 154.974 34.3025C155.568 34.1135 156.114 33.8102 156.66 33.5159C156.798 33.4214 156.967 33.4577 157.099 33.5421C158.316 34.2401 159.523 34.9586 160.745 35.6498C161.005 35.8003 161.269 35.6005 161.492 35.4764C166.152 32.8425 170.817 30.2189 175.477 27.5843C175.649 27.5012 175.745 27.3179 175.731 27.1289C175.734 21.7858 175.731 16.442 175.732 11.0987C175.752 10.8844 175.628 10.6871 175.434 10.5992C170.702 7.93415 165.972 5.26522 161.24 2.59957C161.158 2.54318 161.061 2.5129 160.962 2.51273C160.862 2.51256 160.765 2.5425 160.683 2.59861C155.951 5.26523 151.222 7.93685 146.491 10.6015C146.298 10.6896 146.168 10.8837 146.191 11.0987C146.192 16.442 146.191 21.7858 146.191 27.1296C146.183 27.222 146.203 27.3146 146.249 27.395C146.295 27.4754 146.365 27.5398 146.448 27.5794C147.711 28.2954 148.975 29.0063 150.238 29.7199C150.95 30.1029 151.824 30.3307 152.608 30.0372C153.3 29.7889 153.785 29.0826 153.772 28.348C153.779 23.0362 153.769 17.7236 153.777 12.4123C153.76 12.1766 153.984 11.9818 154.213 12.0041C154.82 11.9999 155.427 11.9958 156.034 12.0057C156.287 11.9999 156.461 12.2539 156.43 12.4913C156.427 17.8369 156.436 23.1824 156.426 28.5278C156.427 29.9526 155.842 31.5028 154.524 32.1998C152.901 33.0406 150.894 32.8624 149.291 32.0561C147.902 31.363 146.577 30.5452 145.214 29.8028C144.266 29.3124 143.611 28.2873 143.617 27.2129V11.0159C143.607 9.96211 144.231 8.94688 145.154 8.44948C149.902 5.77014 154.649 3.08849 159.396 0.407812Z" fill="#81CD39"/>
<path d="M163.541 11.6268C165.612 11.4934 167.829 11.5478 169.692 12.568C171.135 13.3497 171.935 14.9905 171.96 16.5933C171.92 16.8093 171.694 16.9286 171.488 16.9138C170.887 16.913 170.286 16.9221 169.685 16.9097C169.43 16.9196 169.282 16.6846 169.25 16.4594C169.077 15.6923 168.659 14.9329 167.937 14.5628C166.829 14.0082 165.545 14.0361 164.336 14.0477C163.454 14.0943 162.506 14.1709 161.758 14.6895C161.185 15.0824 161.01 15.8756 161.215 16.5145C161.408 16.9731 161.937 17.1211 162.371 17.2576C164.866 17.9103 167.511 17.8452 169.959 18.7041C170.972 19.0543 171.964 19.7351 172.31 20.7962C172.764 22.2185 172.565 23.9182 171.553 25.0599C170.733 25.9994 169.538 26.5109 168.346 26.7886C166.76 27.1422 165.115 27.1513 163.504 26.9942C161.99 26.8215 160.414 26.4238 159.245 25.3921C158.246 24.5241 157.758 23.1717 157.806 21.8666C157.818 21.6461 158.037 21.4923 158.248 21.5105C158.853 21.5056 159.458 21.5039 160.063 21.5114C160.305 21.4941 160.484 21.703 160.497 21.9308C160.608 22.6614 160.883 23.4284 161.52 23.8614C162.75 24.6548 164.293 24.6005 165.701 24.6226C166.867 24.571 168.177 24.5554 169.128 23.7843C169.631 23.3445 169.779 22.6087 169.644 21.9759C169.497 21.4415 168.938 21.1925 168.458 21.0296C165.994 20.2505 163.32 20.5332 160.88 19.6519C159.89 19.3019 158.932 18.6401 158.552 17.6226C158.021 16.1824 158.264 14.401 159.382 13.298C160.472 12.2005 162.045 11.7779 163.541 11.6268Z" fill="#81CD39"/>
<path d="M70.7125 2.14526H50.4047C45.4566 2.14526 41.4453 6.1565 41.4453 11.1046V31.4125C41.4453 36.3606 45.4566 40.3718 50.4047 40.3718H70.7125C75.6607 40.3718 79.6719 36.3606 79.6719 31.4125V11.1046C79.6719 6.1565 75.6607 2.14526 70.7125 2.14526Z" fill="#242938"/>
<path d="M75.4915 29.462C75.0568 29.6266 74.5768 29.6263 74.1423 29.4611C73.7079 29.2959 73.349 28.9772 73.1335 28.5653C71.7802 26.5395 70.2858 24.605 68.8494 22.629L68.2266 21.7988C66.5163 24.0903 64.8059 26.2904 63.2451 28.5737C63.0418 28.9673 62.7023 29.2737 62.2899 29.4356C61.8775 29.5975 61.4203 29.604 61.0034 29.4538L67.4213 20.844L61.4517 13.0643C61.8814 12.9091 62.3515 12.907 62.7826 13.0582C63.2138 13.2095 63.5795 13.5049 63.818 13.8945C65.2045 15.9205 66.7406 17.855 68.2681 19.9058C69.8042 17.8716 71.3236 15.9288 72.7433 13.9195C72.9478 13.5322 73.2874 13.2336 73.6977 13.0805C74.108 12.9274 74.5602 12.9305 74.9684 13.0892L72.6519 16.1612C71.6142 17.5311 70.5929 18.9094 69.5136 20.2461C69.4266 20.324 69.357 20.4193 69.3093 20.5259C69.2617 20.6325 69.237 20.7479 69.237 20.8647C69.237 20.9814 69.2617 21.0969 69.3093 21.2035C69.357 21.3101 69.4266 21.4054 69.5136 21.4833C71.498 24.1152 73.4656 26.7554 75.4915 29.462ZM45.627 20.736C45.8014 19.9058 45.9092 19.0008 46.15 18.154C47.5864 13.0479 53.4397 10.9223 57.4664 14.0857C59.8244 15.9373 60.4139 18.5609 60.2977 21.5166H47.0136C46.7976 26.797 50.6085 29.9852 55.4821 28.3579C56.2727 28.0751 56.9804 27.5999 57.5413 26.9751C58.1023 26.3504 58.4988 25.5958 58.6952 24.7794C58.9526 23.9492 59.3678 23.8081 60.1565 24.0488C60.0266 25.0595 59.6693 26.0277 59.1113 26.8805C58.5534 27.7333 57.8093 28.4484 56.9352 28.9722C55.4909 29.7621 53.8338 30.075 52.2009 29.8663C50.568 29.6575 49.0429 28.9377 47.8438 27.8099C46.6575 26.476 45.9402 24.7907 45.8014 23.011C45.8014 22.7288 45.6934 22.4464 45.6353 22.1807C45.6298 21.6992 45.627 21.2176 45.627 20.736ZM47.0301 20.379H59.044C58.9692 16.5516 56.5532 13.8366 53.3318 13.8118C49.7451 13.7619 47.1796 16.4187 47.0218 20.3624L47.0301 20.379Z" fill="white"/>
<path fill-rule="evenodd" clip-rule="evenodd" d="M17.5033 14.0833C18.0082 15.5429 18.3712 17.0331 18.4909 18.5771C18.6391 20.4932 18.5716 22.3961 18.1675 24.2805L18.1156 24.4311C17.9889 24.4315 17.8596 24.4155 17.7358 24.4348C16.6893 24.5994 15.644 24.7698 14.5983 24.9393C13.5172 25.1147 12.4353 25.283 11.3563 25.4698C10.974 25.5356 10.5007 25.457 10.3464 25.9854L10.2723 26.0106L10.3246 22.8508L10.2715 15.2269L10.7752 15.1405C11.5987 15.0059 12.4221 14.8689 13.2468 14.7376C14.2304 14.5816 15.2148 14.4293 16.1991 14.2771C16.6337 14.2104 17.0687 14.1483 17.5033 14.0833Z" fill="#439934"/>
<path fill-rule="evenodd" clip-rule="evenodd" d="M9.23004 35.2222C8.69875 34.7654 8.14895 34.3288 7.6399 33.8481C4.89995 31.2638 2.89539 28.2213 1.90814 24.5534C1.63612 23.5443 1.45505 22.5184 1.39661 21.4756C1.35546 20.7455 1.29661 20.0093 1.34846 19.283C1.4855 17.3517 1.76493 15.4389 2.33119 13.5784L2.36247 13.5352C2.41761 13.6084 2.49663 13.6734 2.52461 13.7561C3.0777 15.3841 3.62627 17.0138 4.17236 18.6447C5.88802 23.7686 7.60162 28.8938 9.32016 34.0169C9.35391 34.1169 9.44074 34.1988 9.50329 34.2889L9.23004 35.2222Z" fill="#45A538"/>
<path fill-rule="evenodd" clip-rule="evenodd" d="M17.4994 14.0832C17.0645 14.1478 16.6295 14.2104 16.1953 14.277C15.2109 14.4293 14.2266 14.5816 13.243 14.7375C12.4187 14.8684 11.5953 15.0055 10.7714 15.1404L10.2677 15.2269L10.2636 14.8985C10.2467 14.6285 10.2187 14.3585 10.215 14.0886L10.1586 8.92225C10.1454 7.84446 10.1257 6.76667 10.1039 5.68929C10.0928 5.01966 10.0734 4.35019 10.0459 3.68104C10.0294 3.32178 9.97137 2.96416 9.94832 2.6049C9.93474 2.39831 9.95285 2.19008 9.95738 1.98267C10.2142 2.4802 10.4656 2.98144 10.7294 3.47528C11.1463 4.25594 11.8109 4.83126 12.4097 5.45884C14.7743 7.94076 16.4529 10.8247 17.4994 14.0832Z" fill="#46A037"/>
<path fill-rule="evenodd" clip-rule="evenodd" d="M10.2732 26.0108L10.3473 25.9857C10.5016 25.4573 10.9749 25.5359 11.3572 25.4701C12.4362 25.2833 13.5181 25.1149 14.5992 24.9396C15.6449 24.7705 16.6902 24.6001 17.7367 24.4351C17.8605 24.4158 17.9898 24.4318 18.1165 24.4314C17.921 25.1293 17.7671 25.8425 17.519 26.5211C17.2371 27.2907 16.8963 28.0421 16.5346 28.7788C15.9927 29.8773 15.3223 30.9076 14.5375 31.8479C13.9342 32.5731 13.2617 33.2443 12.5881 33.9064C12.2152 34.2723 11.7765 34.5706 11.3675 34.8998L11.2613 34.8274L10.8798 34.5015L10.4852 33.6356C10.2155 32.6259 10.0683 31.5874 10.0469 30.5426L10.0543 30.3664L10.1082 29.6035C10.1259 29.343 10.1498 29.0829 10.1609 28.8224C10.2004 27.8858 10.2358 26.9483 10.2732 26.0108Z" fill="#409433"/>
<path fill-rule="evenodd" clip-rule="evenodd" d="M10.2713 26.0105C10.2342 26.948 10.1988 27.8858 10.1589 28.8233C10.1478 29.0842 10.1243 29.3443 10.1062 29.6044L9.8659 29.6953C9.33174 28.1229 8.79717 26.5669 8.27453 25.0072C7.40991 22.4265 6.55599 19.8421 5.69261 17.2606C4.99541 15.1772 4.29334 13.0954 3.58641 11.0153C3.55307 10.9182 3.45842 10.8416 3.39258 10.7556L4.93169 7.92554C4.98478 8.01731 5.05433 8.10332 5.08766 8.20208C5.7996 10.3091 6.51031 12.4165 7.21485 14.526C8.13173 17.2709 9.04244 20.017 9.9585 22.7623C9.99512 22.8718 10.0552 22.973 10.1128 23.0961L10.3235 22.8508L10.2713 26.0105Z" fill="#4FAA41"/>
<path fill-rule="evenodd" clip-rule="evenodd" d="M3.38624 10.7556C3.4525 10.8416 3.54715 10.9182 3.58007 11.0153C4.28707 13.0954 4.98913 15.1772 5.68627 17.2606C6.54965 19.8421 7.40357 22.4265 8.26819 25.0072C8.79083 26.5669 9.3254 28.1225 9.85957 29.6953L10.0999 29.6044L10.046 30.3674L9.99702 30.5431C9.91348 31.3781 9.84311 32.2147 9.74105 33.0481C9.69002 33.4658 9.58096 33.8756 9.49825 34.2888C9.43611 34.1987 9.34886 34.1168 9.31512 34.0168C7.59617 28.8937 5.88298 23.7685 4.16732 18.6446C3.62146 17.0139 3.07221 15.3844 2.51956 13.7561C2.49158 13.6733 2.41257 13.6083 2.35742 13.5351L3.38624 10.7556Z" fill="#4AA73C"/>
<path fill-rule="evenodd" clip-rule="evenodd" d="M10.3235 22.8511L10.1128 23.0964C10.0552 22.9734 9.99507 22.8721 9.95845 22.7627C9.04239 20.0174 8.13168 17.2712 7.21479 14.5263C6.50943 12.4171 5.80037 10.3091 5.08761 8.2024C5.05427 8.10363 4.98473 8.01762 4.93164 7.92585L6.83496 5.42212C6.89504 5.50196 6.98063 5.57315 7.0115 5.66327C7.5399 7.21062 8.06336 8.7592 8.58436 10.309C9.07078 11.7568 9.5498 13.2062 10.042 14.6514C10.0749 14.7482 10.1897 14.8165 10.2663 14.8988L10.2704 15.2272L10.3235 22.8511Z" fill="#57AE47"/>
<path fill-rule="evenodd" clip-rule="evenodd" d="M10.2653 14.8984C10.1883 14.8165 10.0739 14.7482 10.041 14.6511C9.54924 13.2058 9.06981 11.7564 8.58339 10.3087C8.0628 8.75884 7.53851 7.21026 7.01053 5.66294C6.97966 5.57281 6.89407 5.50162 6.83398 5.42178C7.45292 4.8156 8.05252 4.18761 8.69656 3.60942C9.26899 3.09583 9.72908 2.54521 9.75048 1.73326L9.79575 1.57153L9.95871 1.98224C9.95459 2.18965 9.93608 2.39788 9.94966 2.60447C9.97312 2.96373 10.0311 3.32135 10.0472 3.68061C10.0772 4.34934 10.0916 5.01931 10.1052 5.68887C10.127 6.76624 10.1468 7.84403 10.1599 8.92183L10.2163 14.0881C10.2204 14.3585 10.2488 14.6285 10.2653 14.8984Z" fill="#60B24F"/>
<path fill-rule="evenodd" clip-rule="evenodd" d="M9.50609 34.2886C9.58881 33.8754 9.69786 33.4655 9.74889 33.0478C9.85095 32.2149 9.92132 31.3778 10.0049 30.5428L10.0258 30.5396L10.0464 30.5433C10.0679 31.5881 10.215 32.6266 10.4847 33.6363C10.4291 33.7095 10.3514 33.7742 10.3217 33.8565C10.0933 34.5009 9.8777 35.1507 9.64806 35.7948C9.61679 35.8828 9.52872 35.9516 9.4674 36.0285L9.23242 35.2219L9.50609 34.2886Z" fill="#A9AA88"/>
<path fill-rule="evenodd" clip-rule="evenodd" d="M9.46875 36.0289C9.53007 35.9516 9.61813 35.8832 9.64941 35.7952C9.87904 35.1511 10.0947 34.5013 10.3231 33.8569C10.3523 33.7746 10.4305 33.71 10.486 33.6367L10.8807 34.5026C10.8029 34.6129 10.6951 34.7129 10.6519 34.8359L9.89633 37.0549C9.86505 37.1442 9.75929 37.2067 9.68768 37.282L9.46875 36.0289Z" fill="#B6B598"/>
<path fill-rule="evenodd" clip-rule="evenodd" d="M9.68555 37.2817C9.75674 37.2063 9.86292 37.1438 9.89419 37.0545L10.6498 34.8355C10.6926 34.7125 10.8008 34.6125 10.8786 34.5022L11.2605 34.8277C11.0761 35.01 10.9736 35.2207 11.0354 35.487L10.9193 35.8668C10.8666 35.9318 10.7901 35.9886 10.7642 36.0631C10.5004 36.8187 10.2489 37.5784 9.98308 38.3335C9.94933 38.429 9.85592 38.5043 9.79049 38.5891L9.68555 37.2817Z" fill="#C2C1A7"/>
<path fill-rule="evenodd" clip-rule="evenodd" d="M9.78818 38.5882C9.85403 38.5034 9.94744 38.4281 9.98077 38.3327C10.2466 37.5775 10.4985 36.8178 10.7619 36.0623C10.7878 35.9878 10.8643 35.9314 10.917 35.866L10.7569 37.6092C10.7141 37.6586 10.6524 37.7018 10.6318 37.759L10.0993 39.2849C10.0618 39.3891 9.99024 39.4821 9.93427 39.5796C9.88448 39.5146 9.79559 39.4516 9.79147 39.3841C9.77584 39.1199 9.78695 38.8537 9.78818 38.5882Z" fill="#CECDB7"/>
<path fill-rule="evenodd" clip-rule="evenodd" d="M9.9375 39.5807C9.99347 39.4832 10.0651 39.3902 10.1025 39.2861L10.635 37.7602C10.6556 37.7025 10.7178 37.6597 10.7601 37.6104L10.7643 38.7544L10.3811 39.7367L9.9375 39.5807Z" fill="#DBDAC7"/>
<path fill-rule="evenodd" clip-rule="evenodd" d="M10.375 39.736L10.7581 38.7537L10.8371 39.9158L10.375 39.736Z" fill="#EBE9DC"/>
<path fill-rule="evenodd" clip-rule="evenodd" d="M11.0354 35.4867C10.9741 35.2208 11.0762 35.0101 11.2605 34.8274L11.3667 34.8998L11.0354 35.4867Z" fill="#CECDB7"/>
<path fill-rule="evenodd" clip-rule="evenodd" d="M10.0437 30.5445L10.023 30.5407L10.002 30.544L10.0512 30.3674L10.0437 30.5445Z" fill="#4FAA41"/>
<path d="M0 53.9082H3.78688L12.6911 75.5664H12.9982L21.9025 53.9082H25.6893V80H22.7212V60.1763H22.4654L14.2775 80H11.4118L3.22396 60.1763H2.96809V80H0V53.9082Z" fill="black"/>
<path d="M56.2394 80V53.9082H72.0522V56.711H59.4122V65.5272H71.2334V68.33H59.4122V77.1971H72.2569V80H56.2394Z" fill="black"/>
<path d="M103.887 80V53.9082H112.74C114.787 53.9082 116.467 54.2564 117.781 54.9529C119.094 55.6409 120.067 56.5879 120.698 57.7939C121.329 59 121.644 60.3717 121.644 61.909C121.644 63.4463 121.329 64.8095 120.698 65.9986C120.067 67.1877 119.099 68.1219 117.794 68.8014C116.489 69.4724 114.821 69.8079 112.791 69.8079H105.627V66.9541H112.689C114.088 66.9541 115.214 66.7502 116.067 66.3426C116.928 65.9349 117.551 65.3573 117.934 64.6099C118.327 63.854 118.523 62.9537 118.523 61.909C118.523 60.8643 118.327 59.9513 117.934 59.1699C117.542 58.3885 116.915 57.7854 116.054 57.3608C115.192 56.9276 114.054 56.711 112.638 56.711H107.06V80H103.887ZM116.22 68.2791L122.668 80H118.983L112.638 68.2791H116.22Z" fill="black"/>
<path d="M173.824 53.9082V80H170.754L156.476 59.5139H156.22V80H153.048V53.9082H156.118L170.447 74.4453H170.703V53.9082H173.824Z" fill="black"/>
</svg>
