<svg width="147" height="100" viewBox="0 0 147 100" fill="none" xmlns="http://www.w3.org/2000/svg">
<g clip-path="url(#clip0_515_8)">
<path d="M43.6418 65.9881L48.1003 80.4543C49.102 83.7388 49.5198 86.0316 49.3524 87.3385C51.7908 80.8079 53.4946 73.6909 54.4639 65.9881H59.8249C57.5198 78.5285 54.4794 87.6414 50.7054 93.3262C47.765 97.707 44.5438 99.8973 41.0361 99.8973C40.1009 99.8973 38.9478 99.6147 37.5797 99.0537V96.0308C38.2481 96.1288 39.0324 96.1812 39.9344 96.1812C41.5708 96.1812 42.8897 95.7276 43.8931 94.8225C45.0946 93.7196 45.696 92.4801 45.696 91.1061C45.696 90.168 45.2269 88.2428 44.2931 85.3305L38.0811 65.9881H43.6418ZM9.51948 57.0967L17.6857 82.0124H17.7361L25.9524 57.0967H32.6653C34.1352 69.4531 35.0034 80.7589 35.2699 91.0067H29.6103C29.4112 81.427 28.8596 72.419 27.9576 63.9809H27.9083L19.29 91.0067H14.9799L6.41375 63.9809H6.36332C5.72779 72.0846 5.32779 81.0927 5.16103 91.0067H0C0.333524 78.9494 1.16819 67.6471 2.50401 57.0967H9.51948Z" fill="#00758F"/>
<path d="M101.002 56.5931C109.787 56.5931 114.179 62.2051 114.179 73.4237C114.179 79.52 112.858 84.1249 110.219 87.2358C109.743 87.8042 109.217 88.2954 108.664 88.7504L114.88 91.824L114.874 91.8237L112.667 95.6352L104.571 90.9117C103.23 91.3091 101.753 91.5077 100.144 91.5077C95.8309 91.5077 92.6092 90.2507 90.4791 87.7398C88.141 84.9621 86.9725 80.5893 86.9725 74.6289C86.9725 68.567 88.2911 63.9796 90.9312 60.8647C93.3358 58.0154 96.6934 56.5931 101.002 56.5931ZM74.1026 56.6421C77.2421 56.6421 80.0969 57.4822 82.6682 59.1564L81.3622 62.0667C79.1619 61.1315 76.9926 60.6618 74.8533 60.6618C73.1175 60.6618 71.7799 61.0796 70.8476 61.9203C69.91 62.7535 69.3301 63.8257 69.3301 65.1329C69.3301 67.1415 70.761 68.8833 73.4032 70.355C74.2687 70.8281 75.1313 71.3067 75.9908 71.7908L76.188 71.9017L76.2868 71.9572L76.4842 72.0681L76.5828 72.1237L76.7799 72.2349C78.7799 73.3624 80.6619 74.4386 80.6619 74.4386C83.3037 76.314 84.6206 78.3134 84.6206 81.6065C84.6206 84.4825 83.5668 86.8432 81.4659 88.6905C79.3636 90.5294 76.5393 91.4515 73.0023 91.4515C69.6943 91.4515 66.4883 90.3902 63.3828 88.2853L64.8355 85.3724C67.508 86.712 69.9264 87.381 72.098 87.381C74.1347 87.381 75.7289 86.9263 76.8822 86.0283C78.0332 85.1237 78.7229 83.8621 78.7229 82.2624C78.7229 80.2489 77.3224 78.5277 74.753 77.0839C73.9488 76.6396 73.147 76.1909 72.3476 75.738L72.1507 75.6266C71.7891 75.4223 71.4249 75.2154 71.0682 75.0128L70.8748 74.9028C69.1398 73.916 67.6398 73.0538 67.6398 73.0538C65.0714 71.175 63.7834 69.1592 63.7834 65.8378C63.7834 63.0908 64.7438 60.8704 66.6619 59.1813C68.5845 57.4885 71.0651 56.6421 74.1026 56.6421ZM124.502 57.0959V86.8346H135.172V91.0059H119.091V57.0962L124.502 57.0959ZM141.101 86.8475V87.5524H139.928V91.0022H139.031V87.5524H137.813V86.8475H141.101ZM143.267 86.8475L144.394 89.6796L145.428 86.8475H146.7V91.0022H145.854V87.8403L144.677 91.0022H144.067L142.888 87.8403H142.842V91.0022H142.043V86.8475H143.267ZM100.45 60.7633C95.2734 60.7633 92.6837 65.0355 92.6837 73.5741C92.6837 78.4653 93.3699 82.012 94.7398 84.2226C96.0086 86.2684 97.9957 87.2893 100.701 87.2893C105.878 87.2893 108.467 82.9839 108.467 74.377C108.467 69.5544 107.781 66.038 106.413 63.8263C105.143 61.785 103.156 60.7633 100.45 60.7633" fill="#F29111"/>
<path d="M86.881 2.10117C88.5982 -2.11832 94.6025 1.0771 96.9326 2.55102C97.5036 2.91979 98.1586 3.69887 98.8134 3.98684C99.8348 4.02695 100.855 4.1069 101.879 4.14959C103.798 4.60059 105.596 4.96907 107.108 5.83039C114.136 9.96936 118.711 14.1871 122.922 21.1539C123.821 22.6295 124.271 24.2264 125.006 25.8232C126.026 28.2035 127.172 30.702 128.356 32.9527C128.886 34.0198 129.296 35.2063 130.032 36.1075C130.32 36.5195 131.136 36.641 131.624 36.8871C132.973 37.5854 134.607 38.1155 135.876 38.935C138.245 40.4123 140.536 42.1728 142.619 43.9751C143.395 44.6708 143.924 45.6556 144.663 46.3914V46.7628C144.007 46.9642 143.353 47.1705 142.698 47.3358C141.268 47.7032 140.001 47.6201 138.614 47.9877C137.757 48.2364 136.692 48.5645 135.793 48.6479L135.876 48.7315C136.405 50.243 139.267 51.4722 140.576 52.3762C142.166 53.5235 143.639 54.9149 144.824 56.5129C145.234 56.9207 145.643 57.2917 146.051 57.6983C146.335 58.1103 146.416 58.6433 146.704 59.0106V59.135C146.385 59.0224 146.155 58.8075 145.938 58.5828L145.808 58.4473C145.678 58.3126 145.547 58.1803 145.398 58.0711C144.496 57.455 143.6 56.7181 142.698 56.1453C141.147 55.1613 139.349 54.5903 137.757 53.6026C136.856 53.0293 135.998 52.3762 135.14 51.7201C134.362 51.145 133.505 50.0407 133.017 49.2212C132.729 48.7685 132.689 48.2364 132.36 47.9089C132.419 47.3619 132.92 47.1995 133.426 47.0659L133.542 47.0353C133.717 46.99 133.887 46.9447 134.036 46.8848C136.161 45.9828 138.693 45.6556 141.964 45.7376C141.841 44.9164 139.797 43.8931 139.145 43.4015C137.835 42.4576 136.449 41.4728 135.059 40.6138C134.323 40.1639 133.055 39.8356 132.239 39.4679C131.136 39.0169 128.684 38.5662 128.072 37.7072C127.033 36.353 126.287 34.7378 125.563 33.1063L125.366 32.6611C125.3 32.5127 125.234 32.3643 125.168 32.2161C124.312 30.2513 123.248 28.2029 122.39 26.1911C121.941 25.2098 121.735 24.3484 121.244 23.4072C118.262 17.6313 113.849 12.7954 108.498 9.39458C106.739 8.28799 104.778 7.26392 102.614 6.56793C101.387 6.19744 99.9151 6.40231 98.6082 6.11807H97.748C97.0139 5.91119 96.401 5.13297 95.8283 4.72266C94.5632 3.86363 93.2962 3.28684 91.7833 2.67395C91.2532 2.4281 89.7394 1.85561 89.2111 2.30632C88.8838 2.38856 88.7179 2.51205 88.6374 2.84042C88.3119 3.33039 88.5982 4.0685 88.8007 4.52036C89.4145 5.82982 90.2718 6.60804 91.05 7.71463C91.7423 8.69601 92.6022 9.8026 93.093 10.8696C94.152 13.1633 94.6452 15.7046 95.6265 17.998C95.9904 18.8605 96.5661 19.8419 97.0959 20.6198C97.5449 21.2373 98.3612 21.6837 98.6082 22.4654C99.1005 23.2848 97.8712 25.9888 97.5867 26.8476C96.5222 30.2078 96.7285 34.8785 97.9543 37.7911L98.0197 37.9447L98.085 38.1003C98.5326 39.1671 99.0116 40.3158 100.202 40.6141C100.284 40.5327 100.202 40.5754 100.364 40.5327C100.652 38.2782 100.733 36.1072 101.51 34.3433C101.959 33.2404 102.856 32.4608 103.47 31.5605C103.88 31.8058 103.88 32.5453 104.124 33.0347C104.656 34.304 105.227 35.6957 105.883 36.9688C107.228 39.5906 108.742 42.1324 110.458 44.4258C111.032 45.245 111.847 46.1467 112.583 46.8846C112.91 47.1702 113.277 47.3353 113.523 47.7029H113.603V47.8267C112.378 47.3748 111.6 46.1066 110.623 45.3662C108.782 43.9745 106.578 41.8845 105.309 39.8791C104.778 38.7278 104.205 37.6244 103.633 36.4788V36.396C103.388 36.7232 103.47 37.0482 103.348 37.5433C102.817 39.5906 103.226 41.9261 101.387 42.6625C99.303 43.525 97.7483 41.2708 97.0959 40.2464C95.0111 36.8464 94.44 31.1106 95.9102 26.4805C96.2369 25.4556 96.2813 24.2264 96.8515 23.408C96.7283 22.6682 96.1581 22.4659 95.8283 22.0126C95.2563 21.2378 94.7666 20.3353 94.3188 19.4748C93.4586 17.794 92.8466 15.7857 92.1936 13.9831C91.9065 13.247 91.8242 12.508 91.538 11.8112C91.0497 10.7476 90.1497 9.68054 89.4555 8.73956C88.5154 7.38713 85.7772 4.76592 86.881 2.10117ZM100.283 10.1284C100.392 10.2378 100.524 10.3335 100.66 10.4278L100.825 10.5407C101.044 10.6926 101.256 10.8525 101.386 11.0702C101.592 11.3585 101.631 11.643 101.878 11.9318C101.878 12.9166 101.592 13.5714 101.016 13.9794C101.016 13.9794 100.977 14.0224 100.937 14.0625C100.61 13.406 100.324 12.753 99.9947 12.0972C99.5896 11.5247 99.0168 11.0705 98.6867 10.4164H98.6073V10.3341C99.1005 10.2123 99.5896 10.1284 100.283 10.1284Z" fill="#00758F"/>
</g>
<defs>
<clipPath id="clip0_515_8">
<rect width="146.705" height="100" fill="white"/>
</clipPath>
</defs>
</svg>
