<svg width="101" height="100" viewBox="0 0 101 100" fill="none" xmlns="http://www.w3.org/2000/svg">
<g clip-path="url(#clip0_512_156)">
<mask id="mask0_512_156" style="mask-type:alpha" maskUnits="userSpaceOnUse" x="0" y="0" width="101" height="100">
<path fill-rule="evenodd" clip-rule="evenodd" d="M71.7401 99.3177C72.5359 99.6279 73.387 99.7711 74.2404 99.7383C75.0939 99.7055 75.9315 99.4974 76.7011 99.127L97.2893 89.22C98.3496 88.7096 99.2443 87.9102 99.8703 86.9139C100.496 85.9176 100.829 84.7647 100.828 83.588V16.4138C100.829 15.2369 100.497 14.0839 99.8705 13.0874C99.2445 12.0909 98.3497 11.2914 97.2893 10.7809L76.7011 0.875477C75.5377 0.315716 74.2291 0.131417 72.9564 0.348085C71.6837 0.564753 70.5098 1.17168 69.5972 2.08485L30.1831 38.0427L13.0159 25.0106C12.2415 24.4226 11.2857 24.1243 10.3143 24.1674C9.34289 24.2105 8.41724 24.5923 7.69794 25.2466L2.19169 30.2552C1.76258 30.6454 1.41967 31.121 1.18487 31.6514C0.950073 32.1818 0.828567 32.7553 0.828126 33.3354C0.827685 33.9154 0.948318 34.4892 1.18231 35.0199C1.4163 35.5507 1.75849 36.0267 2.187 36.4177L17.0753 50.0005L2.18778 63.5841C1.7595 63.9751 1.41752 64.4511 1.18367 64.9818C0.949828 65.5124 0.829274 66.0861 0.829715 66.666C0.830156 67.2459 0.951583 67.8193 1.18623 68.3496C1.42088 68.8799 1.7636 69.3555 2.19247 69.7458L7.69872 74.7544C8.41785 75.4089 9.34347 75.7909 10.3149 75.8342C11.2863 75.8774 12.2422 75.5791 13.0167 74.9911L30.1839 61.9598L69.5979 97.9169C70.2074 98.5274 70.9364 99.0044 71.7401 99.3177ZM75.8432 27.2997L45.9378 50.0005L75.844 72.702L75.8432 27.2997Z" fill="white"/>
</mask>
<g mask="url(#mask0_512_156)">
<path d="M97.2901 10.7979L76.6854 0.876004C75.5216 0.315872 74.2124 0.131372 72.9391 0.348042C71.6658 0.564712 70.4914 1.17184 69.5783 2.08538L2.12678 63.5846C1.69819 63.9754 1.35591 64.4514 1.12186 64.9821C0.887805 65.5128 0.767138 66.0865 0.767579 66.6665C0.768021 67.2465 0.88956 67.82 1.12442 68.3504C1.35928 68.8807 1.70228 69.3562 2.13147 69.7463L7.64084 74.7549C8.36062 75.4094 9.28674 75.7914 10.2586 75.8346C11.2305 75.8778 12.1869 75.5796 12.9619 74.9916L94.1893 13.3705C96.9143 11.3033 100.828 13.2471 100.828 16.6674V16.4283C100.828 15.2519 100.496 14.0993 99.8703 13.1031C99.2444 12.1069 98.35 11.3084 97.2901 10.7979Z" fill="#0065A9"/>
<g filter="url(#filter0_d_512_156)">
<path d="M97.2901 89.2047L76.6854 99.125C75.5217 99.6853 74.2127 99.8701 72.9394 99.6537C71.6661 99.4373 70.4916 98.8305 69.5783 97.9172L2.12678 36.4172C1.69819 36.0264 1.35591 35.5504 1.12186 35.0197C0.887805 34.489 0.767138 33.9153 0.767579 33.3353C0.768021 32.7553 0.88956 32.1818 1.12442 31.6514C1.35928 31.1211 1.70228 30.6456 2.13147 30.2555L7.64084 25.2469C8.36062 24.5924 9.28674 24.2104 10.2586 24.1672C11.2305 24.124 12.1869 24.4222 12.9619 25.0102L94.1893 86.6305C96.9143 88.6985 100.828 86.7547 100.828 83.3344V83.5735C100.828 84.7499 100.496 85.9025 99.8703 86.8987C99.2444 87.8949 98.35 88.6942 97.2901 89.2047Z" fill="#007ACC"/>
</g>
<g filter="url(#filter1_d_512_156)">
<path d="M76.6859 99.1275C75.5219 99.6873 74.2126 99.8715 72.9393 99.6547C71.6659 99.4379 70.4914 98.8308 69.5781 97.9173C71.8844 100.224 75.8281 98.59 75.8281 95.3283V4.67281C75.8281 1.41109 71.8844 -0.2225 69.5781 2.08453C70.4914 1.1711 71.6659 0.563999 72.9393 0.347203C74.2126 0.130406 75.5219 0.314623 76.6859 0.874375L97.2867 10.7822C98.3475 11.2923 99.2427 12.0917 99.8693 13.0882C100.496 14.0847 100.828 15.2379 100.828 16.415V83.5884C100.828 84.7655 100.496 85.9187 99.8693 86.9153C99.2427 87.9118 98.3475 88.7111 97.2867 89.2213L76.6859 99.1275Z" fill="#1F9CF0"/>
</g>
<path opacity="0.25" fill-rule="evenodd" clip-rule="evenodd" d="M71.68 99.3177C72.4756 99.6278 73.3266 99.7709 74.1799 99.7381C75.0332 99.7053 75.8706 99.4973 76.6401 99.127L97.2284 89.22C98.2888 88.7095 99.1835 87.9101 99.8096 86.9136C100.436 85.9171 100.768 84.7641 100.767 83.5872V16.4138C100.768 15.2369 100.436 14.0839 99.8096 13.0874C99.1835 12.0909 98.2888 11.2914 97.2284 10.7809L76.6401 0.875477C75.4768 0.315716 74.1682 0.131417 72.8955 0.348085C71.6227 0.564753 70.4488 1.17168 69.5362 2.08485L30.1222 38.0427L12.955 25.0114C12.1806 24.4234 11.2247 24.1251 10.2534 24.1682C9.28196 24.2113 8.35631 24.5931 7.63701 25.2474L2.13076 30.2559C1.70176 30.6463 1.35894 31.1219 1.12422 31.6522C0.889488 32.1826 0.768021 32.7562 0.767579 33.3362C0.767138 33.9162 0.887733 34.4899 1.12165 35.0206C1.35557 35.5514 1.69767 36.0275 2.12607 36.4184L17.0144 50.0005L2.12685 63.5833C1.69835 63.9742 1.35615 64.4503 1.12216 64.981C0.888173 65.5118 0.767541 66.0855 0.767982 66.6656C0.768423 67.2456 0.889928 67.8192 1.12472 68.3496C1.35952 68.88 1.70244 69.3555 2.13154 69.7458L7.63779 74.7544C8.357 75.4088 9.2826 75.7907 10.254 75.8339C11.2254 75.8772 12.1813 75.579 12.9558 74.9911L30.1237 61.9591L69.5378 97.9169C70.147 98.5273 70.8765 99.0043 71.68 99.3177ZM75.7831 27.2989L45.8769 50.0005L75.7831 72.7013V27.2989Z" fill="url(#paint0_linear_512_156)"/>
</g>
</g>
<defs>
<filter id="filter0_d_512_156" x="-7.56642" y="15.8291" width="116.729" height="92.2471" filterUnits="userSpaceOnUse" color-interpolation-filters="sRGB">
<feFlood flood-opacity="0" result="BackgroundImageFix"/>
<feColorMatrix in="SourceAlpha" type="matrix" values="0 0 0 0 0 0 0 0 0 0 0 0 0 0 0 0 0 0 127 0" result="hardAlpha"/>
<feOffset/>
<feGaussianBlur stdDeviation="4.167"/>
<feColorMatrix type="matrix" values="0 0 0 0 0 0 0 0 0 0 0 0 0 0 0 0 0 0 0.25 0"/>
<feBlend mode="overlay" in2="BackgroundImageFix" result="effect1_dropShadow_512_156"/>
<feBlend mode="normal" in="SourceGraphic" in2="effect1_dropShadow_512_156" result="shape"/>
</filter>
<filter id="filter1_d_512_156" x="61.2441" y="-8.07521" width="47.918" height="116.152" filterUnits="userSpaceOnUse" color-interpolation-filters="sRGB">
<feFlood flood-opacity="0" result="BackgroundImageFix"/>
<feColorMatrix in="SourceAlpha" type="matrix" values="0 0 0 0 0 0 0 0 0 0 0 0 0 0 0 0 0 0 127 0" result="hardAlpha"/>
<feOffset/>
<feGaussianBlur stdDeviation="4.167"/>
<feColorMatrix type="matrix" values="0 0 0 0 0 0 0 0 0 0 0 0 0 0 0 0 0 0 0.25 0"/>
<feBlend mode="overlay" in2="BackgroundImageFix" result="effect1_dropShadow_512_156"/>
<feBlend mode="normal" in="SourceGraphic" in2="effect1_dropShadow_512_156" result="shape"/>
</filter>
<linearGradient id="paint0_linear_512_156" x1="50.7675" y1="0.25829" x2="50.7675" y2="99.7427" gradientUnits="userSpaceOnUse">
<stop stop-color="white"/>
<stop offset="1" stop-color="white" stop-opacity="0"/>
</linearGradient>
<clipPath id="clip0_512_156">
<rect width="100" height="100" fill="white" transform="translate(0.828125)"/>
</clipPath>
</defs>
</svg>
